<?xml version="1.0" encoding="utf-8" standalone="no"?>
<!DOCTYPE svg PUBLIC "-//W3C//DTD SVG 1.1//EN"
  "http://www.w3.org/Graphics/SVG/1.1/DTD/svg11.dtd">
<svg xmlns:xlink="http://www.w3.org/1999/xlink" width="460.8pt" height="345.6pt" viewBox="0 0 460.8 345.6" xmlns="http://www.w3.org/2000/svg" version="1.1">
 <metadata>
  <rdf:RDF xmlns:dc="http://purl.org/dc/elements/1.1/" xmlns:cc="http://creativecommons.org/ns#" xmlns:rdf="http://www.w3.org/1999/02/22-rdf-syntax-ns#">
   <cc:Work>
    <dc:type rdf:resource="http://purl.org/dc/dcmitype/StillImage"/>
    <dc:date>2023-05-29T13:53:51.497232</dc:date>
    <dc:format>image/svg+xml</dc:format>
    <dc:creator>
     <cc:Agent>
      <dc:title>Matplotlib v3.7.1, https://matplotlib.org/</dc:title>
     </cc:Agent>
    </dc:creator>
   </cc:Work>
  </rdf:RDF>
 </metadata>
 <defs>
  <style type="text/css">*{stroke-linejoin: round; stroke-linecap: butt}</style>
 </defs>
 <g id="figure_1">
  <g id="patch_1">
   <path d="M 0 345.6 
L 460.8 345.6 
L 460.8 0 
L 0 0 
z
" style="fill: #ffffff"/>
  </g>
  <g id="axes_1">
   <g id="patch_2">
    <path d="M 57.6 307.584 
L 414.72 307.584 
L 414.72 41.472 
L 57.6 41.472 
z
" style="fill: #eaeaf2"/>
   </g>
   <g id="matplotlib.axis_1">
    <g id="xtick_1">
     <g id="line2d_1">
      <path d="M 94.123636 307.584 
L 94.123636 41.472 
" clip-path="url(#pa40c31ec38)" style="fill: none; stroke: #ffffff; stroke-linecap: round"/>
     </g>
     <g id="text_1">
      <!-- $\mathdefault{2^{11}}$ -->
      <g style="fill: #262626" transform="translate(85.488636 325.442281) scale(0.11 -0.11)">
       <defs>
        <path id="DejaVuSans-32" d="M 1228 531 
L 3431 531 
L 3431 0 
L 469 0 
L 469 531 
Q 828 903 1448 1529 
Q 2069 2156 2228 2338 
Q 2531 2678 2651 2914 
Q 2772 3150 2772 3378 
Q 2772 3750 2511 3984 
Q 2250 4219 1831 4219 
Q 1534 4219 1204 4116 
Q 875 4013 500 3803 
L 500 4441 
Q 881 4594 1212 4672 
Q 1544 4750 1819 4750 
Q 2544 4750 2975 4387 
Q 3406 4025 3406 3419 
Q 3406 3131 3298 2873 
Q 3191 2616 2906 2266 
Q 2828 2175 2409 1742 
Q 1991 1309 1228 531 
z
" transform="scale(0.015625)"/>
        <path id="DejaVuSans-31" d="M 794 531 
L 1825 531 
L 1825 4091 
L 703 3866 
L 703 4441 
L 1819 4666 
L 2450 4666 
L 2450 531 
L 3481 531 
L 3481 0 
L 794 0 
L 794 531 
z
" transform="scale(0.015625)"/>
       </defs>
       <use xlink:href="#DejaVuSans-32" transform="translate(0 0.684375)"/>
       <use xlink:href="#DejaVuSans-31" transform="translate(64.580078 38.965625) scale(0.7)"/>
       <use xlink:href="#DejaVuSans-31" transform="translate(109.116211 38.965625) scale(0.7)"/>
      </g>
     </g>
    </g>
    <g id="xtick_2">
     <g id="line2d_2">
      <path d="M 134.705455 307.584 
L 134.705455 41.472 
" clip-path="url(#pa40c31ec38)" style="fill: none; stroke: #ffffff; stroke-linecap: round"/>
     </g>
     <g id="text_2">
      <!-- $\mathdefault{2^{13}}$ -->
      <g style="fill: #262626" transform="translate(126.070455 325.442281) scale(0.11 -0.11)">
       <defs>
        <path id="DejaVuSans-33" d="M 2597 2516 
Q 3050 2419 3304 2112 
Q 3559 1806 3559 1356 
Q 3559 666 3084 287 
Q 2609 -91 1734 -91 
Q 1441 -91 1130 -33 
Q 819 25 488 141 
L 488 750 
Q 750 597 1062 519 
Q 1375 441 1716 441 
Q 2309 441 2620 675 
Q 2931 909 2931 1356 
Q 2931 1769 2642 2001 
Q 2353 2234 1838 2234 
L 1294 2234 
L 1294 2753 
L 1863 2753 
Q 2328 2753 2575 2939 
Q 2822 3125 2822 3475 
Q 2822 3834 2567 4026 
Q 2313 4219 1838 4219 
Q 1578 4219 1281 4162 
Q 984 4106 628 3988 
L 628 4550 
Q 988 4650 1302 4700 
Q 1616 4750 1894 4750 
Q 2613 4750 3031 4423 
Q 3450 4097 3450 3541 
Q 3450 3153 3228 2886 
Q 3006 2619 2597 2516 
z
" transform="scale(0.015625)"/>
       </defs>
       <use xlink:href="#DejaVuSans-32" transform="translate(0 0.765625)"/>
       <use xlink:href="#DejaVuSans-31" transform="translate(64.580078 39.046875) scale(0.7)"/>
       <use xlink:href="#DejaVuSans-33" transform="translate(109.116211 39.046875) scale(0.7)"/>
      </g>
     </g>
    </g>
    <g id="xtick_3">
     <g id="line2d_3">
      <path d="M 175.287273 307.584 
L 175.287273 41.472 
" clip-path="url(#pa40c31ec38)" style="fill: none; stroke: #ffffff; stroke-linecap: round"/>
     </g>
     <g id="text_3">
      <!-- $\mathdefault{2^{15}}$ -->
      <g style="fill: #262626" transform="translate(166.652273 325.442281) scale(0.11 -0.11)">
       <defs>
        <path id="DejaVuSans-35" d="M 691 4666 
L 3169 4666 
L 3169 4134 
L 1269 4134 
L 1269 2991 
Q 1406 3038 1543 3061 
Q 1681 3084 1819 3084 
Q 2600 3084 3056 2656 
Q 3513 2228 3513 1497 
Q 3513 744 3044 326 
Q 2575 -91 1722 -91 
Q 1428 -91 1123 -41 
Q 819 9 494 109 
L 494 744 
Q 775 591 1075 516 
Q 1375 441 1709 441 
Q 2250 441 2565 725 
Q 2881 1009 2881 1497 
Q 2881 1984 2565 2268 
Q 2250 2553 1709 2553 
Q 1456 2553 1204 2497 
Q 953 2441 691 2322 
L 691 4666 
z
" transform="scale(0.015625)"/>
       </defs>
       <use xlink:href="#DejaVuSans-32" transform="translate(0 0.684375)"/>
       <use xlink:href="#DejaVuSans-31" transform="translate(64.580078 38.965625) scale(0.7)"/>
       <use xlink:href="#DejaVuSans-35" transform="translate(109.116211 38.965625) scale(0.7)"/>
      </g>
     </g>
    </g>
    <g id="xtick_4">
     <g id="line2d_4">
      <path d="M 215.869091 307.584 
L 215.869091 41.472 
" clip-path="url(#pa40c31ec38)" style="fill: none; stroke: #ffffff; stroke-linecap: round"/>
     </g>
     <g id="text_4">
      <!-- $\mathdefault{2^{17}}$ -->
      <g style="fill: #262626" transform="translate(207.234091 325.442281) scale(0.11 -0.11)">
       <defs>
        <path id="DejaVuSans-37" d="M 525 4666 
L 3525 4666 
L 3525 4397 
L 1831 0 
L 1172 0 
L 2766 4134 
L 525 4134 
L 525 4666 
z
" transform="scale(0.015625)"/>
       </defs>
       <use xlink:href="#DejaVuSans-32" transform="translate(0 0.684375)"/>
       <use xlink:href="#DejaVuSans-31" transform="translate(64.580078 38.965625) scale(0.7)"/>
       <use xlink:href="#DejaVuSans-37" transform="translate(109.116211 38.965625) scale(0.7)"/>
      </g>
     </g>
    </g>
    <g id="xtick_5">
     <g id="line2d_5">
      <path d="M 256.450909 307.584 
L 256.450909 41.472 
" clip-path="url(#pa40c31ec38)" style="fill: none; stroke: #ffffff; stroke-linecap: round"/>
     </g>
     <g id="text_5">
      <!-- $\mathdefault{2^{19}}$ -->
      <g style="fill: #262626" transform="translate(247.815909 325.442281) scale(0.11 -0.11)">
       <defs>
        <path id="DejaVuSans-39" d="M 703 97 
L 703 672 
Q 941 559 1184 500 
Q 1428 441 1663 441 
Q 2288 441 2617 861 
Q 2947 1281 2994 2138 
Q 2813 1869 2534 1725 
Q 2256 1581 1919 1581 
Q 1219 1581 811 2004 
Q 403 2428 403 3163 
Q 403 3881 828 4315 
Q 1253 4750 1959 4750 
Q 2769 4750 3195 4129 
Q 3622 3509 3622 2328 
Q 3622 1225 3098 567 
Q 2575 -91 1691 -91 
Q 1453 -91 1209 -44 
Q 966 3 703 97 
z
M 1959 2075 
Q 2384 2075 2632 2365 
Q 2881 2656 2881 3163 
Q 2881 3666 2632 3958 
Q 2384 4250 1959 4250 
Q 1534 4250 1286 3958 
Q 1038 3666 1038 3163 
Q 1038 2656 1286 2365 
Q 1534 2075 1959 2075 
z
" transform="scale(0.015625)"/>
       </defs>
       <use xlink:href="#DejaVuSans-32" transform="translate(0 0.765625)"/>
       <use xlink:href="#DejaVuSans-31" transform="translate(64.580078 39.046875) scale(0.7)"/>
       <use xlink:href="#DejaVuSans-39" transform="translate(109.116211 39.046875) scale(0.7)"/>
      </g>
     </g>
    </g>
    <g id="xtick_6">
     <g id="line2d_6">
      <path d="M 297.032727 307.584 
L 297.032727 41.472 
" clip-path="url(#pa40c31ec38)" style="fill: none; stroke: #ffffff; stroke-linecap: round"/>
     </g>
     <g id="text_6">
      <!-- $\mathdefault{2^{21}}$ -->
      <g style="fill: #262626" transform="translate(288.397727 325.442281) scale(0.11 -0.11)">
       <use xlink:href="#DejaVuSans-32" transform="translate(0 0.765625)"/>
       <use xlink:href="#DejaVuSans-32" transform="translate(64.580078 39.046875) scale(0.7)"/>
       <use xlink:href="#DejaVuSans-31" transform="translate(109.116211 39.046875) scale(0.7)"/>
      </g>
     </g>
    </g>
    <g id="xtick_7">
     <g id="line2d_7">
      <path d="M 337.614545 307.584 
L 337.614545 41.472 
" clip-path="url(#pa40c31ec38)" style="fill: none; stroke: #ffffff; stroke-linecap: round"/>
     </g>
     <g id="text_7">
      <!-- $\mathdefault{2^{23}}$ -->
      <g style="fill: #262626" transform="translate(328.979545 325.442281) scale(0.11 -0.11)">
       <use xlink:href="#DejaVuSans-32" transform="translate(0 0.765625)"/>
       <use xlink:href="#DejaVuSans-32" transform="translate(64.580078 39.046875) scale(0.7)"/>
       <use xlink:href="#DejaVuSans-33" transform="translate(109.116211 39.046875) scale(0.7)"/>
      </g>
     </g>
    </g>
    <g id="xtick_8">
     <g id="line2d_8">
      <path d="M 378.196364 307.584 
L 378.196364 41.472 
" clip-path="url(#pa40c31ec38)" style="fill: none; stroke: #ffffff; stroke-linecap: round"/>
     </g>
     <g id="text_8">
      <!-- $\mathdefault{2^{25}}$ -->
      <g style="fill: #262626" transform="translate(369.561364 325.442281) scale(0.11 -0.11)">
       <use xlink:href="#DejaVuSans-32" transform="translate(0 0.765625)"/>
       <use xlink:href="#DejaVuSans-32" transform="translate(64.580078 39.046875) scale(0.7)"/>
       <use xlink:href="#DejaVuSans-35" transform="translate(109.116211 39.046875) scale(0.7)"/>
      </g>
     </g>
    </g>
    <g id="text_9">
     <!--  NumValues -->
     <g style="fill: #262626" transform="translate(200.514375 340.848062) scale(0.12 -0.12)">
      <defs>
       <path id="DejaVuSans-20" transform="scale(0.015625)"/>
       <path id="DejaVuSans-4e" d="M 628 4666 
L 1478 4666 
L 3547 763 
L 3547 4666 
L 4159 4666 
L 4159 0 
L 3309 0 
L 1241 3903 
L 1241 0 
L 628 0 
L 628 4666 
z
" transform="scale(0.015625)"/>
       <path id="DejaVuSans-75" d="M 544 1381 
L 544 3500 
L 1119 3500 
L 1119 1403 
Q 1119 906 1312 657 
Q 1506 409 1894 409 
Q 2359 409 2629 706 
Q 2900 1003 2900 1516 
L 2900 3500 
L 3475 3500 
L 3475 0 
L 2900 0 
L 2900 538 
Q 2691 219 2414 64 
Q 2138 -91 1772 -91 
Q 1169 -91 856 284 
Q 544 659 544 1381 
z
M 1991 3584 
L 1991 3584 
z
" transform="scale(0.015625)"/>
       <path id="DejaVuSans-6d" d="M 3328 2828 
Q 3544 3216 3844 3400 
Q 4144 3584 4550 3584 
Q 5097 3584 5394 3201 
Q 5691 2819 5691 2113 
L 5691 0 
L 5113 0 
L 5113 2094 
Q 5113 2597 4934 2840 
Q 4756 3084 4391 3084 
Q 3944 3084 3684 2787 
Q 3425 2491 3425 1978 
L 3425 0 
L 2847 0 
L 2847 2094 
Q 2847 2600 2669 2842 
Q 2491 3084 2119 3084 
Q 1678 3084 1418 2786 
Q 1159 2488 1159 1978 
L 1159 0 
L 581 0 
L 581 3500 
L 1159 3500 
L 1159 2956 
Q 1356 3278 1631 3431 
Q 1906 3584 2284 3584 
Q 2666 3584 2933 3390 
Q 3200 3197 3328 2828 
z
" transform="scale(0.015625)"/>
       <path id="DejaVuSans-56" d="M 1831 0 
L 50 4666 
L 709 4666 
L 2188 738 
L 3669 4666 
L 4325 4666 
L 2547 0 
L 1831 0 
z
" transform="scale(0.015625)"/>
       <path id="DejaVuSans-61" d="M 2194 1759 
Q 1497 1759 1228 1600 
Q 959 1441 959 1056 
Q 959 750 1161 570 
Q 1363 391 1709 391 
Q 2188 391 2477 730 
Q 2766 1069 2766 1631 
L 2766 1759 
L 2194 1759 
z
M 3341 1997 
L 3341 0 
L 2766 0 
L 2766 531 
Q 2569 213 2275 61 
Q 1981 -91 1556 -91 
Q 1019 -91 701 211 
Q 384 513 384 1019 
Q 384 1609 779 1909 
Q 1175 2209 1959 2209 
L 2766 2209 
L 2766 2266 
Q 2766 2663 2505 2880 
Q 2244 3097 1772 3097 
Q 1472 3097 1187 3025 
Q 903 2953 641 2809 
L 641 3341 
Q 956 3463 1253 3523 
Q 1550 3584 1831 3584 
Q 2591 3584 2966 3190 
Q 3341 2797 3341 1997 
z
" transform="scale(0.015625)"/>
       <path id="DejaVuSans-6c" d="M 603 4863 
L 1178 4863 
L 1178 0 
L 603 0 
L 603 4863 
z
" transform="scale(0.015625)"/>
       <path id="DejaVuSans-65" d="M 3597 1894 
L 3597 1613 
L 953 1613 
Q 991 1019 1311 708 
Q 1631 397 2203 397 
Q 2534 397 2845 478 
Q 3156 559 3463 722 
L 3463 178 
Q 3153 47 2828 -22 
Q 2503 -91 2169 -91 
Q 1331 -91 842 396 
Q 353 884 353 1716 
Q 353 2575 817 3079 
Q 1281 3584 2069 3584 
Q 2775 3584 3186 3129 
Q 3597 2675 3597 1894 
z
M 3022 2063 
Q 3016 2534 2758 2815 
Q 2500 3097 2075 3097 
Q 1594 3097 1305 2825 
Q 1016 2553 972 2059 
L 3022 2063 
z
" transform="scale(0.015625)"/>
       <path id="DejaVuSans-73" d="M 2834 3397 
L 2834 2853 
Q 2591 2978 2328 3040 
Q 2066 3103 1784 3103 
Q 1356 3103 1142 2972 
Q 928 2841 928 2578 
Q 928 2378 1081 2264 
Q 1234 2150 1697 2047 
L 1894 2003 
Q 2506 1872 2764 1633 
Q 3022 1394 3022 966 
Q 3022 478 2636 193 
Q 2250 -91 1575 -91 
Q 1294 -91 989 -36 
Q 684 19 347 128 
L 347 722 
Q 666 556 975 473 
Q 1284 391 1588 391 
Q 1994 391 2212 530 
Q 2431 669 2431 922 
Q 2431 1156 2273 1281 
Q 2116 1406 1581 1522 
L 1381 1569 
Q 847 1681 609 1914 
Q 372 2147 372 2553 
Q 372 3047 722 3315 
Q 1072 3584 1716 3584 
Q 2034 3584 2315 3537 
Q 2597 3491 2834 3397 
z
" transform="scale(0.015625)"/>
      </defs>
      <use xlink:href="#DejaVuSans-20"/>
      <use xlink:href="#DejaVuSans-4e" x="31.787109"/>
      <use xlink:href="#DejaVuSans-75" x="106.591797"/>
      <use xlink:href="#DejaVuSans-6d" x="169.970703"/>
      <use xlink:href="#DejaVuSans-56" x="267.382812"/>
      <use xlink:href="#DejaVuSans-61" x="328.041016"/>
      <use xlink:href="#DejaVuSans-6c" x="389.320312"/>
      <use xlink:href="#DejaVuSans-75" x="417.103516"/>
      <use xlink:href="#DejaVuSans-65" x="480.482422"/>
      <use xlink:href="#DejaVuSans-73" x="542.005859"/>
     </g>
    </g>
   </g>
   <g id="matplotlib.axis_2">
    <g id="ytick_1">
     <g id="line2d_9">
      <path d="M 57.6 307.584 
L 414.72 307.584 
" clip-path="url(#pa40c31ec38)" style="fill: none; stroke: #ffffff; stroke-linecap: round"/>
     </g>
     <g id="text_10">
      <!-- 0 -->
      <g style="fill: #262626" transform="translate(41.10125 311.763141) scale(0.11 -0.11)">
       <defs>
        <path id="DejaVuSans-30" d="M 2034 4250 
Q 1547 4250 1301 3770 
Q 1056 3291 1056 2328 
Q 1056 1369 1301 889 
Q 1547 409 2034 409 
Q 2525 409 2770 889 
Q 3016 1369 3016 2328 
Q 3016 3291 2770 3770 
Q 2525 4250 2034 4250 
z
M 2034 4750 
Q 2819 4750 3233 4129 
Q 3647 3509 3647 2328 
Q 3647 1150 3233 529 
Q 2819 -91 2034 -91 
Q 1250 -91 836 529 
Q 422 1150 422 2328 
Q 422 3509 836 4129 
Q 1250 4750 2034 4750 
z
" transform="scale(0.015625)"/>
       </defs>
       <use xlink:href="#DejaVuSans-30"/>
      </g>
     </g>
    </g>
    <g id="ytick_2">
     <g id="line2d_10">
      <path d="M 57.6 263.246595 
L 414.72 263.246595 
" clip-path="url(#pa40c31ec38)" style="fill: none; stroke: #ffffff; stroke-linecap: round"/>
     </g>
     <g id="text_11">
      <!-- 20 -->
      <g style="fill: #262626" transform="translate(34.1025 267.425735) scale(0.11 -0.11)">
       <use xlink:href="#DejaVuSans-32"/>
       <use xlink:href="#DejaVuSans-30" x="63.623047"/>
      </g>
     </g>
    </g>
    <g id="ytick_3">
     <g id="line2d_11">
      <path d="M 57.6 218.909189 
L 414.72 218.909189 
" clip-path="url(#pa40c31ec38)" style="fill: none; stroke: #ffffff; stroke-linecap: round"/>
     </g>
     <g id="text_12">
      <!-- 40 -->
      <g style="fill: #262626" transform="translate(34.1025 223.08833) scale(0.11 -0.11)">
       <defs>
        <path id="DejaVuSans-34" d="M 2419 4116 
L 825 1625 
L 2419 1625 
L 2419 4116 
z
M 2253 4666 
L 3047 4666 
L 3047 1625 
L 3713 1625 
L 3713 1100 
L 3047 1100 
L 3047 0 
L 2419 0 
L 2419 1100 
L 313 1100 
L 313 1709 
L 2253 4666 
z
" transform="scale(0.015625)"/>
       </defs>
       <use xlink:href="#DejaVuSans-34"/>
       <use xlink:href="#DejaVuSans-30" x="63.623047"/>
      </g>
     </g>
    </g>
    <g id="ytick_4">
     <g id="line2d_12">
      <path d="M 57.6 174.571784 
L 414.72 174.571784 
" clip-path="url(#pa40c31ec38)" style="fill: none; stroke: #ffffff; stroke-linecap: round"/>
     </g>
     <g id="text_13">
      <!-- 60 -->
      <g style="fill: #262626" transform="translate(34.1025 178.750924) scale(0.11 -0.11)">
       <defs>
        <path id="DejaVuSans-36" d="M 2113 2584 
Q 1688 2584 1439 2293 
Q 1191 2003 1191 1497 
Q 1191 994 1439 701 
Q 1688 409 2113 409 
Q 2538 409 2786 701 
Q 3034 994 3034 1497 
Q 3034 2003 2786 2293 
Q 2538 2584 2113 2584 
z
M 3366 4563 
L 3366 3988 
Q 3128 4100 2886 4159 
Q 2644 4219 2406 4219 
Q 1781 4219 1451 3797 
Q 1122 3375 1075 2522 
Q 1259 2794 1537 2939 
Q 1816 3084 2150 3084 
Q 2853 3084 3261 2657 
Q 3669 2231 3669 1497 
Q 3669 778 3244 343 
Q 2819 -91 2113 -91 
Q 1303 -91 875 529 
Q 447 1150 447 2328 
Q 447 3434 972 4092 
Q 1497 4750 2381 4750 
Q 2619 4750 2861 4703 
Q 3103 4656 3366 4563 
z
" transform="scale(0.015625)"/>
       </defs>
       <use xlink:href="#DejaVuSans-36"/>
       <use xlink:href="#DejaVuSans-30" x="63.623047"/>
      </g>
     </g>
    </g>
    <g id="ytick_5">
     <g id="line2d_13">
      <path d="M 57.6 130.234378 
L 414.72 130.234378 
" clip-path="url(#pa40c31ec38)" style="fill: none; stroke: #ffffff; stroke-linecap: round"/>
     </g>
     <g id="text_14">
      <!-- 80 -->
      <g style="fill: #262626" transform="translate(34.1025 134.413519) scale(0.11 -0.11)">
       <defs>
        <path id="DejaVuSans-38" d="M 2034 2216 
Q 1584 2216 1326 1975 
Q 1069 1734 1069 1313 
Q 1069 891 1326 650 
Q 1584 409 2034 409 
Q 2484 409 2743 651 
Q 3003 894 3003 1313 
Q 3003 1734 2745 1975 
Q 2488 2216 2034 2216 
z
M 1403 2484 
Q 997 2584 770 2862 
Q 544 3141 544 3541 
Q 544 4100 942 4425 
Q 1341 4750 2034 4750 
Q 2731 4750 3128 4425 
Q 3525 4100 3525 3541 
Q 3525 3141 3298 2862 
Q 3072 2584 2669 2484 
Q 3125 2378 3379 2068 
Q 3634 1759 3634 1313 
Q 3634 634 3220 271 
Q 2806 -91 2034 -91 
Q 1263 -91 848 271 
Q 434 634 434 1313 
Q 434 1759 690 2068 
Q 947 2378 1403 2484 
z
M 1172 3481 
Q 1172 3119 1398 2916 
Q 1625 2713 2034 2713 
Q 2441 2713 2670 2916 
Q 2900 3119 2900 3481 
Q 2900 3844 2670 4047 
Q 2441 4250 2034 4250 
Q 1625 4250 1398 4047 
Q 1172 3844 1172 3481 
z
" transform="scale(0.015625)"/>
       </defs>
       <use xlink:href="#DejaVuSans-38"/>
       <use xlink:href="#DejaVuSans-30" x="63.623047"/>
      </g>
     </g>
    </g>
    <g id="ytick_6">
     <g id="line2d_14">
      <path d="M 57.6 85.896973 
L 414.72 85.896973 
" clip-path="url(#pa40c31ec38)" style="fill: none; stroke: #ffffff; stroke-linecap: round"/>
     </g>
     <g id="text_15">
      <!-- 100 -->
      <g style="fill: #262626" transform="translate(27.10375 90.076114) scale(0.11 -0.11)">
       <use xlink:href="#DejaVuSans-31"/>
       <use xlink:href="#DejaVuSans-30" x="63.623047"/>
       <use xlink:href="#DejaVuSans-30" x="127.246094"/>
      </g>
     </g>
    </g>
    <g id="ytick_7">
     <g id="line2d_15">
      <path d="M 57.6 41.559568 
L 414.72 41.559568 
" clip-path="url(#pa40c31ec38)" style="fill: none; stroke: #ffffff; stroke-linecap: round"/>
     </g>
     <g id="text_16">
      <!-- 120 -->
      <g style="fill: #262626" transform="translate(27.10375 45.738708) scale(0.11 -0.11)">
       <use xlink:href="#DejaVuSans-31"/>
       <use xlink:href="#DejaVuSans-32" x="63.623047"/>
       <use xlink:href="#DejaVuSans-30" x="127.246094"/>
      </g>
     </g>
    </g>
    <g id="text_17">
     <!--  Cycles/Value -->
     <g style="fill: #262626" transform="translate(20.608125 214.458) rotate(-90) scale(0.12 -0.12)">
      <defs>
       <path id="DejaVuSans-43" d="M 4122 4306 
L 4122 3641 
Q 3803 3938 3442 4084 
Q 3081 4231 2675 4231 
Q 1875 4231 1450 3742 
Q 1025 3253 1025 2328 
Q 1025 1406 1450 917 
Q 1875 428 2675 428 
Q 3081 428 3442 575 
Q 3803 722 4122 1019 
L 4122 359 
Q 3791 134 3420 21 
Q 3050 -91 2638 -91 
Q 1578 -91 968 557 
Q 359 1206 359 2328 
Q 359 3453 968 4101 
Q 1578 4750 2638 4750 
Q 3056 4750 3426 4639 
Q 3797 4528 4122 4306 
z
" transform="scale(0.015625)"/>
       <path id="DejaVuSans-79" d="M 2059 -325 
Q 1816 -950 1584 -1140 
Q 1353 -1331 966 -1331 
L 506 -1331 
L 506 -850 
L 844 -850 
Q 1081 -850 1212 -737 
Q 1344 -625 1503 -206 
L 1606 56 
L 191 3500 
L 800 3500 
L 1894 763 
L 2988 3500 
L 3597 3500 
L 2059 -325 
z
" transform="scale(0.015625)"/>
       <path id="DejaVuSans-63" d="M 3122 3366 
L 3122 2828 
Q 2878 2963 2633 3030 
Q 2388 3097 2138 3097 
Q 1578 3097 1268 2742 
Q 959 2388 959 1747 
Q 959 1106 1268 751 
Q 1578 397 2138 397 
Q 2388 397 2633 464 
Q 2878 531 3122 666 
L 3122 134 
Q 2881 22 2623 -34 
Q 2366 -91 2075 -91 
Q 1284 -91 818 406 
Q 353 903 353 1747 
Q 353 2603 823 3093 
Q 1294 3584 2113 3584 
Q 2378 3584 2631 3529 
Q 2884 3475 3122 3366 
z
" transform="scale(0.015625)"/>
       <path id="DejaVuSans-2f" d="M 1625 4666 
L 2156 4666 
L 531 -594 
L 0 -594 
L 1625 4666 
z
" transform="scale(0.015625)"/>
      </defs>
      <use xlink:href="#DejaVuSans-20"/>
      <use xlink:href="#DejaVuSans-43" x="31.787109"/>
      <use xlink:href="#DejaVuSans-79" x="101.611328"/>
      <use xlink:href="#DejaVuSans-63" x="160.791016"/>
      <use xlink:href="#DejaVuSans-6c" x="215.771484"/>
      <use xlink:href="#DejaVuSans-65" x="243.554688"/>
      <use xlink:href="#DejaVuSans-73" x="305.078125"/>
      <use xlink:href="#DejaVuSans-2f" x="357.177734"/>
      <use xlink:href="#DejaVuSans-56" x="390.869141"/>
      <use xlink:href="#DejaVuSans-61" x="451.527344"/>
      <use xlink:href="#DejaVuSans-6c" x="512.806641"/>
      <use xlink:href="#DejaVuSans-75" x="540.589844"/>
      <use xlink:href="#DejaVuSans-65" x="603.96875"/>
     </g>
    </g>
   </g>
   <g id="line2d_16">
    <path d="M 73.832727 263.385404 
L 114.414545 263.416333 
L 154.996364 263.410562 
L 195.578182 263.34706 
L 236.16 263.238392 
L 276.741818 261.2183 
L 317.323636 259.321729 
L 357.905455 194.747258 
L 398.487273 134.260108 
" clip-path="url(#pa40c31ec38)" style="fill: none; stroke: #4c72b0; stroke-width: 1.5; stroke-linecap: round"/>
    <defs>
     <path id="mf14e0b4aa4" d="M 0 3 
C 0.795609 3 1.55874 2.683901 2.12132 2.12132 
C 2.683901 1.55874 3 0.795609 3 0 
C 3 -0.795609 2.683901 -1.55874 2.12132 -2.12132 
C 1.55874 -2.683901 0.795609 -3 0 -3 
C -0.795609 -3 -1.55874 -2.683901 -2.12132 -2.12132 
C -2.683901 -1.55874 -3 -0.795609 -3 0 
C -3 0.795609 -2.683901 1.55874 -2.12132 2.12132 
C -1.55874 2.683901 -0.795609 3 0 3 
z
" style="stroke: #4c72b0"/>
    </defs>
    <g clip-path="url(#pa40c31ec38)">
     <use xlink:href="#mf14e0b4aa4" x="73.832727" y="263.385404" style="fill: #4c72b0; stroke: #4c72b0"/>
     <use xlink:href="#mf14e0b4aa4" x="114.414545" y="263.416333" style="fill: #4c72b0; stroke: #4c72b0"/>
     <use xlink:href="#mf14e0b4aa4" x="154.996364" y="263.410562" style="fill: #4c72b0; stroke: #4c72b0"/>
     <use xlink:href="#mf14e0b4aa4" x="195.578182" y="263.34706" style="fill: #4c72b0; stroke: #4c72b0"/>
     <use xlink:href="#mf14e0b4aa4" x="236.16" y="263.238392" style="fill: #4c72b0; stroke: #4c72b0"/>
     <use xlink:href="#mf14e0b4aa4" x="276.741818" y="261.2183" style="fill: #4c72b0; stroke: #4c72b0"/>
     <use xlink:href="#mf14e0b4aa4" x="317.323636" y="259.321729" style="fill: #4c72b0; stroke: #4c72b0"/>
     <use xlink:href="#mf14e0b4aa4" x="357.905455" y="194.747258" style="fill: #4c72b0; stroke: #4c72b0"/>
     <use xlink:href="#mf14e0b4aa4" x="398.487273" y="134.260108" style="fill: #4c72b0; stroke: #4c72b0"/>
    </g>
   </g>
   <g id="line2d_17">
    <path d="M 73.832727 249.784874 
L 114.414545 249.821432 
L 154.996364 249.828197 
L 195.578182 249.681896 
L 236.16 247.264129 
L 276.741818 240.14402 
L 317.323636 237.54668 
L 357.905455 131.437049 
L 398.487273 60.538375 
" clip-path="url(#pa40c31ec38)" style="fill: none; stroke: #dd8452; stroke-width: 1.5; stroke-linecap: round"/>
    <defs>
     <path id="mb1edc28f90" d="M 0 3 
C 0.795609 3 1.55874 2.683901 2.12132 2.12132 
C 2.683901 1.55874 3 0.795609 3 0 
C 3 -0.795609 2.683901 -1.55874 2.12132 -2.12132 
C 1.55874 -2.683901 0.795609 -3 0 -3 
C -0.795609 -3 -1.55874 -2.683901 -2.12132 -2.12132 
C -2.683901 -1.55874 -3 -0.795609 -3 0 
C -3 0.795609 -2.683901 1.55874 -2.12132 2.12132 
C -1.55874 2.683901 -0.795609 3 0 3 
z
" style="stroke: #dd8452"/>
    </defs>
    <g clip-path="url(#pa40c31ec38)">
     <use xlink:href="#mb1edc28f90" x="73.832727" y="249.784874" style="fill: #dd8452; stroke: #dd8452"/>
     <use xlink:href="#mb1edc28f90" x="114.414545" y="249.821432" style="fill: #dd8452; stroke: #dd8452"/>
     <use xlink:href="#mb1edc28f90" x="154.996364" y="249.828197" style="fill: #dd8452; stroke: #dd8452"/>
     <use xlink:href="#mb1edc28f90" x="195.578182" y="249.681896" style="fill: #dd8452; stroke: #dd8452"/>
     <use xlink:href="#mb1edc28f90" x="236.16" y="247.264129" style="fill: #dd8452; stroke: #dd8452"/>
     <use xlink:href="#mb1edc28f90" x="276.741818" y="240.14402" style="fill: #dd8452; stroke: #dd8452"/>
     <use xlink:href="#mb1edc28f90" x="317.323636" y="237.54668" style="fill: #dd8452; stroke: #dd8452"/>
     <use xlink:href="#mb1edc28f90" x="357.905455" y="131.437049" style="fill: #dd8452; stroke: #dd8452"/>
     <use xlink:href="#mb1edc28f90" x="398.487273" y="60.538375" style="fill: #dd8452; stroke: #dd8452"/>
    </g>
   </g>
   <g id="line2d_18">
    <path d="M 73.832727 263.33815 
L 114.414545 263.295305 
L 154.996364 263.388421 
L 195.578182 263.353825 
L 236.16 262.628241 
L 276.741818 260.574535 
L 317.323636 254.663547 
L 357.905455 167.9749 
L 398.487273 128.195696 
" clip-path="url(#pa40c31ec38)" style="fill: none; stroke: #55a868; stroke-width: 1.5; stroke-linecap: round"/>
    <defs>
     <path id="ma25d0419cc" d="M 0 3 
C 0.795609 3 1.55874 2.683901 2.12132 2.12132 
C 2.683901 1.55874 3 0.795609 3 0 
C 3 -0.795609 2.683901 -1.55874 2.12132 -2.12132 
C 1.55874 -2.683901 0.795609 -3 0 -3 
C -0.795609 -3 -1.55874 -2.683901 -2.12132 -2.12132 
C -2.683901 -1.55874 -3 -0.795609 -3 0 
C -3 0.795609 -2.683901 1.55874 -2.12132 2.12132 
C -1.55874 2.683901 -0.795609 3 0 3 
z
" style="stroke: #55a868"/>
    </defs>
    <g clip-path="url(#pa40c31ec38)">
     <use xlink:href="#ma25d0419cc" x="73.832727" y="263.33815" style="fill: #55a868; stroke: #55a868"/>
     <use xlink:href="#ma25d0419cc" x="114.414545" y="263.295305" style="fill: #55a868; stroke: #55a868"/>
     <use xlink:href="#ma25d0419cc" x="154.996364" y="263.388421" style="fill: #55a868; stroke: #55a868"/>
     <use xlink:href="#ma25d0419cc" x="195.578182" y="263.353825" style="fill: #55a868; stroke: #55a868"/>
     <use xlink:href="#ma25d0419cc" x="236.16" y="262.628241" style="fill: #55a868; stroke: #55a868"/>
     <use xlink:href="#ma25d0419cc" x="276.741818" y="260.574535" style="fill: #55a868; stroke: #55a868"/>
     <use xlink:href="#ma25d0419cc" x="317.323636" y="254.663547" style="fill: #55a868; stroke: #55a868"/>
     <use xlink:href="#ma25d0419cc" x="357.905455" y="167.9749" style="fill: #55a868; stroke: #55a868"/>
     <use xlink:href="#ma25d0419cc" x="398.487273" y="128.195696" style="fill: #55a868; stroke: #55a868"/>
    </g>
   </g>
   <g id="line2d_19">
    <path d="M 73.832727 249.751974 
L 114.414545 249.807105 
L 154.996364 249.823687 
L 195.578182 249.684433 
L 236.16 244.649744 
L 276.741818 239.28334 
L 317.323636 233.884431 
L 357.905455 114.894933 
L 398.487273 53.611034 
" clip-path="url(#pa40c31ec38)" style="fill: none; stroke: #c44e52; stroke-width: 1.5; stroke-linecap: round"/>
    <defs>
     <path id="mca5907e3ea" d="M 0 3 
C 0.795609 3 1.55874 2.683901 2.12132 2.12132 
C 2.683901 1.55874 3 0.795609 3 0 
C 3 -0.795609 2.683901 -1.55874 2.12132 -2.12132 
C 1.55874 -2.683901 0.795609 -3 0 -3 
C -0.795609 -3 -1.55874 -2.683901 -2.12132 -2.12132 
C -2.683901 -1.55874 -3 -0.795609 -3 0 
C -3 0.795609 -2.683901 1.55874 -2.12132 2.12132 
C -1.55874 2.683901 -0.795609 3 0 3 
z
" style="stroke: #c44e52"/>
    </defs>
    <g clip-path="url(#pa40c31ec38)">
     <use xlink:href="#mca5907e3ea" x="73.832727" y="249.751974" style="fill: #c44e52; stroke: #c44e52"/>
     <use xlink:href="#mca5907e3ea" x="114.414545" y="249.807105" style="fill: #c44e52; stroke: #c44e52"/>
     <use xlink:href="#mca5907e3ea" x="154.996364" y="249.823687" style="fill: #c44e52; stroke: #c44e52"/>
     <use xlink:href="#mca5907e3ea" x="195.578182" y="249.684433" style="fill: #c44e52; stroke: #c44e52"/>
     <use xlink:href="#mca5907e3ea" x="236.16" y="244.649744" style="fill: #c44e52; stroke: #c44e52"/>
     <use xlink:href="#mca5907e3ea" x="276.741818" y="239.28334" style="fill: #c44e52; stroke: #c44e52"/>
     <use xlink:href="#mca5907e3ea" x="317.323636" y="233.884431" style="fill: #c44e52; stroke: #c44e52"/>
     <use xlink:href="#mca5907e3ea" x="357.905455" y="114.894933" style="fill: #c44e52; stroke: #c44e52"/>
     <use xlink:href="#mca5907e3ea" x="398.487273" y="53.611034" style="fill: #c44e52; stroke: #c44e52"/>
    </g>
   </g>
   <g id="line2d_20">
    <path d="M 73.832727 296.067189 
L 114.414545 295.866253 
L 154.996364 296.002334 
L 195.578182 295.435966 
L 236.16 293.210589 
L 276.741818 291.715975 
L 317.323636 285.977979 
L 357.905455 251.198293 
L 398.487273 233.720458 
" clip-path="url(#pa40c31ec38)" style="fill: none; stroke: #8172b3; stroke-width: 1.5; stroke-linecap: round"/>
    <defs>
     <path id="mf6cd4d4b35" d="M 0 3 
C 0.795609 3 1.55874 2.683901 2.12132 2.12132 
C 2.683901 1.55874 3 0.795609 3 0 
C 3 -0.795609 2.683901 -1.55874 2.12132 -2.12132 
C 1.55874 -2.683901 0.795609 -3 0 -3 
C -0.795609 -3 -1.55874 -2.683901 -2.12132 -2.12132 
C -2.683901 -1.55874 -3 -0.795609 -3 0 
C -3 0.795609 -2.683901 1.55874 -2.12132 2.12132 
C -1.55874 2.683901 -0.795609 3 0 3 
z
" style="stroke: #8172b3"/>
    </defs>
    <g clip-path="url(#pa40c31ec38)">
     <use xlink:href="#mf6cd4d4b35" x="73.832727" y="296.067189" style="fill: #8172b3; stroke: #8172b3"/>
     <use xlink:href="#mf6cd4d4b35" x="114.414545" y="295.866253" style="fill: #8172b3; stroke: #8172b3"/>
     <use xlink:href="#mf6cd4d4b35" x="154.996364" y="296.002334" style="fill: #8172b3; stroke: #8172b3"/>
     <use xlink:href="#mf6cd4d4b35" x="195.578182" y="295.435966" style="fill: #8172b3; stroke: #8172b3"/>
     <use xlink:href="#mf6cd4d4b35" x="236.16" y="293.210589" style="fill: #8172b3; stroke: #8172b3"/>
     <use xlink:href="#mf6cd4d4b35" x="276.741818" y="291.715975" style="fill: #8172b3; stroke: #8172b3"/>
     <use xlink:href="#mf6cd4d4b35" x="317.323636" y="285.977979" style="fill: #8172b3; stroke: #8172b3"/>
     <use xlink:href="#mf6cd4d4b35" x="357.905455" y="251.198293" style="fill: #8172b3; stroke: #8172b3"/>
     <use xlink:href="#mf6cd4d4b35" x="398.487273" y="233.720458" style="fill: #8172b3; stroke: #8172b3"/>
    </g>
   </g>
   <g id="line2d_21">
    <path d="M 73.832727 296.391716 
L 114.414545 296.374994 
L 154.996364 295.768991 
L 195.578182 294.0268 
L 236.16 290.950116 
L 276.741818 289.3166 
L 317.323636 284.620601 
L 357.905455 255.10342 
L 398.487273 242.70274 
" clip-path="url(#pa40c31ec38)" style="fill: none; stroke: #937860; stroke-width: 1.5; stroke-linecap: round"/>
    <defs>
     <path id="mcaba4b27ed" d="M 0 3 
C 0.795609 3 1.55874 2.683901 2.12132 2.12132 
C 2.683901 1.55874 3 0.795609 3 0 
C 3 -0.795609 2.683901 -1.55874 2.12132 -2.12132 
C 1.55874 -2.683901 0.795609 -3 0 -3 
C -0.795609 -3 -1.55874 -2.683901 -2.12132 -2.12132 
C -2.683901 -1.55874 -3 -0.795609 -3 0 
C -3 0.795609 -2.683901 1.55874 -2.12132 2.12132 
C -1.55874 2.683901 -0.795609 3 0 3 
z
" style="stroke: #937860"/>
    </defs>
    <g clip-path="url(#pa40c31ec38)">
     <use xlink:href="#mcaba4b27ed" x="73.832727" y="296.391716" style="fill: #937860; stroke: #937860"/>
     <use xlink:href="#mcaba4b27ed" x="114.414545" y="296.374994" style="fill: #937860; stroke: #937860"/>
     <use xlink:href="#mcaba4b27ed" x="154.996364" y="295.768991" style="fill: #937860; stroke: #937860"/>
     <use xlink:href="#mcaba4b27ed" x="195.578182" y="294.0268" style="fill: #937860; stroke: #937860"/>
     <use xlink:href="#mcaba4b27ed" x="236.16" y="290.950116" style="fill: #937860; stroke: #937860"/>
     <use xlink:href="#mcaba4b27ed" x="276.741818" y="289.3166" style="fill: #937860; stroke: #937860"/>
     <use xlink:href="#mcaba4b27ed" x="317.323636" y="284.620601" style="fill: #937860; stroke: #937860"/>
     <use xlink:href="#mcaba4b27ed" x="357.905455" y="255.10342" style="fill: #937860; stroke: #937860"/>
     <use xlink:href="#mcaba4b27ed" x="398.487273" y="242.70274" style="fill: #937860; stroke: #937860"/>
    </g>
   </g>
   <g id="patch_3">
    <path d="M 57.6 307.584 
L 57.6 41.472 
" style="fill: none; stroke: #ffffff; stroke-width: 1.25; stroke-linejoin: miter; stroke-linecap: square"/>
   </g>
   <g id="patch_4">
    <path d="M 414.72 307.584 
L 414.72 41.472 
" style="fill: none; stroke: #ffffff; stroke-width: 1.25; stroke-linejoin: miter; stroke-linecap: square"/>
   </g>
   <g id="patch_5">
    <path d="M 57.6 307.584 
L 414.72 307.584 
" style="fill: none; stroke: #ffffff; stroke-width: 1.25; stroke-linejoin: miter; stroke-linecap: square"/>
   </g>
   <g id="patch_6">
    <path d="M 57.6 41.472 
L 414.72 41.472 
" style="fill: none; stroke: #ffffff; stroke-width: 1.25; stroke-linejoin: miter; stroke-linecap: square"/>
   </g>
   <g id="legend_1">
    <g id="patch_7">
     <path d="M 65.3 148.98325 
L 308.448125 148.98325 
Q 310.648125 148.98325 310.648125 146.78325 
L 310.648125 49.172 
Q 310.648125 46.972 308.448125 46.972 
L 65.3 46.972 
Q 63.1 46.972 63.1 49.172 
L 63.1 146.78325 
Q 63.1 148.98325 65.3 148.98325 
z
" style="fill: #eaeaf2; opacity: 0.8; stroke: #cccccc; stroke-linejoin: miter"/>
    </g>
    <g id="line2d_22">
     <path d="M 67.5 55.880281 
L 78.5 55.880281 
L 89.5 55.880281 
" style="fill: none; stroke: #4c72b0; stroke-width: 1.5; stroke-linecap: round"/>
     <g>
      <use xlink:href="#mf14e0b4aa4" x="78.5" y="55.880281" style="fill: #4c72b0; stroke: #4c72b0"/>
     </g>
    </g>
    <g id="text_18">
     <!-- register_blocked_build -->
     <g style="fill: #262626" transform="translate(98.3 59.730281) scale(0.11 -0.11)">
      <defs>
       <path id="DejaVuSans-72" d="M 2631 2963 
Q 2534 3019 2420 3045 
Q 2306 3072 2169 3072 
Q 1681 3072 1420 2755 
Q 1159 2438 1159 1844 
L 1159 0 
L 581 0 
L 581 3500 
L 1159 3500 
L 1159 2956 
Q 1341 3275 1631 3429 
Q 1922 3584 2338 3584 
Q 2397 3584 2469 3576 
Q 2541 3569 2628 3553 
L 2631 2963 
z
" transform="scale(0.015625)"/>
       <path id="DejaVuSans-67" d="M 2906 1791 
Q 2906 2416 2648 2759 
Q 2391 3103 1925 3103 
Q 1463 3103 1205 2759 
Q 947 2416 947 1791 
Q 947 1169 1205 825 
Q 1463 481 1925 481 
Q 2391 481 2648 825 
Q 2906 1169 2906 1791 
z
M 3481 434 
Q 3481 -459 3084 -895 
Q 2688 -1331 1869 -1331 
Q 1566 -1331 1297 -1286 
Q 1028 -1241 775 -1147 
L 775 -588 
Q 1028 -725 1275 -790 
Q 1522 -856 1778 -856 
Q 2344 -856 2625 -561 
Q 2906 -266 2906 331 
L 2906 616 
Q 2728 306 2450 153 
Q 2172 0 1784 0 
Q 1141 0 747 490 
Q 353 981 353 1791 
Q 353 2603 747 3093 
Q 1141 3584 1784 3584 
Q 2172 3584 2450 3431 
Q 2728 3278 2906 2969 
L 2906 3500 
L 3481 3500 
L 3481 434 
z
" transform="scale(0.015625)"/>
       <path id="DejaVuSans-69" d="M 603 3500 
L 1178 3500 
L 1178 0 
L 603 0 
L 603 3500 
z
M 603 4863 
L 1178 4863 
L 1178 4134 
L 603 4134 
L 603 4863 
z
" transform="scale(0.015625)"/>
       <path id="DejaVuSans-74" d="M 1172 4494 
L 1172 3500 
L 2356 3500 
L 2356 3053 
L 1172 3053 
L 1172 1153 
Q 1172 725 1289 603 
Q 1406 481 1766 481 
L 2356 481 
L 2356 0 
L 1766 0 
Q 1100 0 847 248 
Q 594 497 594 1153 
L 594 3053 
L 172 3053 
L 172 3500 
L 594 3500 
L 594 4494 
L 1172 4494 
z
" transform="scale(0.015625)"/>
       <path id="DejaVuSans-5f" d="M 3263 -1063 
L 3263 -1509 
L -63 -1509 
L -63 -1063 
L 3263 -1063 
z
" transform="scale(0.015625)"/>
       <path id="DejaVuSans-62" d="M 3116 1747 
Q 3116 2381 2855 2742 
Q 2594 3103 2138 3103 
Q 1681 3103 1420 2742 
Q 1159 2381 1159 1747 
Q 1159 1113 1420 752 
Q 1681 391 2138 391 
Q 2594 391 2855 752 
Q 3116 1113 3116 1747 
z
M 1159 2969 
Q 1341 3281 1617 3432 
Q 1894 3584 2278 3584 
Q 2916 3584 3314 3078 
Q 3713 2572 3713 1747 
Q 3713 922 3314 415 
Q 2916 -91 2278 -91 
Q 1894 -91 1617 61 
Q 1341 213 1159 525 
L 1159 0 
L 581 0 
L 581 4863 
L 1159 4863 
L 1159 2969 
z
" transform="scale(0.015625)"/>
       <path id="DejaVuSans-6f" d="M 1959 3097 
Q 1497 3097 1228 2736 
Q 959 2375 959 1747 
Q 959 1119 1226 758 
Q 1494 397 1959 397 
Q 2419 397 2687 759 
Q 2956 1122 2956 1747 
Q 2956 2369 2687 2733 
Q 2419 3097 1959 3097 
z
M 1959 3584 
Q 2709 3584 3137 3096 
Q 3566 2609 3566 1747 
Q 3566 888 3137 398 
Q 2709 -91 1959 -91 
Q 1206 -91 779 398 
Q 353 888 353 1747 
Q 353 2609 779 3096 
Q 1206 3584 1959 3584 
z
" transform="scale(0.015625)"/>
       <path id="DejaVuSans-6b" d="M 581 4863 
L 1159 4863 
L 1159 1991 
L 2875 3500 
L 3609 3500 
L 1753 1863 
L 3688 0 
L 2938 0 
L 1159 1709 
L 1159 0 
L 581 0 
L 581 4863 
z
" transform="scale(0.015625)"/>
       <path id="DejaVuSans-64" d="M 2906 2969 
L 2906 4863 
L 3481 4863 
L 3481 0 
L 2906 0 
L 2906 525 
Q 2725 213 2448 61 
Q 2172 -91 1784 -91 
Q 1150 -91 751 415 
Q 353 922 353 1747 
Q 353 2572 751 3078 
Q 1150 3584 1784 3584 
Q 2172 3584 2448 3432 
Q 2725 3281 2906 2969 
z
M 947 1747 
Q 947 1113 1208 752 
Q 1469 391 1925 391 
Q 2381 391 2643 752 
Q 2906 1113 2906 1747 
Q 2906 2381 2643 2742 
Q 2381 3103 1925 3103 
Q 1469 3103 1208 2742 
Q 947 2381 947 1747 
z
" transform="scale(0.015625)"/>
      </defs>
      <use xlink:href="#DejaVuSans-72"/>
      <use xlink:href="#DejaVuSans-65" x="38.863281"/>
      <use xlink:href="#DejaVuSans-67" x="100.386719"/>
      <use xlink:href="#DejaVuSans-69" x="163.863281"/>
      <use xlink:href="#DejaVuSans-73" x="191.646484"/>
      <use xlink:href="#DejaVuSans-74" x="243.746094"/>
      <use xlink:href="#DejaVuSans-65" x="282.955078"/>
      <use xlink:href="#DejaVuSans-72" x="344.478516"/>
      <use xlink:href="#DejaVuSans-5f" x="385.591797"/>
      <use xlink:href="#DejaVuSans-62" x="435.591797"/>
      <use xlink:href="#DejaVuSans-6c" x="499.068359"/>
      <use xlink:href="#DejaVuSans-6f" x="526.851562"/>
      <use xlink:href="#DejaVuSans-63" x="588.033203"/>
      <use xlink:href="#DejaVuSans-6b" x="643.013672"/>
      <use xlink:href="#DejaVuSans-65" x="697.298828"/>
      <use xlink:href="#DejaVuSans-64" x="758.822266"/>
      <use xlink:href="#DejaVuSans-5f" x="822.298828"/>
      <use xlink:href="#DejaVuSans-62" x="872.298828"/>
      <use xlink:href="#DejaVuSans-75" x="935.775391"/>
      <use xlink:href="#DejaVuSans-69" x="999.154297"/>
      <use xlink:href="#DejaVuSans-6c" x="1026.9375"/>
      <use xlink:href="#DejaVuSans-64" x="1054.720703"/>
     </g>
    </g>
    <g id="line2d_23">
     <path d="M 67.5 72.332156 
L 78.5 72.332156 
L 89.5 72.332156 
" style="fill: none; stroke: #dd8452; stroke-width: 1.5; stroke-linecap: round"/>
     <g>
      <use xlink:href="#mb1edc28f90" x="78.5" y="72.332156" style="fill: #dd8452; stroke: #dd8452"/>
     </g>
    </g>
    <g id="text_19">
     <!-- register_blocked_probe -->
     <g style="fill: #262626" transform="translate(98.3 76.182156) scale(0.11 -0.11)">
      <defs>
       <path id="DejaVuSans-70" d="M 1159 525 
L 1159 -1331 
L 581 -1331 
L 581 3500 
L 1159 3500 
L 1159 2969 
Q 1341 3281 1617 3432 
Q 1894 3584 2278 3584 
Q 2916 3584 3314 3078 
Q 3713 2572 3713 1747 
Q 3713 922 3314 415 
Q 2916 -91 2278 -91 
Q 1894 -91 1617 61 
Q 1341 213 1159 525 
z
M 3116 1747 
Q 3116 2381 2855 2742 
Q 2594 3103 2138 3103 
Q 1681 3103 1420 2742 
Q 1159 2381 1159 1747 
Q 1159 1113 1420 752 
Q 1681 391 2138 391 
Q 2594 391 2855 752 
Q 3116 1113 3116 1747 
z
" transform="scale(0.015625)"/>
      </defs>
      <use xlink:href="#DejaVuSans-72"/>
      <use xlink:href="#DejaVuSans-65" x="38.863281"/>
      <use xlink:href="#DejaVuSans-67" x="100.386719"/>
      <use xlink:href="#DejaVuSans-69" x="163.863281"/>
      <use xlink:href="#DejaVuSans-73" x="191.646484"/>
      <use xlink:href="#DejaVuSans-74" x="243.746094"/>
      <use xlink:href="#DejaVuSans-65" x="282.955078"/>
      <use xlink:href="#DejaVuSans-72" x="344.478516"/>
      <use xlink:href="#DejaVuSans-5f" x="385.591797"/>
      <use xlink:href="#DejaVuSans-62" x="435.591797"/>
      <use xlink:href="#DejaVuSans-6c" x="499.068359"/>
      <use xlink:href="#DejaVuSans-6f" x="526.851562"/>
      <use xlink:href="#DejaVuSans-63" x="588.033203"/>
      <use xlink:href="#DejaVuSans-6b" x="643.013672"/>
      <use xlink:href="#DejaVuSans-65" x="697.298828"/>
      <use xlink:href="#DejaVuSans-64" x="758.822266"/>
      <use xlink:href="#DejaVuSans-5f" x="822.298828"/>
      <use xlink:href="#DejaVuSans-70" x="872.298828"/>
      <use xlink:href="#DejaVuSans-72" x="935.775391"/>
      <use xlink:href="#DejaVuSans-6f" x="974.638672"/>
      <use xlink:href="#DejaVuSans-62" x="1035.820312"/>
      <use xlink:href="#DejaVuSans-65" x="1099.296875"/>
     </g>
    </g>
    <g id="line2d_24">
     <path d="M 67.5 88.784031 
L 78.5 88.784031 
L 89.5 88.784031 
" style="fill: none; stroke: #55a868; stroke-width: 1.5; stroke-linecap: round"/>
     <g>
      <use xlink:href="#ma25d0419cc" x="78.5" y="88.784031" style="fill: #55a868; stroke: #55a868"/>
     </g>
    </g>
    <g id="text_20">
     <!-- register_blocked_compensated_build -->
     <g style="fill: #262626" transform="translate(98.3 92.634031) scale(0.11 -0.11)">
      <defs>
       <path id="DejaVuSans-6e" d="M 3513 2113 
L 3513 0 
L 2938 0 
L 2938 2094 
Q 2938 2591 2744 2837 
Q 2550 3084 2163 3084 
Q 1697 3084 1428 2787 
Q 1159 2491 1159 1978 
L 1159 0 
L 581 0 
L 581 3500 
L 1159 3500 
L 1159 2956 
Q 1366 3272 1645 3428 
Q 1925 3584 2291 3584 
Q 2894 3584 3203 3211 
Q 3513 2838 3513 2113 
z
" transform="scale(0.015625)"/>
      </defs>
      <use xlink:href="#DejaVuSans-72"/>
      <use xlink:href="#DejaVuSans-65" x="38.863281"/>
      <use xlink:href="#DejaVuSans-67" x="100.386719"/>
      <use xlink:href="#DejaVuSans-69" x="163.863281"/>
      <use xlink:href="#DejaVuSans-73" x="191.646484"/>
      <use xlink:href="#DejaVuSans-74" x="243.746094"/>
      <use xlink:href="#DejaVuSans-65" x="282.955078"/>
      <use xlink:href="#DejaVuSans-72" x="344.478516"/>
      <use xlink:href="#DejaVuSans-5f" x="385.591797"/>
      <use xlink:href="#DejaVuSans-62" x="435.591797"/>
      <use xlink:href="#DejaVuSans-6c" x="499.068359"/>
      <use xlink:href="#DejaVuSans-6f" x="526.851562"/>
      <use xlink:href="#DejaVuSans-63" x="588.033203"/>
      <use xlink:href="#DejaVuSans-6b" x="643.013672"/>
      <use xlink:href="#DejaVuSans-65" x="697.298828"/>
      <use xlink:href="#DejaVuSans-64" x="758.822266"/>
      <use xlink:href="#DejaVuSans-5f" x="822.298828"/>
      <use xlink:href="#DejaVuSans-63" x="872.298828"/>
      <use xlink:href="#DejaVuSans-6f" x="927.279297"/>
      <use xlink:href="#DejaVuSans-6d" x="988.460938"/>
      <use xlink:href="#DejaVuSans-70" x="1085.873047"/>
      <use xlink:href="#DejaVuSans-65" x="1149.349609"/>
      <use xlink:href="#DejaVuSans-6e" x="1210.873047"/>
      <use xlink:href="#DejaVuSans-73" x="1274.251953"/>
      <use xlink:href="#DejaVuSans-61" x="1326.351562"/>
      <use xlink:href="#DejaVuSans-74" x="1387.630859"/>
      <use xlink:href="#DejaVuSans-65" x="1426.839844"/>
      <use xlink:href="#DejaVuSans-64" x="1488.363281"/>
      <use xlink:href="#DejaVuSans-5f" x="1551.839844"/>
      <use xlink:href="#DejaVuSans-62" x="1601.839844"/>
      <use xlink:href="#DejaVuSans-75" x="1665.316406"/>
      <use xlink:href="#DejaVuSans-69" x="1728.695312"/>
      <use xlink:href="#DejaVuSans-6c" x="1756.478516"/>
      <use xlink:href="#DejaVuSans-64" x="1784.261719"/>
     </g>
    </g>
    <g id="line2d_25">
     <path d="M 67.5 105.235906 
L 78.5 105.235906 
L 89.5 105.235906 
" style="fill: none; stroke: #c44e52; stroke-width: 1.5; stroke-linecap: round"/>
     <g>
      <use xlink:href="#mca5907e3ea" x="78.5" y="105.235906" style="fill: #c44e52; stroke: #c44e52"/>
     </g>
    </g>
    <g id="text_21">
     <!-- register_blocked_compensated_probe -->
     <g style="fill: #262626" transform="translate(98.3 109.085906) scale(0.11 -0.11)">
      <use xlink:href="#DejaVuSans-72"/>
      <use xlink:href="#DejaVuSans-65" x="38.863281"/>
      <use xlink:href="#DejaVuSans-67" x="100.386719"/>
      <use xlink:href="#DejaVuSans-69" x="163.863281"/>
      <use xlink:href="#DejaVuSans-73" x="191.646484"/>
      <use xlink:href="#DejaVuSans-74" x="243.746094"/>
      <use xlink:href="#DejaVuSans-65" x="282.955078"/>
      <use xlink:href="#DejaVuSans-72" x="344.478516"/>
      <use xlink:href="#DejaVuSans-5f" x="385.591797"/>
      <use xlink:href="#DejaVuSans-62" x="435.591797"/>
      <use xlink:href="#DejaVuSans-6c" x="499.068359"/>
      <use xlink:href="#DejaVuSans-6f" x="526.851562"/>
      <use xlink:href="#DejaVuSans-63" x="588.033203"/>
      <use xlink:href="#DejaVuSans-6b" x="643.013672"/>
      <use xlink:href="#DejaVuSans-65" x="697.298828"/>
      <use xlink:href="#DejaVuSans-64" x="758.822266"/>
      <use xlink:href="#DejaVuSans-5f" x="822.298828"/>
      <use xlink:href="#DejaVuSans-63" x="872.298828"/>
      <use xlink:href="#DejaVuSans-6f" x="927.279297"/>
      <use xlink:href="#DejaVuSans-6d" x="988.460938"/>
      <use xlink:href="#DejaVuSans-70" x="1085.873047"/>
      <use xlink:href="#DejaVuSans-65" x="1149.349609"/>
      <use xlink:href="#DejaVuSans-6e" x="1210.873047"/>
      <use xlink:href="#DejaVuSans-73" x="1274.251953"/>
      <use xlink:href="#DejaVuSans-61" x="1326.351562"/>
      <use xlink:href="#DejaVuSans-74" x="1387.630859"/>
      <use xlink:href="#DejaVuSans-65" x="1426.839844"/>
      <use xlink:href="#DejaVuSans-64" x="1488.363281"/>
      <use xlink:href="#DejaVuSans-5f" x="1551.839844"/>
      <use xlink:href="#DejaVuSans-70" x="1601.839844"/>
      <use xlink:href="#DejaVuSans-72" x="1665.316406"/>
      <use xlink:href="#DejaVuSans-6f" x="1704.179688"/>
      <use xlink:href="#DejaVuSans-62" x="1765.361328"/>
      <use xlink:href="#DejaVuSans-65" x="1828.837891"/>
     </g>
    </g>
    <g id="line2d_26">
     <path d="M 67.5 121.687781 
L 78.5 121.687781 
L 89.5 121.687781 
" style="fill: none; stroke: #8172b3; stroke-width: 1.5; stroke-linecap: round"/>
     <g>
      <use xlink:href="#mf6cd4d4b35" x="78.5" y="121.687781" style="fill: #8172b3; stroke: #8172b3"/>
     </g>
    </g>
    <g id="text_22">
     <!-- register_blocked_simd_build -->
     <g style="fill: #262626" transform="translate(98.3 125.537781) scale(0.11 -0.11)">
      <use xlink:href="#DejaVuSans-72"/>
      <use xlink:href="#DejaVuSans-65" x="38.863281"/>
      <use xlink:href="#DejaVuSans-67" x="100.386719"/>
      <use xlink:href="#DejaVuSans-69" x="163.863281"/>
      <use xlink:href="#DejaVuSans-73" x="191.646484"/>
      <use xlink:href="#DejaVuSans-74" x="243.746094"/>
      <use xlink:href="#DejaVuSans-65" x="282.955078"/>
      <use xlink:href="#DejaVuSans-72" x="344.478516"/>
      <use xlink:href="#DejaVuSans-5f" x="385.591797"/>
      <use xlink:href="#DejaVuSans-62" x="435.591797"/>
      <use xlink:href="#DejaVuSans-6c" x="499.068359"/>
      <use xlink:href="#DejaVuSans-6f" x="526.851562"/>
      <use xlink:href="#DejaVuSans-63" x="588.033203"/>
      <use xlink:href="#DejaVuSans-6b" x="643.013672"/>
      <use xlink:href="#DejaVuSans-65" x="697.298828"/>
      <use xlink:href="#DejaVuSans-64" x="758.822266"/>
      <use xlink:href="#DejaVuSans-5f" x="822.298828"/>
      <use xlink:href="#DejaVuSans-73" x="872.298828"/>
      <use xlink:href="#DejaVuSans-69" x="924.398438"/>
      <use xlink:href="#DejaVuSans-6d" x="952.181641"/>
      <use xlink:href="#DejaVuSans-64" x="1049.59375"/>
      <use xlink:href="#DejaVuSans-5f" x="1113.070312"/>
      <use xlink:href="#DejaVuSans-62" x="1163.070312"/>
      <use xlink:href="#DejaVuSans-75" x="1226.546875"/>
      <use xlink:href="#DejaVuSans-69" x="1289.925781"/>
      <use xlink:href="#DejaVuSans-6c" x="1317.708984"/>
      <use xlink:href="#DejaVuSans-64" x="1345.492188"/>
     </g>
    </g>
    <g id="line2d_27">
     <path d="M 67.5 138.139656 
L 78.5 138.139656 
L 89.5 138.139656 
" style="fill: none; stroke: #937860; stroke-width: 1.5; stroke-linecap: round"/>
     <g>
      <use xlink:href="#mcaba4b27ed" x="78.5" y="138.139656" style="fill: #937860; stroke: #937860"/>
     </g>
    </g>
    <g id="text_23">
     <!-- register_blocked_simd_probe -->
     <g style="fill: #262626" transform="translate(98.3 141.989656) scale(0.11 -0.11)">
      <use xlink:href="#DejaVuSans-72"/>
      <use xlink:href="#DejaVuSans-65" x="38.863281"/>
      <use xlink:href="#DejaVuSans-67" x="100.386719"/>
      <use xlink:href="#DejaVuSans-69" x="163.863281"/>
      <use xlink:href="#DejaVuSans-73" x="191.646484"/>
      <use xlink:href="#DejaVuSans-74" x="243.746094"/>
      <use xlink:href="#DejaVuSans-65" x="282.955078"/>
      <use xlink:href="#DejaVuSans-72" x="344.478516"/>
      <use xlink:href="#DejaVuSans-5f" x="385.591797"/>
      <use xlink:href="#DejaVuSans-62" x="435.591797"/>
      <use xlink:href="#DejaVuSans-6c" x="499.068359"/>
      <use xlink:href="#DejaVuSans-6f" x="526.851562"/>
      <use xlink:href="#DejaVuSans-63" x="588.033203"/>
      <use xlink:href="#DejaVuSans-6b" x="643.013672"/>
      <use xlink:href="#DejaVuSans-65" x="697.298828"/>
      <use xlink:href="#DejaVuSans-64" x="758.822266"/>
      <use xlink:href="#DejaVuSans-5f" x="822.298828"/>
      <use xlink:href="#DejaVuSans-73" x="872.298828"/>
      <use xlink:href="#DejaVuSans-69" x="924.398438"/>
      <use xlink:href="#DejaVuSans-6d" x="952.181641"/>
      <use xlink:href="#DejaVuSans-64" x="1049.59375"/>
      <use xlink:href="#DejaVuSans-5f" x="1113.070312"/>
      <use xlink:href="#DejaVuSans-70" x="1163.070312"/>
      <use xlink:href="#DejaVuSans-72" x="1226.546875"/>
      <use xlink:href="#DejaVuSans-6f" x="1265.410156"/>
      <use xlink:href="#DejaVuSans-62" x="1326.591797"/>
      <use xlink:href="#DejaVuSans-65" x="1390.068359"/>
     </g>
    </g>
   </g>
  </g>
 </g>
 <defs>
  <clipPath id="pa40c31ec38">
   <rect x="57.6" y="41.472" width="357.12" height="266.112"/>
  </clipPath>
 </defs>
</svg>
