<?xml version="1.0" encoding="utf-8" standalone="no"?>
<!DOCTYPE svg PUBLIC "-//W3C//DTD SVG 1.1//EN"
  "http://www.w3.org/Graphics/SVG/1.1/DTD/svg11.dtd">
<svg xmlns:xlink="http://www.w3.org/1999/xlink" width="460.08pt" height="345.6pt" viewBox="0 0 460.08 345.6" xmlns="http://www.w3.org/2000/svg" version="1.1">
 <metadata>
  <rdf:RDF xmlns:dc="http://purl.org/dc/elements/1.1/" xmlns:cc="http://creativecommons.org/ns#" xmlns:rdf="http://www.w3.org/1999/02/22-rdf-syntax-ns#">
   <cc:Work>
    <dc:type rdf:resource="http://purl.org/dc/dcmitype/StillImage"/>
    <dc:date>2023-11-20T23:21:13.541112</dc:date>
    <dc:format>image/svg+xml</dc:format>
    <dc:creator>
     <cc:Agent>
      <dc:title>Matplotlib v3.8.2, https://matplotlib.org/</dc:title>
     </cc:Agent>
    </dc:creator>
   </cc:Work>
  </rdf:RDF>
 </metadata>
 <defs>
  <style type="text/css">*{stroke-linejoin: round; stroke-linecap: butt}</style>
 </defs>
 <g id="figure_1">
  <g id="patch_1">
   <path d="M 0 345.6 
L 460.08 345.6 
L 460.08 0 
L 0 0 
z
" style="fill: #ffffff"/>
  </g>
  <g id="axes_1">
   <g id="patch_2">
    <path d="M 57.51 162.432 
L 414.072 162.432 
L 414.072 41.472 
L 57.51 41.472 
z
" style="fill: #eaeaf2"/>
   </g>
   <g id="matplotlib.axis_1">
    <g id="xtick_1">
     <g id="line2d_1">
      <path d="M 71.154935 162.432 
L 71.154935 41.472 
" clip-path="url(#p177a8987cd)" style="fill: none; stroke: #ffffff; stroke-linecap: round"/>
     </g>
     <g id="text_1">
      <!-- 0 -->
      <g style="fill: #262626" transform="translate(67.65556 180.290281) scale(0.11 -0.11)">
       <defs>
        <path id="DejaVuSans-30" d="M 2034 4250 
Q 1547 4250 1301 3770 
Q 1056 3291 1056 2328 
Q 1056 1369 1301 889 
Q 1547 409 2034 409 
Q 2525 409 2770 889 
Q 3016 1369 3016 2328 
Q 3016 3291 2770 3770 
Q 2525 4250 2034 4250 
z
M 2034 4750 
Q 2819 4750 3233 4129 
Q 3647 3509 3647 2328 
Q 3647 1150 3233 529 
Q 2819 -91 2034 -91 
Q 1250 -91 836 529 
Q 422 1150 422 2328 
Q 422 3509 836 4129 
Q 1250 4750 2034 4750 
z
" transform="scale(0.015625)"/>
       </defs>
       <use xlink:href="#DejaVuSans-30"/>
      </g>
     </g>
    </g>
    <g id="xtick_2">
     <g id="line2d_2">
      <path d="M 135.21566 162.432 
L 135.21566 41.472 
" clip-path="url(#p177a8987cd)" style="fill: none; stroke: #ffffff; stroke-linecap: round"/>
     </g>
     <g id="text_2">
      <!-- 50 -->
      <g style="fill: #262626" transform="translate(128.21691 180.290281) scale(0.11 -0.11)">
       <defs>
        <path id="DejaVuSans-35" d="M 691 4666 
L 3169 4666 
L 3169 4134 
L 1269 4134 
L 1269 2991 
Q 1406 3038 1543 3061 
Q 1681 3084 1819 3084 
Q 2600 3084 3056 2656 
Q 3513 2228 3513 1497 
Q 3513 744 3044 326 
Q 2575 -91 1722 -91 
Q 1428 -91 1123 -41 
Q 819 9 494 109 
L 494 744 
Q 775 591 1075 516 
Q 1375 441 1709 441 
Q 2250 441 2565 725 
Q 2881 1009 2881 1497 
Q 2881 1984 2565 2268 
Q 2250 2553 1709 2553 
Q 1456 2553 1204 2497 
Q 953 2441 691 2322 
L 691 4666 
z
" transform="scale(0.015625)"/>
       </defs>
       <use xlink:href="#DejaVuSans-35"/>
       <use xlink:href="#DejaVuSans-30" x="63.623047"/>
      </g>
     </g>
    </g>
    <g id="xtick_3">
     <g id="line2d_3">
      <path d="M 199.276386 162.432 
L 199.276386 41.472 
" clip-path="url(#p177a8987cd)" style="fill: none; stroke: #ffffff; stroke-linecap: round"/>
     </g>
     <g id="text_3">
      <!-- 100 -->
      <g style="fill: #262626" transform="translate(188.778261 180.290281) scale(0.11 -0.11)">
       <defs>
        <path id="DejaVuSans-31" d="M 794 531 
L 1825 531 
L 1825 4091 
L 703 3866 
L 703 4441 
L 1819 4666 
L 2450 4666 
L 2450 531 
L 3481 531 
L 3481 0 
L 794 0 
L 794 531 
z
" transform="scale(0.015625)"/>
       </defs>
       <use xlink:href="#DejaVuSans-31"/>
       <use xlink:href="#DejaVuSans-30" x="63.623047"/>
       <use xlink:href="#DejaVuSans-30" x="127.246094"/>
      </g>
     </g>
    </g>
    <g id="xtick_4">
     <g id="line2d_4">
      <path d="M 263.337112 162.432 
L 263.337112 41.472 
" clip-path="url(#p177a8987cd)" style="fill: none; stroke: #ffffff; stroke-linecap: round"/>
     </g>
     <g id="text_4">
      <!-- 150 -->
      <g style="fill: #262626" transform="translate(252.838987 180.290281) scale(0.11 -0.11)">
       <use xlink:href="#DejaVuSans-31"/>
       <use xlink:href="#DejaVuSans-35" x="63.623047"/>
       <use xlink:href="#DejaVuSans-30" x="127.246094"/>
      </g>
     </g>
    </g>
    <g id="xtick_5">
     <g id="line2d_5">
      <path d="M 327.397838 162.432 
L 327.397838 41.472 
" clip-path="url(#p177a8987cd)" style="fill: none; stroke: #ffffff; stroke-linecap: round"/>
     </g>
     <g id="text_5">
      <!-- 200 -->
      <g style="fill: #262626" transform="translate(316.899713 180.290281) scale(0.11 -0.11)">
       <defs>
        <path id="DejaVuSans-32" d="M 1228 531 
L 3431 531 
L 3431 0 
L 469 0 
L 469 531 
Q 828 903 1448 1529 
Q 2069 2156 2228 2338 
Q 2531 2678 2651 2914 
Q 2772 3150 2772 3378 
Q 2772 3750 2511 3984 
Q 2250 4219 1831 4219 
Q 1534 4219 1204 4116 
Q 875 4013 500 3803 
L 500 4441 
Q 881 4594 1212 4672 
Q 1544 4750 1819 4750 
Q 2544 4750 2975 4387 
Q 3406 4025 3406 3419 
Q 3406 3131 3298 2873 
Q 3191 2616 2906 2266 
Q 2828 2175 2409 1742 
Q 1991 1309 1228 531 
z
" transform="scale(0.015625)"/>
       </defs>
       <use xlink:href="#DejaVuSans-32"/>
       <use xlink:href="#DejaVuSans-30" x="63.623047"/>
       <use xlink:href="#DejaVuSans-30" x="127.246094"/>
      </g>
     </g>
    </g>
    <g id="xtick_6">
     <g id="line2d_6">
      <path d="M 391.458564 162.432 
L 391.458564 41.472 
" clip-path="url(#p177a8987cd)" style="fill: none; stroke: #ffffff; stroke-linecap: round"/>
     </g>
     <g id="text_6">
      <!-- 250 -->
      <g style="fill: #262626" transform="translate(380.960439 180.290281) scale(0.11 -0.11)">
       <use xlink:href="#DejaVuSans-32"/>
       <use xlink:href="#DejaVuSans-35" x="63.623047"/>
       <use xlink:href="#DejaVuSans-30" x="127.246094"/>
      </g>
     </g>
    </g>
    <g id="text_7">
     <!-- Distinct Values -->
     <g style="fill: #262626" transform="translate(191.395688 195.696062) scale(0.12 -0.12)">
      <defs>
       <path id="DejaVuSans-44" d="M 1259 4147 
L 1259 519 
L 2022 519 
Q 2988 519 3436 956 
Q 3884 1394 3884 2338 
Q 3884 3275 3436 3711 
Q 2988 4147 2022 4147 
L 1259 4147 
z
M 628 4666 
L 1925 4666 
Q 3281 4666 3915 4102 
Q 4550 3538 4550 2338 
Q 4550 1131 3912 565 
Q 3275 0 1925 0 
L 628 0 
L 628 4666 
z
" transform="scale(0.015625)"/>
       <path id="DejaVuSans-69" d="M 603 3500 
L 1178 3500 
L 1178 0 
L 603 0 
L 603 3500 
z
M 603 4863 
L 1178 4863 
L 1178 4134 
L 603 4134 
L 603 4863 
z
" transform="scale(0.015625)"/>
       <path id="DejaVuSans-73" d="M 2834 3397 
L 2834 2853 
Q 2591 2978 2328 3040 
Q 2066 3103 1784 3103 
Q 1356 3103 1142 2972 
Q 928 2841 928 2578 
Q 928 2378 1081 2264 
Q 1234 2150 1697 2047 
L 1894 2003 
Q 2506 1872 2764 1633 
Q 3022 1394 3022 966 
Q 3022 478 2636 193 
Q 2250 -91 1575 -91 
Q 1294 -91 989 -36 
Q 684 19 347 128 
L 347 722 
Q 666 556 975 473 
Q 1284 391 1588 391 
Q 1994 391 2212 530 
Q 2431 669 2431 922 
Q 2431 1156 2273 1281 
Q 2116 1406 1581 1522 
L 1381 1569 
Q 847 1681 609 1914 
Q 372 2147 372 2553 
Q 372 3047 722 3315 
Q 1072 3584 1716 3584 
Q 2034 3584 2315 3537 
Q 2597 3491 2834 3397 
z
" transform="scale(0.015625)"/>
       <path id="DejaVuSans-74" d="M 1172 4494 
L 1172 3500 
L 2356 3500 
L 2356 3053 
L 1172 3053 
L 1172 1153 
Q 1172 725 1289 603 
Q 1406 481 1766 481 
L 2356 481 
L 2356 0 
L 1766 0 
Q 1100 0 847 248 
Q 594 497 594 1153 
L 594 3053 
L 172 3053 
L 172 3500 
L 594 3500 
L 594 4494 
L 1172 4494 
z
" transform="scale(0.015625)"/>
       <path id="DejaVuSans-6e" d="M 3513 2113 
L 3513 0 
L 2938 0 
L 2938 2094 
Q 2938 2591 2744 2837 
Q 2550 3084 2163 3084 
Q 1697 3084 1428 2787 
Q 1159 2491 1159 1978 
L 1159 0 
L 581 0 
L 581 3500 
L 1159 3500 
L 1159 2956 
Q 1366 3272 1645 3428 
Q 1925 3584 2291 3584 
Q 2894 3584 3203 3211 
Q 3513 2838 3513 2113 
z
" transform="scale(0.015625)"/>
       <path id="DejaVuSans-63" d="M 3122 3366 
L 3122 2828 
Q 2878 2963 2633 3030 
Q 2388 3097 2138 3097 
Q 1578 3097 1268 2742 
Q 959 2388 959 1747 
Q 959 1106 1268 751 
Q 1578 397 2138 397 
Q 2388 397 2633 464 
Q 2878 531 3122 666 
L 3122 134 
Q 2881 22 2623 -34 
Q 2366 -91 2075 -91 
Q 1284 -91 818 406 
Q 353 903 353 1747 
Q 353 2603 823 3093 
Q 1294 3584 2113 3584 
Q 2378 3584 2631 3529 
Q 2884 3475 3122 3366 
z
" transform="scale(0.015625)"/>
       <path id="DejaVuSans-20" transform="scale(0.015625)"/>
       <path id="DejaVuSans-56" d="M 1831 0 
L 50 4666 
L 709 4666 
L 2188 738 
L 3669 4666 
L 4325 4666 
L 2547 0 
L 1831 0 
z
" transform="scale(0.015625)"/>
       <path id="DejaVuSans-61" d="M 2194 1759 
Q 1497 1759 1228 1600 
Q 959 1441 959 1056 
Q 959 750 1161 570 
Q 1363 391 1709 391 
Q 2188 391 2477 730 
Q 2766 1069 2766 1631 
L 2766 1759 
L 2194 1759 
z
M 3341 1997 
L 3341 0 
L 2766 0 
L 2766 531 
Q 2569 213 2275 61 
Q 1981 -91 1556 -91 
Q 1019 -91 701 211 
Q 384 513 384 1019 
Q 384 1609 779 1909 
Q 1175 2209 1959 2209 
L 2766 2209 
L 2766 2266 
Q 2766 2663 2505 2880 
Q 2244 3097 1772 3097 
Q 1472 3097 1187 3025 
Q 903 2953 641 2809 
L 641 3341 
Q 956 3463 1253 3523 
Q 1550 3584 1831 3584 
Q 2591 3584 2966 3190 
Q 3341 2797 3341 1997 
z
" transform="scale(0.015625)"/>
       <path id="DejaVuSans-6c" d="M 603 4863 
L 1178 4863 
L 1178 0 
L 603 0 
L 603 4863 
z
" transform="scale(0.015625)"/>
       <path id="DejaVuSans-75" d="M 544 1381 
L 544 3500 
L 1119 3500 
L 1119 1403 
Q 1119 906 1312 657 
Q 1506 409 1894 409 
Q 2359 409 2629 706 
Q 2900 1003 2900 1516 
L 2900 3500 
L 3475 3500 
L 3475 0 
L 2900 0 
L 2900 538 
Q 2691 219 2414 64 
Q 2138 -91 1772 -91 
Q 1169 -91 856 284 
Q 544 659 544 1381 
z
M 1991 3584 
L 1991 3584 
z
" transform="scale(0.015625)"/>
       <path id="DejaVuSans-65" d="M 3597 1894 
L 3597 1613 
L 953 1613 
Q 991 1019 1311 708 
Q 1631 397 2203 397 
Q 2534 397 2845 478 
Q 3156 559 3463 722 
L 3463 178 
Q 3153 47 2828 -22 
Q 2503 -91 2169 -91 
Q 1331 -91 842 396 
Q 353 884 353 1716 
Q 353 2575 817 3079 
Q 1281 3584 2069 3584 
Q 2775 3584 3186 3129 
Q 3597 2675 3597 1894 
z
M 3022 2063 
Q 3016 2534 2758 2815 
Q 2500 3097 2075 3097 
Q 1594 3097 1305 2825 
Q 1016 2553 972 2059 
L 3022 2063 
z
" transform="scale(0.015625)"/>
      </defs>
      <use xlink:href="#DejaVuSans-44"/>
      <use xlink:href="#DejaVuSans-69" x="77.001953"/>
      <use xlink:href="#DejaVuSans-73" x="104.785156"/>
      <use xlink:href="#DejaVuSans-74" x="156.884766"/>
      <use xlink:href="#DejaVuSans-69" x="196.09375"/>
      <use xlink:href="#DejaVuSans-6e" x="223.876953"/>
      <use xlink:href="#DejaVuSans-63" x="287.255859"/>
      <use xlink:href="#DejaVuSans-74" x="342.236328"/>
      <use xlink:href="#DejaVuSans-20" x="381.445312"/>
      <use xlink:href="#DejaVuSans-56" x="413.232422"/>
      <use xlink:href="#DejaVuSans-61" x="473.890625"/>
      <use xlink:href="#DejaVuSans-6c" x="535.169922"/>
      <use xlink:href="#DejaVuSans-75" x="562.953125"/>
      <use xlink:href="#DejaVuSans-65" x="626.332031"/>
      <use xlink:href="#DejaVuSans-73" x="687.855469"/>
     </g>
    </g>
   </g>
   <g id="matplotlib.axis_2">
    <g id="ytick_1">
     <g id="line2d_7">
      <path d="M 57.51 141.224727 
L 414.072 141.224727 
" clip-path="url(#p177a8987cd)" style="fill: none; stroke: #ffffff; stroke-linecap: round"/>
     </g>
     <g id="text_8">
      <!-- 2 -->
      <g style="fill: #262626" transform="translate(41.01125 145.403868) scale(0.11 -0.11)">
       <use xlink:href="#DejaVuSans-32"/>
      </g>
     </g>
    </g>
    <g id="ytick_2">
     <g id="line2d_8">
      <path d="M 57.51 109.806545 
L 414.072 109.806545 
" clip-path="url(#p177a8987cd)" style="fill: none; stroke: #ffffff; stroke-linecap: round"/>
     </g>
     <g id="text_9">
      <!-- 4 -->
      <g style="fill: #262626" transform="translate(41.01125 113.985686) scale(0.11 -0.11)">
       <defs>
        <path id="DejaVuSans-34" d="M 2419 4116 
L 825 1625 
L 2419 1625 
L 2419 4116 
z
M 2253 4666 
L 3047 4666 
L 3047 1625 
L 3713 1625 
L 3713 1100 
L 3047 1100 
L 3047 0 
L 2419 0 
L 2419 1100 
L 313 1100 
L 313 1709 
L 2253 4666 
z
" transform="scale(0.015625)"/>
       </defs>
       <use xlink:href="#DejaVuSans-34"/>
      </g>
     </g>
    </g>
    <g id="ytick_3">
     <g id="line2d_9">
      <path d="M 57.51 78.388364 
L 414.072 78.388364 
" clip-path="url(#p177a8987cd)" style="fill: none; stroke: #ffffff; stroke-linecap: round"/>
     </g>
     <g id="text_10">
      <!-- 6 -->
      <g style="fill: #262626" transform="translate(41.01125 82.567504) scale(0.11 -0.11)">
       <defs>
        <path id="DejaVuSans-36" d="M 2113 2584 
Q 1688 2584 1439 2293 
Q 1191 2003 1191 1497 
Q 1191 994 1439 701 
Q 1688 409 2113 409 
Q 2538 409 2786 701 
Q 3034 994 3034 1497 
Q 3034 2003 2786 2293 
Q 2538 2584 2113 2584 
z
M 3366 4563 
L 3366 3988 
Q 3128 4100 2886 4159 
Q 2644 4219 2406 4219 
Q 1781 4219 1451 3797 
Q 1122 3375 1075 2522 
Q 1259 2794 1537 2939 
Q 1816 3084 2150 3084 
Q 2853 3084 3261 2657 
Q 3669 2231 3669 1497 
Q 3669 778 3244 343 
Q 2819 -91 2113 -91 
Q 1303 -91 875 529 
Q 447 1150 447 2328 
Q 447 3434 972 4092 
Q 1497 4750 2381 4750 
Q 2619 4750 2861 4703 
Q 3103 4656 3366 4563 
z
" transform="scale(0.015625)"/>
       </defs>
       <use xlink:href="#DejaVuSans-36"/>
      </g>
     </g>
    </g>
    <g id="ytick_4">
     <g id="line2d_10">
      <path d="M 57.51 46.970182 
L 414.072 46.970182 
" clip-path="url(#p177a8987cd)" style="fill: none; stroke: #ffffff; stroke-linecap: round"/>
     </g>
     <g id="text_11">
      <!-- 8 -->
      <g style="fill: #262626" transform="translate(41.01125 51.149322) scale(0.11 -0.11)">
       <defs>
        <path id="DejaVuSans-38" d="M 2034 2216 
Q 1584 2216 1326 1975 
Q 1069 1734 1069 1313 
Q 1069 891 1326 650 
Q 1584 409 2034 409 
Q 2484 409 2743 651 
Q 3003 894 3003 1313 
Q 3003 1734 2745 1975 
Q 2488 2216 2034 2216 
z
M 1403 2484 
Q 997 2584 770 2862 
Q 544 3141 544 3541 
Q 544 4100 942 4425 
Q 1341 4750 2034 4750 
Q 2731 4750 3128 4425 
Q 3525 4100 3525 3541 
Q 3525 3141 3298 2862 
Q 3072 2584 2669 2484 
Q 3125 2378 3379 2068 
Q 3634 1759 3634 1313 
Q 3634 634 3220 271 
Q 2806 -91 2034 -91 
Q 1263 -91 848 271 
Q 434 634 434 1313 
Q 434 1759 690 2068 
Q 947 2378 1403 2484 
z
M 1172 3481 
Q 1172 3119 1398 2916 
Q 1625 2713 2034 2713 
Q 2441 2713 2670 2916 
Q 2900 3119 2900 3481 
Q 2900 3844 2670 4047 
Q 2441 4250 2034 4250 
Q 1625 4250 1398 4047 
Q 1172 3844 1172 3481 
z
" transform="scale(0.015625)"/>
       </defs>
       <use xlink:href="#DejaVuSans-38"/>
      </g>
     </g>
    </g>
   </g>
   <g id="line2d_11">
    <path d="M 73.717364 156.933818 
L 74.998578 147.508364 
L 76.279793 141.224727 
L 77.561007 135.988887 
L 78.842222 131.799273 
L 80.123436 128.134342 
L 85.248294 117.661091 
L 86.529509 116.090182 
L 87.810723 113.733818 
L 91.654367 109.806545 
L 92.935581 108.061265 
L 95.49801 105.879273 
L 96.779225 104.570705 
L 98.060439 103.522909 
L 99.341654 101.952 
L 100.622868 101.237236 
L 101.904083 100.381091 
L 103.185298 99.333295 
L 104.466512 98.024727 
L 105.747727 97.239273 
L 107.028941 96.71616 
L 109.59137 95.525411 
L 110.872585 94.097455 
L 112.153799 94.097455 
L 114.716228 92.352175 
L 115.997443 91.478749 
L 117.278657 91.241542 
L 118.559872 90.170182 
L 119.841086 90.170182 
L 121.122301 88.861615 
L 122.403515 88.861615 
L 123.68473 87.813818 
L 124.965944 87.813818 
L 126.247159 87.364538 
L 127.528373 86.242909 
L 128.809588 86.242909 
L 130.090802 85.528145 
L 131.372017 84.672 
L 132.653231 84.672 
L 133.934446 84.43008 
L 135.21566 83.624204 
L 136.496875 83.222051 
L 137.778089 82.315636 
L 139.059304 82.315636 
L 140.340519 81.530182 
L 141.621733 81.530182 
L 142.902948 81.007069 
L 144.184162 81.007069 
L 145.465377 80.352 
L 148.027806 79.81632 
L 149.30902 79.43616 
L 150.590235 78.388364 
L 153.152664 78.388364 
L 154.433878 76.643084 
L 159.558736 76.643084 
L 160.839951 75.769658 
L 162.121165 75.769658 
L 163.40238 75.532451 
L 164.683594 74.461091 
L 168.527238 74.461091 
L 169.808452 74.104495 
L 171.089667 73.152524 
L 173.652096 73.152524 
L 174.93331 72.104727 
L 178.776954 72.104727 
L 180.058169 71.655447 
L 181.339383 71.655447 
L 182.620598 71.407244 
L 183.901812 70.533818 
L 186.464241 70.533818 
L 187.745456 69.819055 
L 190.307885 69.819055 
L 191.589099 68.962909 
L 195.432743 68.962909 
L 196.713957 68.720989 
L 197.995172 67.915113 
L 200.557601 67.915113 
L 201.838815 67.51296 
L 203.12003 67.51296 
L 204.401244 66.606545 
L 208.244888 66.606545 
L 209.526102 65.821091 
L 213.369746 65.821091 
L 214.65096 65.297978 
L 217.21339 65.297978 
L 219.775819 64.642909 
L 221.057033 64.642909 
L 223.619462 64.250182 
L 226.181891 63.887302 
L 227.463106 62.679273 
L 235.150393 62.679273 
L 236.431607 60.933993 
L 247.962538 60.933993 
L 249.243752 60.060567 
L 254.36861 60.060567 
L 255.649825 59.82336 
L 256.93104 59.82336 
L 258.212254 58.752 
L 265.899541 58.752 
L 267.180756 58.395404 
L 268.46197 58.395404 
L 269.743185 57.443433 
L 277.430472 57.443433 
L 278.711686 56.395636 
L 286.398973 56.395636 
L 287.680188 55.946356 
L 291.523831 55.946356 
L 292.805046 55.698153 
L 294.086261 55.698153 
L 295.367475 54.824727 
L 303.054762 54.824727 
L 304.335977 54.109964 
L 309.460835 54.109964 
L 310.742049 53.253818 
L 319.710551 53.253818 
L 320.991765 53.011898 
L 322.27298 53.011898 
L 323.554194 52.206022 
L 331.241481 52.206022 
L 332.522696 50.897455 
L 346.616056 50.897455 
L 347.89727 50.112 
L 355.584557 50.112 
L 356.865772 49.588887 
L 363.271844 49.588887 
L 364.553059 49.215011 
L 367.115488 49.215011 
L 368.396702 48.933818 
L 370.959132 48.933818 
L 372.240346 48.715462 
L 374.802775 48.715462 
L 377.365204 48.398138 
L 378.646419 48.398138 
L 379.927633 48.278749 
L 381.208848 46.970182 
L 397.864636 46.970182 
L 397.864636 46.970182 
" clip-path="url(#p177a8987cd)" style="fill: none; stroke: #4c72b0; stroke-width: 1.5; stroke-linecap: round"/>
   </g>
   <g id="line2d_12">
    <path d="M 73.717364 156.933818 
L 74.998578 141.224727 
L 76.279793 141.224727 
L 77.561007 125.515636 
L 81.404651 125.515636 
L 82.685865 109.806545 
L 91.654367 109.806545 
L 92.935581 94.097455 
L 112.153799 94.097455 
L 113.435014 78.388364 
L 153.152664 78.388364 
L 154.433878 62.679273 
L 235.150393 62.679273 
L 236.431607 46.970182 
L 397.864636 46.970182 
L 397.864636 46.970182 
" clip-path="url(#p177a8987cd)" style="fill: none; stroke: #dd8452; stroke-width: 1.5; stroke-linecap: round"/>
   </g>
   <g id="patch_3">
    <path d="M 57.51 162.432 
L 57.51 41.472 
" style="fill: none; stroke: #ffffff; stroke-width: 1.25; stroke-linejoin: miter; stroke-linecap: square"/>
   </g>
   <g id="patch_4">
    <path d="M 414.072 162.432 
L 414.072 41.472 
" style="fill: none; stroke: #ffffff; stroke-width: 1.25; stroke-linejoin: miter; stroke-linecap: square"/>
   </g>
   <g id="patch_5">
    <path d="M 57.51 162.432 
L 414.072 162.432 
" style="fill: none; stroke: #ffffff; stroke-width: 1.25; stroke-linejoin: miter; stroke-linecap: square"/>
   </g>
   <g id="patch_6">
    <path d="M 57.51 41.472 
L 414.072 41.472 
" style="fill: none; stroke: #ffffff; stroke-width: 1.25; stroke-linejoin: miter; stroke-linecap: square"/>
   </g>
   <g id="legend_1">
    <g id="patch_7">
     <path d="M 253.738406 156.932 
L 406.372 156.932 
Q 408.572 156.932 408.572 154.732 
L 408.572 123.540125 
Q 408.572 121.340125 406.372 121.340125 
L 253.738406 121.340125 
Q 251.538406 121.340125 251.538406 123.540125 
L 251.538406 154.732 
Q 251.538406 156.932 253.738406 156.932 
z
" style="fill: #eaeaf2; opacity: 0.8; stroke: #cccccc; stroke-linejoin: miter"/>
    </g>
    <g id="line2d_13">
     <path d="M 255.938406 130.248406 
L 266.938406 130.248406 
L 277.938406 130.248406 
" style="fill: none; stroke: #4c72b0; stroke-width: 1.5; stroke-linecap: round"/>
    </g>
    <g id="text_12">
     <!-- bits per value -->
     <g style="fill: #262626" transform="translate(286.738406 134.098406) scale(0.11 -0.11)">
      <defs>
       <path id="DejaVuSans-62" d="M 3116 1747 
Q 3116 2381 2855 2742 
Q 2594 3103 2138 3103 
Q 1681 3103 1420 2742 
Q 1159 2381 1159 1747 
Q 1159 1113 1420 752 
Q 1681 391 2138 391 
Q 2594 391 2855 752 
Q 3116 1113 3116 1747 
z
M 1159 2969 
Q 1341 3281 1617 3432 
Q 1894 3584 2278 3584 
Q 2916 3584 3314 3078 
Q 3713 2572 3713 1747 
Q 3713 922 3314 415 
Q 2916 -91 2278 -91 
Q 1894 -91 1617 61 
Q 1341 213 1159 525 
L 1159 0 
L 581 0 
L 581 4863 
L 1159 4863 
L 1159 2969 
z
" transform="scale(0.015625)"/>
       <path id="DejaVuSans-70" d="M 1159 525 
L 1159 -1331 
L 581 -1331 
L 581 3500 
L 1159 3500 
L 1159 2969 
Q 1341 3281 1617 3432 
Q 1894 3584 2278 3584 
Q 2916 3584 3314 3078 
Q 3713 2572 3713 1747 
Q 3713 922 3314 415 
Q 2916 -91 2278 -91 
Q 1894 -91 1617 61 
Q 1341 213 1159 525 
z
M 3116 1747 
Q 3116 2381 2855 2742 
Q 2594 3103 2138 3103 
Q 1681 3103 1420 2742 
Q 1159 2381 1159 1747 
Q 1159 1113 1420 752 
Q 1681 391 2138 391 
Q 2594 391 2855 752 
Q 3116 1113 3116 1747 
z
" transform="scale(0.015625)"/>
       <path id="DejaVuSans-72" d="M 2631 2963 
Q 2534 3019 2420 3045 
Q 2306 3072 2169 3072 
Q 1681 3072 1420 2755 
Q 1159 2438 1159 1844 
L 1159 0 
L 581 0 
L 581 3500 
L 1159 3500 
L 1159 2956 
Q 1341 3275 1631 3429 
Q 1922 3584 2338 3584 
Q 2397 3584 2469 3576 
Q 2541 3569 2628 3553 
L 2631 2963 
z
" transform="scale(0.015625)"/>
       <path id="DejaVuSans-76" d="M 191 3500 
L 800 3500 
L 1894 563 
L 2988 3500 
L 3597 3500 
L 2284 0 
L 1503 0 
L 191 3500 
z
" transform="scale(0.015625)"/>
      </defs>
      <use xlink:href="#DejaVuSans-62"/>
      <use xlink:href="#DejaVuSans-69" x="63.476562"/>
      <use xlink:href="#DejaVuSans-74" x="91.259766"/>
      <use xlink:href="#DejaVuSans-73" x="130.46875"/>
      <use xlink:href="#DejaVuSans-20" x="182.568359"/>
      <use xlink:href="#DejaVuSans-70" x="214.355469"/>
      <use xlink:href="#DejaVuSans-65" x="277.832031"/>
      <use xlink:href="#DejaVuSans-72" x="339.355469"/>
      <use xlink:href="#DejaVuSans-20" x="380.46875"/>
      <use xlink:href="#DejaVuSans-76" x="412.255859"/>
      <use xlink:href="#DejaVuSans-61" x="471.435547"/>
      <use xlink:href="#DejaVuSans-6c" x="532.714844"/>
      <use xlink:href="#DejaVuSans-75" x="560.498047"/>
      <use xlink:href="#DejaVuSans-65" x="623.876953"/>
     </g>
    </g>
    <g id="line2d_14">
     <path d="M 255.938406 146.394344 
L 266.938406 146.394344 
L 277.938406 146.394344 
" style="fill: none; stroke: #dd8452; stroke-width: 1.5; stroke-linecap: round"/>
    </g>
    <g id="text_13">
     <!-- normal bits per value -->
     <g style="fill: #262626" transform="translate(286.738406 150.244344) scale(0.11 -0.11)">
      <defs>
       <path id="DejaVuSans-6f" d="M 1959 3097 
Q 1497 3097 1228 2736 
Q 959 2375 959 1747 
Q 959 1119 1226 758 
Q 1494 397 1959 397 
Q 2419 397 2687 759 
Q 2956 1122 2956 1747 
Q 2956 2369 2687 2733 
Q 2419 3097 1959 3097 
z
M 1959 3584 
Q 2709 3584 3137 3096 
Q 3566 2609 3566 1747 
Q 3566 888 3137 398 
Q 2709 -91 1959 -91 
Q 1206 -91 779 398 
Q 353 888 353 1747 
Q 353 2609 779 3096 
Q 1206 3584 1959 3584 
z
" transform="scale(0.015625)"/>
       <path id="DejaVuSans-6d" d="M 3328 2828 
Q 3544 3216 3844 3400 
Q 4144 3584 4550 3584 
Q 5097 3584 5394 3201 
Q 5691 2819 5691 2113 
L 5691 0 
L 5113 0 
L 5113 2094 
Q 5113 2597 4934 2840 
Q 4756 3084 4391 3084 
Q 3944 3084 3684 2787 
Q 3425 2491 3425 1978 
L 3425 0 
L 2847 0 
L 2847 2094 
Q 2847 2600 2669 2842 
Q 2491 3084 2119 3084 
Q 1678 3084 1418 2786 
Q 1159 2488 1159 1978 
L 1159 0 
L 581 0 
L 581 3500 
L 1159 3500 
L 1159 2956 
Q 1356 3278 1631 3431 
Q 1906 3584 2284 3584 
Q 2666 3584 2933 3390 
Q 3200 3197 3328 2828 
z
" transform="scale(0.015625)"/>
      </defs>
      <use xlink:href="#DejaVuSans-6e"/>
      <use xlink:href="#DejaVuSans-6f" x="63.378906"/>
      <use xlink:href="#DejaVuSans-72" x="124.560547"/>
      <use xlink:href="#DejaVuSans-6d" x="163.923828"/>
      <use xlink:href="#DejaVuSans-61" x="261.335938"/>
      <use xlink:href="#DejaVuSans-6c" x="322.615234"/>
      <use xlink:href="#DejaVuSans-20" x="350.398438"/>
      <use xlink:href="#DejaVuSans-62" x="382.185547"/>
      <use xlink:href="#DejaVuSans-69" x="445.662109"/>
      <use xlink:href="#DejaVuSans-74" x="473.445312"/>
      <use xlink:href="#DejaVuSans-73" x="512.654297"/>
      <use xlink:href="#DejaVuSans-20" x="564.753906"/>
      <use xlink:href="#DejaVuSans-70" x="596.541016"/>
      <use xlink:href="#DejaVuSans-65" x="660.017578"/>
      <use xlink:href="#DejaVuSans-72" x="721.541016"/>
      <use xlink:href="#DejaVuSans-20" x="762.654297"/>
      <use xlink:href="#DejaVuSans-76" x="794.441406"/>
      <use xlink:href="#DejaVuSans-61" x="853.621094"/>
      <use xlink:href="#DejaVuSans-6c" x="914.900391"/>
      <use xlink:href="#DejaVuSans-75" x="942.683594"/>
      <use xlink:href="#DejaVuSans-65" x="1006.0625"/>
     </g>
    </g>
   </g>
  </g>
  <g id="axes_2">
   <g id="patch_8">
    <path d="M 57.51 307.584 
L 414.072 307.584 
L 414.072 186.624 
L 57.51 186.624 
z
" style="fill: #eaeaf2"/>
   </g>
   <g id="matplotlib.axis_3">
    <g id="xtick_7">
     <g id="line2d_15">
      <path d="M 71.154935 307.584 
L 71.154935 186.624 
" clip-path="url(#peca5ef8f71)" style="fill: none; stroke: #ffffff; stroke-linecap: round"/>
     </g>
     <g id="text_14">
      <!-- 0 -->
      <g style="fill: #262626" transform="translate(67.65556 325.442281) scale(0.11 -0.11)">
       <use xlink:href="#DejaVuSans-30"/>
      </g>
     </g>
    </g>
    <g id="xtick_8">
     <g id="line2d_16">
      <path d="M 135.21566 307.584 
L 135.21566 186.624 
" clip-path="url(#peca5ef8f71)" style="fill: none; stroke: #ffffff; stroke-linecap: round"/>
     </g>
     <g id="text_15">
      <!-- 50 -->
      <g style="fill: #262626" transform="translate(128.21691 325.442281) scale(0.11 -0.11)">
       <use xlink:href="#DejaVuSans-35"/>
       <use xlink:href="#DejaVuSans-30" x="63.623047"/>
      </g>
     </g>
    </g>
    <g id="xtick_9">
     <g id="line2d_17">
      <path d="M 199.276386 307.584 
L 199.276386 186.624 
" clip-path="url(#peca5ef8f71)" style="fill: none; stroke: #ffffff; stroke-linecap: round"/>
     </g>
     <g id="text_16">
      <!-- 100 -->
      <g style="fill: #262626" transform="translate(188.778261 325.442281) scale(0.11 -0.11)">
       <use xlink:href="#DejaVuSans-31"/>
       <use xlink:href="#DejaVuSans-30" x="63.623047"/>
       <use xlink:href="#DejaVuSans-30" x="127.246094"/>
      </g>
     </g>
    </g>
    <g id="xtick_10">
     <g id="line2d_18">
      <path d="M 263.337112 307.584 
L 263.337112 186.624 
" clip-path="url(#peca5ef8f71)" style="fill: none; stroke: #ffffff; stroke-linecap: round"/>
     </g>
     <g id="text_17">
      <!-- 150 -->
      <g style="fill: #262626" transform="translate(252.838987 325.442281) scale(0.11 -0.11)">
       <use xlink:href="#DejaVuSans-31"/>
       <use xlink:href="#DejaVuSans-35" x="63.623047"/>
       <use xlink:href="#DejaVuSans-30" x="127.246094"/>
      </g>
     </g>
    </g>
    <g id="xtick_11">
     <g id="line2d_19">
      <path d="M 327.397838 307.584 
L 327.397838 186.624 
" clip-path="url(#peca5ef8f71)" style="fill: none; stroke: #ffffff; stroke-linecap: round"/>
     </g>
     <g id="text_18">
      <!-- 200 -->
      <g style="fill: #262626" transform="translate(316.899713 325.442281) scale(0.11 -0.11)">
       <use xlink:href="#DejaVuSans-32"/>
       <use xlink:href="#DejaVuSans-30" x="63.623047"/>
       <use xlink:href="#DejaVuSans-30" x="127.246094"/>
      </g>
     </g>
    </g>
    <g id="xtick_12">
     <g id="line2d_20">
      <path d="M 391.458564 307.584 
L 391.458564 186.624 
" clip-path="url(#peca5ef8f71)" style="fill: none; stroke: #ffffff; stroke-linecap: round"/>
     </g>
     <g id="text_19">
      <!-- 250 -->
      <g style="fill: #262626" transform="translate(380.960439 325.442281) scale(0.11 -0.11)">
       <use xlink:href="#DejaVuSans-32"/>
       <use xlink:href="#DejaVuSans-35" x="63.623047"/>
       <use xlink:href="#DejaVuSans-30" x="127.246094"/>
      </g>
     </g>
    </g>
    <g id="text_20">
     <!-- Distinct Values -->
     <g style="fill: #262626" transform="translate(191.395688 340.848062) scale(0.12 -0.12)">
      <use xlink:href="#DejaVuSans-44"/>
      <use xlink:href="#DejaVuSans-69" x="77.001953"/>
      <use xlink:href="#DejaVuSans-73" x="104.785156"/>
      <use xlink:href="#DejaVuSans-74" x="156.884766"/>
      <use xlink:href="#DejaVuSans-69" x="196.09375"/>
      <use xlink:href="#DejaVuSans-6e" x="223.876953"/>
      <use xlink:href="#DejaVuSans-63" x="287.255859"/>
      <use xlink:href="#DejaVuSans-74" x="342.236328"/>
      <use xlink:href="#DejaVuSans-20" x="381.445312"/>
      <use xlink:href="#DejaVuSans-56" x="413.232422"/>
      <use xlink:href="#DejaVuSans-61" x="473.890625"/>
      <use xlink:href="#DejaVuSans-6c" x="535.169922"/>
      <use xlink:href="#DejaVuSans-75" x="562.953125"/>
      <use xlink:href="#DejaVuSans-65" x="626.332031"/>
      <use xlink:href="#DejaVuSans-73" x="687.855469"/>
     </g>
    </g>
   </g>
   <g id="matplotlib.axis_4">
    <g id="ytick_5">
     <g id="line2d_21">
      <path d="M 57.51 302.085818 
L 414.072 302.085818 
" clip-path="url(#peca5ef8f71)" style="fill: none; stroke: #ffffff; stroke-linecap: round"/>
     </g>
     <g id="text_21">
      <!-- 0 -->
      <g style="fill: #262626" transform="translate(41.01125 306.264959) scale(0.11 -0.11)">
       <use xlink:href="#DejaVuSans-30"/>
      </g>
     </g>
    </g>
    <g id="ytick_6">
     <g id="line2d_22">
      <path d="M 57.51 277.343975 
L 414.072 277.343975 
" clip-path="url(#peca5ef8f71)" style="fill: none; stroke: #ffffff; stroke-linecap: round"/>
     </g>
     <g id="text_22">
      <!-- 5 -->
      <g style="fill: #262626" transform="translate(41.01125 281.523116) scale(0.11 -0.11)">
       <use xlink:href="#DejaVuSans-35"/>
      </g>
     </g>
    </g>
    <g id="ytick_7">
     <g id="line2d_23">
      <path d="M 57.51 252.602132 
L 414.072 252.602132 
" clip-path="url(#peca5ef8f71)" style="fill: none; stroke: #ffffff; stroke-linecap: round"/>
     </g>
     <g id="text_23">
      <!-- 10 -->
      <g style="fill: #262626" transform="translate(34.0125 256.781273) scale(0.11 -0.11)">
       <use xlink:href="#DejaVuSans-31"/>
       <use xlink:href="#DejaVuSans-30" x="63.623047"/>
      </g>
     </g>
    </g>
    <g id="ytick_8">
     <g id="line2d_24">
      <path d="M 57.51 227.860289 
L 414.072 227.860289 
" clip-path="url(#peca5ef8f71)" style="fill: none; stroke: #ffffff; stroke-linecap: round"/>
     </g>
     <g id="text_24">
      <!-- 15 -->
      <g style="fill: #262626" transform="translate(34.0125 232.03943) scale(0.11 -0.11)">
       <use xlink:href="#DejaVuSans-31"/>
       <use xlink:href="#DejaVuSans-35" x="63.623047"/>
      </g>
     </g>
    </g>
    <g id="ytick_9">
     <g id="line2d_25">
      <path d="M 57.51 203.118446 
L 414.072 203.118446 
" clip-path="url(#peca5ef8f71)" style="fill: none; stroke: #ffffff; stroke-linecap: round"/>
     </g>
     <g id="text_25">
      <!-- 20 -->
      <g style="fill: #262626" transform="translate(34.0125 207.297587) scale(0.11 -0.11)">
       <use xlink:href="#DejaVuSans-32"/>
       <use xlink:href="#DejaVuSans-30" x="63.623047"/>
      </g>
     </g>
    </g>
   </g>
   <g id="line2d_26">
    <path d="M 73.717364 302.085818 
L 74.998578 203.118446 
L 76.279793 302.085818 
L 77.561007 192.122182 
L 78.842222 236.107735 
L 80.123436 274.594662 
L 81.404651 302.085818 
L 82.685865 200.869413 
L 83.96708 219.612843 
L 85.248294 240.231211 
L 86.529509 252.602132 
L 87.810723 271.158515 
L 89.091938 281.467451 
L 90.373152 290.839661 
L 91.654367 302.085818 
L 92.935581 214.114711 
L 95.49801 227.860289 
L 96.779225 236.107735 
L 98.060439 242.705395 
L 99.341654 252.602132 
L 100.622868 257.100694 
L 101.904083 262.49887 
L 103.185298 269.096529 
L 104.466512 277.343975 
L 105.747727 282.292344 
L 107.028941 285.591421 
L 108.310156 289.714897 
L 109.59137 293.088694 
L 110.872585 302.085818 
L 112.153799 302.085818 
L 113.435014 224.464224 
L 115.997443 233.358422 
L 117.278657 234.607885 
L 118.559872 240.231211 
L 119.841086 240.231211 
L 121.122301 247.104 
L 122.403515 247.104 
L 123.68473 252.602132 
L 124.965944 252.602132 
L 126.247159 254.958545 
L 127.528373 260.849578 
L 128.809588 260.849578 
L 130.090802 264.597967 
L 131.372017 269.096529 
L 132.653231 269.096529 
L 133.934446 270.365291 
L 135.21566 274.594662 
L 136.496875 276.709594 
L 137.778089 281.467451 
L 139.059304 281.467451 
L 140.340519 285.591421 
L 141.621733 285.591421 
L 142.902948 288.34024 
L 144.184162 288.34024 
L 145.465377 291.776882 
L 146.746591 292.921934 
L 148.027806 294.58805 
L 149.30902 296.587686 
L 150.590235 302.085818 
L 153.152664 302.085818 
L 154.433878 239.249455 
L 159.558736 239.249455 
L 160.839951 243.17648 
L 162.121165 243.17648 
L 163.40238 244.247802 
L 164.683594 249.067513 
L 168.527238 249.067513 
L 169.808452 250.674248 
L 171.089667 254.958545 
L 173.652096 254.958545 
L 174.93331 259.671372 
L 178.776954 259.671372 
L 180.058169 261.690801 
L 181.339383 261.690801 
L 182.620598 262.813091 
L 183.901812 266.740116 
L 186.464241 266.740116 
L 187.745456 269.953587 
L 190.307885 269.953587 
L 191.589099 273.809356 
L 195.432743 273.809356 
L 196.713957 274.897007 
L 197.995172 278.522182 
L 200.557601 278.522182 
L 201.838815 280.334769 
L 203.12003 280.334769 
L 204.401244 284.413215 
L 208.244888 284.413215 
L 209.526102 287.947834 
L 213.369746 287.947834 
L 214.65096 290.303753 
L 217.21339 290.303753 
L 218.494604 291.987188 
L 219.775819 293.249516 
L 221.057033 293.249516 
L 222.338248 294.231273 
L 223.619462 295.016579 
L 224.900677 295.659372 
L 226.181891 296.648056 
L 227.463106 302.085818 
L 235.150393 302.085818 
L 236.431607 247.104 
L 247.962538 247.104 
L 249.243752 250.540147 
L 254.36861 250.540147 
L 255.649825 251.477368 
L 256.93104 251.477368 
L 258.212254 255.694863 
L 265.899541 255.694863 
L 267.180756 257.100694 
L 268.46197 257.100694 
L 269.743185 260.849578 
L 277.430472 260.849578 
L 278.711686 264.973054 
L 286.398973 264.973054 
L 287.680188 266.740116 
L 291.523831 266.740116 
L 292.805046 267.722367 
L 294.086261 267.722367 
L 295.367475 271.158515 
L 303.054762 271.158515 
L 304.335977 273.970178 
L 309.460835 273.970178 
L 310.742049 277.343975 
L 319.710551 277.343975 
L 320.991765 278.295547 
L 322.27298 278.295547 
L 323.554194 281.467451 
L 331.241481 281.467451 
L 332.522696 286.622166 
L 346.616056 286.622166 
L 347.89727 289.714897 
L 355.584557 289.714897 
L 356.865772 291.776882 
L 363.271844 291.776882 
L 364.553059 293.249516 
L 367.115488 293.249516 
L 368.396702 294.353992 
L 370.959132 294.353992 
L 372.240346 295.213029 
L 374.802775 295.213029 
L 377.365204 296.462492 
L 378.646419 296.462492 
L 379.927633 296.931103 
L 381.208848 302.085818 
L 397.864636 302.085818 
L 397.864636 302.085818 
" clip-path="url(#peca5ef8f71)" style="fill: none; stroke: #4c72b0; stroke-width: 1.5; stroke-linecap: round"/>
   </g>
   <g id="patch_9">
    <path d="M 57.51 307.584 
L 57.51 186.624 
" style="fill: none; stroke: #ffffff; stroke-width: 1.25; stroke-linejoin: miter; stroke-linecap: square"/>
   </g>
   <g id="patch_10">
    <path d="M 414.072 307.584 
L 414.072 186.624 
" style="fill: none; stroke: #ffffff; stroke-width: 1.25; stroke-linejoin: miter; stroke-linecap: square"/>
   </g>
   <g id="patch_11">
    <path d="M 57.51 307.584 
L 414.072 307.584 
" style="fill: none; stroke: #ffffff; stroke-width: 1.25; stroke-linejoin: miter; stroke-linecap: square"/>
   </g>
   <g id="patch_12">
    <path d="M 57.51 186.624 
L 414.072 186.624 
" style="fill: none; stroke: #ffffff; stroke-width: 1.25; stroke-linejoin: miter; stroke-linecap: square"/>
   </g>
   <g id="legend_2">
    <g id="patch_13">
     <path d="M 283.826844 211.569937 
L 406.372 211.569937 
Q 408.572 211.569937 408.572 209.369937 
L 408.572 194.324 
Q 408.572 192.124 406.372 192.124 
L 283.826844 192.124 
Q 281.626844 192.124 281.626844 194.324 
L 281.626844 209.369937 
Q 281.626844 211.569937 283.826844 211.569937 
z
" style="fill: #eaeaf2; opacity: 0.8; stroke: #cccccc; stroke-linejoin: miter"/>
    </g>
    <g id="line2d_27">
     <path d="M 286.026844 201.032281 
L 297.026844 201.032281 
L 308.026844 201.032281 
" style="fill: none; stroke: #4c72b0; stroke-width: 1.5; stroke-linecap: round"/>
    </g>
    <g id="text_26">
     <!-- percent savings -->
     <g style="fill: #262626" transform="translate(316.826844 204.882281) scale(0.11 -0.11)">
      <defs>
       <path id="DejaVuSans-67" d="M 2906 1791 
Q 2906 2416 2648 2759 
Q 2391 3103 1925 3103 
Q 1463 3103 1205 2759 
Q 947 2416 947 1791 
Q 947 1169 1205 825 
Q 1463 481 1925 481 
Q 2391 481 2648 825 
Q 2906 1169 2906 1791 
z
M 3481 434 
Q 3481 -459 3084 -895 
Q 2688 -1331 1869 -1331 
Q 1566 -1331 1297 -1286 
Q 1028 -1241 775 -1147 
L 775 -588 
Q 1028 -725 1275 -790 
Q 1522 -856 1778 -856 
Q 2344 -856 2625 -561 
Q 2906 -266 2906 331 
L 2906 616 
Q 2728 306 2450 153 
Q 2172 0 1784 0 
Q 1141 0 747 490 
Q 353 981 353 1791 
Q 353 2603 747 3093 
Q 1141 3584 1784 3584 
Q 2172 3584 2450 3431 
Q 2728 3278 2906 2969 
L 2906 3500 
L 3481 3500 
L 3481 434 
z
" transform="scale(0.015625)"/>
      </defs>
      <use xlink:href="#DejaVuSans-70"/>
      <use xlink:href="#DejaVuSans-65" x="63.476562"/>
      <use xlink:href="#DejaVuSans-72" x="125"/>
      <use xlink:href="#DejaVuSans-63" x="163.863281"/>
      <use xlink:href="#DejaVuSans-65" x="218.84375"/>
      <use xlink:href="#DejaVuSans-6e" x="280.367188"/>
      <use xlink:href="#DejaVuSans-74" x="343.746094"/>
      <use xlink:href="#DejaVuSans-20" x="382.955078"/>
      <use xlink:href="#DejaVuSans-73" x="414.742188"/>
      <use xlink:href="#DejaVuSans-61" x="466.841797"/>
      <use xlink:href="#DejaVuSans-76" x="528.121094"/>
      <use xlink:href="#DejaVuSans-69" x="587.300781"/>
      <use xlink:href="#DejaVuSans-6e" x="615.083984"/>
      <use xlink:href="#DejaVuSans-67" x="678.462891"/>
      <use xlink:href="#DejaVuSans-73" x="741.939453"/>
     </g>
    </g>
   </g>
  </g>
 </g>
 <defs>
  <clipPath id="p177a8987cd">
   <rect x="57.51" y="41.472" width="356.562" height="120.96"/>
  </clipPath>
  <clipPath id="peca5ef8f71">
   <rect x="57.51" y="186.624" width="356.562" height="120.96"/>
  </clipPath>
 </defs>
</svg>
