<?xml version="1.0" encoding="utf-8" standalone="no"?>
<!DOCTYPE svg PUBLIC "-//W3C//DTD SVG 1.1//EN"
  "http://www.w3.org/Graphics/SVG/1.1/DTD/svg11.dtd">
<svg xmlns:xlink="http://www.w3.org/1999/xlink" width="1006.56pt" height="535.68pt" viewBox="0 0 1006.56 535.68" xmlns="http://www.w3.org/2000/svg" version="1.1">
 <metadata>
  <rdf:RDF xmlns:dc="http://purl.org/dc/elements/1.1/" xmlns:cc="http://creativecommons.org/ns#" xmlns:rdf="http://www.w3.org/1999/02/22-rdf-syntax-ns#">
   <cc:Work>
    <dc:type rdf:resource="http://purl.org/dc/dcmitype/StillImage"/>
    <dc:date>2024-03-07T00:17:07.496967</dc:date>
    <dc:format>image/svg+xml</dc:format>
    <dc:creator>
     <cc:Agent>
      <dc:title>Matplotlib v3.8.2, https://matplotlib.org/</dc:title>
     </cc:Agent>
    </dc:creator>
   </cc:Work>
  </rdf:RDF>
 </metadata>
 <defs>
  <style type="text/css">*{stroke-linejoin: round; stroke-linecap: butt}</style>
 </defs>
 <g id="figure_1">
  <g id="patch_1">
   <path d="M 0 535.68 
L 1006.56 535.68 
L 1006.56 0 
L 0 0 
z
" style="fill: #ffffff"/>
  </g>
  <g id="axes_1">
   <g id="patch_2">
    <path d="M 125.82 251.7696 
L 905.904 251.7696 
L 905.904 64.2816 
L 125.82 64.2816 
z
" style="fill: #eaeaf2"/>
   </g>
   <g id="matplotlib.axis_1">
    <g id="xtick_1">
     <g id="line2d_1">
      <path d="M 155.694369 251.7696 
L 155.694369 64.2816 
" clip-path="url(#pb856b8e8f4)" style="fill: none; stroke: #ffffff; stroke-linecap: round"/>
     </g>
     <g id="text_1">
      <!-- 0 -->
      <g style="fill: #262626" transform="translate(152.194994 269.627881) scale(0.11 -0.11)">
       <defs>
        <path id="DejaVuSans-30" d="M 2034 4250 
Q 1547 4250 1301 3770 
Q 1056 3291 1056 2328 
Q 1056 1369 1301 889 
Q 1547 409 2034 409 
Q 2525 409 2770 889 
Q 3016 1369 3016 2328 
Q 3016 3291 2770 3770 
Q 2525 4250 2034 4250 
z
M 2034 4750 
Q 2819 4750 3233 4129 
Q 3647 3509 3647 2328 
Q 3647 1150 3233 529 
Q 2819 -91 2034 -91 
Q 1250 -91 836 529 
Q 422 1150 422 2328 
Q 422 3509 836 4129 
Q 1250 4750 2034 4750 
z
" transform="scale(0.015625)"/>
       </defs>
       <use xlink:href="#DejaVuSans-30"/>
      </g>
     </g>
    </g>
    <g id="xtick_2">
     <g id="line2d_2">
      <path d="M 295.294226 251.7696 
L 295.294226 64.2816 
" clip-path="url(#pb856b8e8f4)" style="fill: none; stroke: #ffffff; stroke-linecap: round"/>
     </g>
     <g id="text_2">
      <!-- 50 -->
      <g style="fill: #262626" transform="translate(288.295476 269.627881) scale(0.11 -0.11)">
       <defs>
        <path id="DejaVuSans-35" d="M 691 4666 
L 3169 4666 
L 3169 4134 
L 1269 4134 
L 1269 2991 
Q 1406 3038 1543 3061 
Q 1681 3084 1819 3084 
Q 2600 3084 3056 2656 
Q 3513 2228 3513 1497 
Q 3513 744 3044 326 
Q 2575 -91 1722 -91 
Q 1428 -91 1123 -41 
Q 819 9 494 109 
L 494 744 
Q 775 591 1075 516 
Q 1375 441 1709 441 
Q 2250 441 2565 725 
Q 2881 1009 2881 1497 
Q 2881 1984 2565 2268 
Q 2250 2553 1709 2553 
Q 1456 2553 1204 2497 
Q 953 2441 691 2322 
L 691 4666 
z
" transform="scale(0.015625)"/>
       </defs>
       <use xlink:href="#DejaVuSans-35"/>
       <use xlink:href="#DejaVuSans-30" x="63.623047"/>
      </g>
     </g>
    </g>
    <g id="xtick_3">
     <g id="line2d_3">
      <path d="M 434.894083 251.7696 
L 434.894083 64.2816 
" clip-path="url(#pb856b8e8f4)" style="fill: none; stroke: #ffffff; stroke-linecap: round"/>
     </g>
     <g id="text_3">
      <!-- 100 -->
      <g style="fill: #262626" transform="translate(424.395958 269.627881) scale(0.11 -0.11)">
       <defs>
        <path id="DejaVuSans-31" d="M 794 531 
L 1825 531 
L 1825 4091 
L 703 3866 
L 703 4441 
L 1819 4666 
L 2450 4666 
L 2450 531 
L 3481 531 
L 3481 0 
L 794 0 
L 794 531 
z
" transform="scale(0.015625)"/>
       </defs>
       <use xlink:href="#DejaVuSans-31"/>
       <use xlink:href="#DejaVuSans-30" x="63.623047"/>
       <use xlink:href="#DejaVuSans-30" x="127.246094"/>
      </g>
     </g>
    </g>
    <g id="xtick_4">
     <g id="line2d_4">
      <path d="M 574.49394 251.7696 
L 574.49394 64.2816 
" clip-path="url(#pb856b8e8f4)" style="fill: none; stroke: #ffffff; stroke-linecap: round"/>
     </g>
     <g id="text_4">
      <!-- 150 -->
      <g style="fill: #262626" transform="translate(563.995815 269.627881) scale(0.11 -0.11)">
       <use xlink:href="#DejaVuSans-31"/>
       <use xlink:href="#DejaVuSans-35" x="63.623047"/>
       <use xlink:href="#DejaVuSans-30" x="127.246094"/>
      </g>
     </g>
    </g>
    <g id="xtick_5">
     <g id="line2d_5">
      <path d="M 714.093797 251.7696 
L 714.093797 64.2816 
" clip-path="url(#pb856b8e8f4)" style="fill: none; stroke: #ffffff; stroke-linecap: round"/>
     </g>
     <g id="text_5">
      <!-- 200 -->
      <g style="fill: #262626" transform="translate(703.595672 269.627881) scale(0.11 -0.11)">
       <defs>
        <path id="DejaVuSans-32" d="M 1228 531 
L 3431 531 
L 3431 0 
L 469 0 
L 469 531 
Q 828 903 1448 1529 
Q 2069 2156 2228 2338 
Q 2531 2678 2651 2914 
Q 2772 3150 2772 3378 
Q 2772 3750 2511 3984 
Q 2250 4219 1831 4219 
Q 1534 4219 1204 4116 
Q 875 4013 500 3803 
L 500 4441 
Q 881 4594 1212 4672 
Q 1544 4750 1819 4750 
Q 2544 4750 2975 4387 
Q 3406 4025 3406 3419 
Q 3406 3131 3298 2873 
Q 3191 2616 2906 2266 
Q 2828 2175 2409 1742 
Q 1991 1309 1228 531 
z
" transform="scale(0.015625)"/>
       </defs>
       <use xlink:href="#DejaVuSans-32"/>
       <use xlink:href="#DejaVuSans-30" x="63.623047"/>
       <use xlink:href="#DejaVuSans-30" x="127.246094"/>
      </g>
     </g>
    </g>
    <g id="xtick_6">
     <g id="line2d_6">
      <path d="M 853.693654 251.7696 
L 853.693654 64.2816 
" clip-path="url(#pb856b8e8f4)" style="fill: none; stroke: #ffffff; stroke-linecap: round"/>
     </g>
     <g id="text_6">
      <!-- 250 -->
      <g style="fill: #262626" transform="translate(843.195529 269.627881) scale(0.11 -0.11)">
       <use xlink:href="#DejaVuSans-32"/>
       <use xlink:href="#DejaVuSans-35" x="63.623047"/>
       <use xlink:href="#DejaVuSans-30" x="127.246094"/>
      </g>
     </g>
    </g>
    <g id="text_7">
     <!-- Distinct Values -->
     <g style="fill: #262626" transform="translate(471.466688 285.033662) scale(0.12 -0.12)">
      <defs>
       <path id="DejaVuSans-44" d="M 1259 4147 
L 1259 519 
L 2022 519 
Q 2988 519 3436 956 
Q 3884 1394 3884 2338 
Q 3884 3275 3436 3711 
Q 2988 4147 2022 4147 
L 1259 4147 
z
M 628 4666 
L 1925 4666 
Q 3281 4666 3915 4102 
Q 4550 3538 4550 2338 
Q 4550 1131 3912 565 
Q 3275 0 1925 0 
L 628 0 
L 628 4666 
z
" transform="scale(0.015625)"/>
       <path id="DejaVuSans-69" d="M 603 3500 
L 1178 3500 
L 1178 0 
L 603 0 
L 603 3500 
z
M 603 4863 
L 1178 4863 
L 1178 4134 
L 603 4134 
L 603 4863 
z
" transform="scale(0.015625)"/>
       <path id="DejaVuSans-73" d="M 2834 3397 
L 2834 2853 
Q 2591 2978 2328 3040 
Q 2066 3103 1784 3103 
Q 1356 3103 1142 2972 
Q 928 2841 928 2578 
Q 928 2378 1081 2264 
Q 1234 2150 1697 2047 
L 1894 2003 
Q 2506 1872 2764 1633 
Q 3022 1394 3022 966 
Q 3022 478 2636 193 
Q 2250 -91 1575 -91 
Q 1294 -91 989 -36 
Q 684 19 347 128 
L 347 722 
Q 666 556 975 473 
Q 1284 391 1588 391 
Q 1994 391 2212 530 
Q 2431 669 2431 922 
Q 2431 1156 2273 1281 
Q 2116 1406 1581 1522 
L 1381 1569 
Q 847 1681 609 1914 
Q 372 2147 372 2553 
Q 372 3047 722 3315 
Q 1072 3584 1716 3584 
Q 2034 3584 2315 3537 
Q 2597 3491 2834 3397 
z
" transform="scale(0.015625)"/>
       <path id="DejaVuSans-74" d="M 1172 4494 
L 1172 3500 
L 2356 3500 
L 2356 3053 
L 1172 3053 
L 1172 1153 
Q 1172 725 1289 603 
Q 1406 481 1766 481 
L 2356 481 
L 2356 0 
L 1766 0 
Q 1100 0 847 248 
Q 594 497 594 1153 
L 594 3053 
L 172 3053 
L 172 3500 
L 594 3500 
L 594 4494 
L 1172 4494 
z
" transform="scale(0.015625)"/>
       <path id="DejaVuSans-6e" d="M 3513 2113 
L 3513 0 
L 2938 0 
L 2938 2094 
Q 2938 2591 2744 2837 
Q 2550 3084 2163 3084 
Q 1697 3084 1428 2787 
Q 1159 2491 1159 1978 
L 1159 0 
L 581 0 
L 581 3500 
L 1159 3500 
L 1159 2956 
Q 1366 3272 1645 3428 
Q 1925 3584 2291 3584 
Q 2894 3584 3203 3211 
Q 3513 2838 3513 2113 
z
" transform="scale(0.015625)"/>
       <path id="DejaVuSans-63" d="M 3122 3366 
L 3122 2828 
Q 2878 2963 2633 3030 
Q 2388 3097 2138 3097 
Q 1578 3097 1268 2742 
Q 959 2388 959 1747 
Q 959 1106 1268 751 
Q 1578 397 2138 397 
Q 2388 397 2633 464 
Q 2878 531 3122 666 
L 3122 134 
Q 2881 22 2623 -34 
Q 2366 -91 2075 -91 
Q 1284 -91 818 406 
Q 353 903 353 1747 
Q 353 2603 823 3093 
Q 1294 3584 2113 3584 
Q 2378 3584 2631 3529 
Q 2884 3475 3122 3366 
z
" transform="scale(0.015625)"/>
       <path id="DejaVuSans-20" transform="scale(0.015625)"/>
       <path id="DejaVuSans-56" d="M 1831 0 
L 50 4666 
L 709 4666 
L 2188 738 
L 3669 4666 
L 4325 4666 
L 2547 0 
L 1831 0 
z
" transform="scale(0.015625)"/>
       <path id="DejaVuSans-61" d="M 2194 1759 
Q 1497 1759 1228 1600 
Q 959 1441 959 1056 
Q 959 750 1161 570 
Q 1363 391 1709 391 
Q 2188 391 2477 730 
Q 2766 1069 2766 1631 
L 2766 1759 
L 2194 1759 
z
M 3341 1997 
L 3341 0 
L 2766 0 
L 2766 531 
Q 2569 213 2275 61 
Q 1981 -91 1556 -91 
Q 1019 -91 701 211 
Q 384 513 384 1019 
Q 384 1609 779 1909 
Q 1175 2209 1959 2209 
L 2766 2209 
L 2766 2266 
Q 2766 2663 2505 2880 
Q 2244 3097 1772 3097 
Q 1472 3097 1187 3025 
Q 903 2953 641 2809 
L 641 3341 
Q 956 3463 1253 3523 
Q 1550 3584 1831 3584 
Q 2591 3584 2966 3190 
Q 3341 2797 3341 1997 
z
" transform="scale(0.015625)"/>
       <path id="DejaVuSans-6c" d="M 603 4863 
L 1178 4863 
L 1178 0 
L 603 0 
L 603 4863 
z
" transform="scale(0.015625)"/>
       <path id="DejaVuSans-75" d="M 544 1381 
L 544 3500 
L 1119 3500 
L 1119 1403 
Q 1119 906 1312 657 
Q 1506 409 1894 409 
Q 2359 409 2629 706 
Q 2900 1003 2900 1516 
L 2900 3500 
L 3475 3500 
L 3475 0 
L 2900 0 
L 2900 538 
Q 2691 219 2414 64 
Q 2138 -91 1772 -91 
Q 1169 -91 856 284 
Q 544 659 544 1381 
z
M 1991 3584 
L 1991 3584 
z
" transform="scale(0.015625)"/>
       <path id="DejaVuSans-65" d="M 3597 1894 
L 3597 1613 
L 953 1613 
Q 991 1019 1311 708 
Q 1631 397 2203 397 
Q 2534 397 2845 478 
Q 3156 559 3463 722 
L 3463 178 
Q 3153 47 2828 -22 
Q 2503 -91 2169 -91 
Q 1331 -91 842 396 
Q 353 884 353 1716 
Q 353 2575 817 3079 
Q 1281 3584 2069 3584 
Q 2775 3584 3186 3129 
Q 3597 2675 3597 1894 
z
M 3022 2063 
Q 3016 2534 2758 2815 
Q 2500 3097 2075 3097 
Q 1594 3097 1305 2825 
Q 1016 2553 972 2059 
L 3022 2063 
z
" transform="scale(0.015625)"/>
      </defs>
      <use xlink:href="#DejaVuSans-44"/>
      <use xlink:href="#DejaVuSans-69" x="77.001953"/>
      <use xlink:href="#DejaVuSans-73" x="104.785156"/>
      <use xlink:href="#DejaVuSans-74" x="156.884766"/>
      <use xlink:href="#DejaVuSans-69" x="196.09375"/>
      <use xlink:href="#DejaVuSans-6e" x="223.876953"/>
      <use xlink:href="#DejaVuSans-63" x="287.255859"/>
      <use xlink:href="#DejaVuSans-74" x="342.236328"/>
      <use xlink:href="#DejaVuSans-20" x="381.445312"/>
      <use xlink:href="#DejaVuSans-56" x="413.232422"/>
      <use xlink:href="#DejaVuSans-61" x="473.890625"/>
      <use xlink:href="#DejaVuSans-6c" x="535.169922"/>
      <use xlink:href="#DejaVuSans-75" x="562.953125"/>
      <use xlink:href="#DejaVuSans-65" x="626.332031"/>
      <use xlink:href="#DejaVuSans-73" x="687.855469"/>
     </g>
    </g>
   </g>
   <g id="matplotlib.axis_2">
    <g id="ytick_1">
     <g id="line2d_7">
      <path d="M 125.82 251.7696 
L 905.904 251.7696 
" clip-path="url(#pb856b8e8f4)" style="fill: none; stroke: #ffffff; stroke-linecap: round"/>
     </g>
     <g id="text_8">
      <!-- 0 -->
      <g style="fill: #262626" transform="translate(109.32125 255.948741) scale(0.11 -0.11)">
       <use xlink:href="#DejaVuSans-30"/>
      </g>
     </g>
    </g>
    <g id="ytick_2">
     <g id="line2d_8">
      <path d="M 125.82 223.318597 
L 905.904 223.318597 
" clip-path="url(#pb856b8e8f4)" style="fill: none; stroke: #ffffff; stroke-linecap: round"/>
     </g>
     <g id="text_9">
      <!-- 2 -->
      <g style="fill: #262626" transform="translate(109.32125 227.497737) scale(0.11 -0.11)">
       <use xlink:href="#DejaVuSans-32"/>
      </g>
     </g>
    </g>
    <g id="ytick_3">
     <g id="line2d_9">
      <path d="M 125.82 194.867593 
L 905.904 194.867593 
" clip-path="url(#pb856b8e8f4)" style="fill: none; stroke: #ffffff; stroke-linecap: round"/>
     </g>
     <g id="text_10">
      <!-- 4 -->
      <g style="fill: #262626" transform="translate(109.32125 199.046734) scale(0.11 -0.11)">
       <defs>
        <path id="DejaVuSans-34" d="M 2419 4116 
L 825 1625 
L 2419 1625 
L 2419 4116 
z
M 2253 4666 
L 3047 4666 
L 3047 1625 
L 3713 1625 
L 3713 1100 
L 3047 1100 
L 3047 0 
L 2419 0 
L 2419 1100 
L 313 1100 
L 313 1709 
L 2253 4666 
z
" transform="scale(0.015625)"/>
       </defs>
       <use xlink:href="#DejaVuSans-34"/>
      </g>
     </g>
    </g>
    <g id="ytick_4">
     <g id="line2d_10">
      <path d="M 125.82 166.41659 
L 905.904 166.41659 
" clip-path="url(#pb856b8e8f4)" style="fill: none; stroke: #ffffff; stroke-linecap: round"/>
     </g>
     <g id="text_11">
      <!-- 6 -->
      <g style="fill: #262626" transform="translate(109.32125 170.59573) scale(0.11 -0.11)">
       <defs>
        <path id="DejaVuSans-36" d="M 2113 2584 
Q 1688 2584 1439 2293 
Q 1191 2003 1191 1497 
Q 1191 994 1439 701 
Q 1688 409 2113 409 
Q 2538 409 2786 701 
Q 3034 994 3034 1497 
Q 3034 2003 2786 2293 
Q 2538 2584 2113 2584 
z
M 3366 4563 
L 3366 3988 
Q 3128 4100 2886 4159 
Q 2644 4219 2406 4219 
Q 1781 4219 1451 3797 
Q 1122 3375 1075 2522 
Q 1259 2794 1537 2939 
Q 1816 3084 2150 3084 
Q 2853 3084 3261 2657 
Q 3669 2231 3669 1497 
Q 3669 778 3244 343 
Q 2819 -91 2113 -91 
Q 1303 -91 875 529 
Q 447 1150 447 2328 
Q 447 3434 972 4092 
Q 1497 4750 2381 4750 
Q 2619 4750 2861 4703 
Q 3103 4656 3366 4563 
z
" transform="scale(0.015625)"/>
       </defs>
       <use xlink:href="#DejaVuSans-36"/>
      </g>
     </g>
    </g>
    <g id="ytick_5">
     <g id="line2d_11">
      <path d="M 125.82 137.965586 
L 905.904 137.965586 
" clip-path="url(#pb856b8e8f4)" style="fill: none; stroke: #ffffff; stroke-linecap: round"/>
     </g>
     <g id="text_12">
      <!-- 8 -->
      <g style="fill: #262626" transform="translate(109.32125 142.144727) scale(0.11 -0.11)">
       <defs>
        <path id="DejaVuSans-38" d="M 2034 2216 
Q 1584 2216 1326 1975 
Q 1069 1734 1069 1313 
Q 1069 891 1326 650 
Q 1584 409 2034 409 
Q 2484 409 2743 651 
Q 3003 894 3003 1313 
Q 3003 1734 2745 1975 
Q 2488 2216 2034 2216 
z
M 1403 2484 
Q 997 2584 770 2862 
Q 544 3141 544 3541 
Q 544 4100 942 4425 
Q 1341 4750 2034 4750 
Q 2731 4750 3128 4425 
Q 3525 4100 3525 3541 
Q 3525 3141 3298 2862 
Q 3072 2584 2669 2484 
Q 3125 2378 3379 2068 
Q 3634 1759 3634 1313 
Q 3634 634 3220 271 
Q 2806 -91 2034 -91 
Q 1263 -91 848 271 
Q 434 634 434 1313 
Q 434 1759 690 2068 
Q 947 2378 1403 2484 
z
M 1172 3481 
Q 1172 3119 1398 2916 
Q 1625 2713 2034 2713 
Q 2441 2713 2670 2916 
Q 2900 3119 2900 3481 
Q 2900 3844 2670 4047 
Q 2441 4250 2034 4250 
Q 1625 4250 1398 4047 
Q 1172 3844 1172 3481 
z
" transform="scale(0.015625)"/>
       </defs>
       <use xlink:href="#DejaVuSans-38"/>
      </g>
     </g>
    </g>
    <g id="ytick_6">
     <g id="line2d_12">
      <path d="M 125.82 109.514583 
L 905.904 109.514583 
" clip-path="url(#pb856b8e8f4)" style="fill: none; stroke: #ffffff; stroke-linecap: round"/>
     </g>
     <g id="text_13">
      <!-- 10 -->
      <g style="fill: #262626" transform="translate(102.3225 113.693723) scale(0.11 -0.11)">
       <use xlink:href="#DejaVuSans-31"/>
       <use xlink:href="#DejaVuSans-30" x="63.623047"/>
      </g>
     </g>
    </g>
    <g id="ytick_7">
     <g id="line2d_13">
      <path d="M 125.82 81.063579 
L 905.904 81.063579 
" clip-path="url(#pb856b8e8f4)" style="fill: none; stroke: #ffffff; stroke-linecap: round"/>
     </g>
     <g id="text_14">
      <!-- 12 -->
      <g style="fill: #262626" transform="translate(102.3225 85.24272) scale(0.11 -0.11)">
       <use xlink:href="#DejaVuSans-31"/>
       <use xlink:href="#DejaVuSans-32" x="63.623047"/>
      </g>
     </g>
    </g>
    <g id="text_15">
     <!-- Cycles/value -->
     <g style="fill: #262626" transform="translate(95.826875 195.9606) rotate(-90) scale(0.12 -0.12)">
      <defs>
       <path id="DejaVuSans-43" d="M 4122 4306 
L 4122 3641 
Q 3803 3938 3442 4084 
Q 3081 4231 2675 4231 
Q 1875 4231 1450 3742 
Q 1025 3253 1025 2328 
Q 1025 1406 1450 917 
Q 1875 428 2675 428 
Q 3081 428 3442 575 
Q 3803 722 4122 1019 
L 4122 359 
Q 3791 134 3420 21 
Q 3050 -91 2638 -91 
Q 1578 -91 968 557 
Q 359 1206 359 2328 
Q 359 3453 968 4101 
Q 1578 4750 2638 4750 
Q 3056 4750 3426 4639 
Q 3797 4528 4122 4306 
z
" transform="scale(0.015625)"/>
       <path id="DejaVuSans-79" d="M 2059 -325 
Q 1816 -950 1584 -1140 
Q 1353 -1331 966 -1331 
L 506 -1331 
L 506 -850 
L 844 -850 
Q 1081 -850 1212 -737 
Q 1344 -625 1503 -206 
L 1606 56 
L 191 3500 
L 800 3500 
L 1894 763 
L 2988 3500 
L 3597 3500 
L 2059 -325 
z
" transform="scale(0.015625)"/>
       <path id="DejaVuSans-2f" d="M 1625 4666 
L 2156 4666 
L 531 -594 
L 0 -594 
L 1625 4666 
z
" transform="scale(0.015625)"/>
       <path id="DejaVuSans-76" d="M 191 3500 
L 800 3500 
L 1894 563 
L 2988 3500 
L 3597 3500 
L 2284 0 
L 1503 0 
L 191 3500 
z
" transform="scale(0.015625)"/>
      </defs>
      <use xlink:href="#DejaVuSans-43"/>
      <use xlink:href="#DejaVuSans-79" x="69.824219"/>
      <use xlink:href="#DejaVuSans-63" x="129.003906"/>
      <use xlink:href="#DejaVuSans-6c" x="183.984375"/>
      <use xlink:href="#DejaVuSans-65" x="211.767578"/>
      <use xlink:href="#DejaVuSans-73" x="273.291016"/>
      <use xlink:href="#DejaVuSans-2f" x="325.390625"/>
      <use xlink:href="#DejaVuSans-76" x="359.082031"/>
      <use xlink:href="#DejaVuSans-61" x="418.261719"/>
      <use xlink:href="#DejaVuSans-6c" x="479.541016"/>
      <use xlink:href="#DejaVuSans-75" x="507.324219"/>
      <use xlink:href="#DejaVuSans-65" x="570.703125"/>
     </g>
    </g>
   </g>
   <g id="line2d_14">
    <path d="M 161.278364 219.861202 
L 164.070361 215.506635 
L 166.862358 198.688774 
L 169.654355 198.360033 
L 172.446352 215.973014 
L 175.238349 221.756133 
L 178.030346 181.039442 
L 180.822344 235.476239 
L 183.614341 192.725744 
L 186.406338 173.465082 
L 189.198335 215.897072 
L 191.990332 206.890461 
L 194.782329 222.081544 
L 197.574326 235.294756 
L 200.366324 155.196007 
L 203.158321 231.543157 
L 205.950318 235.49534 
L 208.742315 207.182387 
L 211.534312 192.562576 
L 214.326309 215.887637 
L 217.118306 163.434694 
L 219.910304 230.467797 
L 222.702301 215.829918 
L 225.494298 192.385719 
L 228.286295 207.111903 
L 231.078292 215.545669 
L 233.870289 221.268942 
L 236.662286 229.04942 
L 239.454283 234.813392 
L 242.246281 139.56204 
L 245.038278 139.558895 
L 247.830275 231.990975 
L 250.622272 231.937233 
L 253.414269 222.187363 
L 256.206266 207.139653 
L 258.998263 207.196262 
L 261.790261 206.96446 
L 264.582258 192.642865 
L 267.374255 191.270368 
L 270.166252 215.255408 
L 272.958249 215.135437 
L 275.750246 226.336028 
L 278.542243 163.263386 
L 281.334241 163.257096 
L 284.126238 215.780709 
L 286.918235 215.674243 
L 289.710232 215.824646 
L 292.502229 192.221071 
L 295.294226 192.340024 
L 298.086223 206.91895 
L 300.87822 206.94374 
L 303.670218 206.12568 
L 306.462215 215.182889 
L 309.254212 215.156989 
L 312.046209 221.996168 
L 314.838206 222.202255 
L 317.630203 229.617609 
L 320.4222 230.499894 
L 323.214198 112.596965 
L 326.006195 111.820344 
L 328.798192 114.086936 
L 331.590189 115.153077 
L 334.382186 112.486706 
L 337.174183 231.624063 
L 339.96618 232.042466 
L 342.758178 231.637938 
L 345.550175 231.976854 
L 348.342172 231.688874 
L 351.134169 222.187825 
L 353.926166 221.096802 
L 356.718163 206.425562 
L 359.51016 207.220867 
L 362.302157 206.98444 
L 367.886152 207.098583 
L 370.678149 192.313385 
L 376.262143 192.306355 
L 379.05414 192.007028 
L 381.846137 216.585541 
L 384.638135 216.559549 
L 387.430132 216.333389 
L 390.222129 216.45595 
L 393.014126 226.479679 
L 395.806123 226.266099 
L 398.59812 163.026774 
L 401.390117 162.991994 
L 404.182115 163.168852 
L 406.974112 163.103548 
L 409.766109 215.970886 
L 412.558106 215.884677 
L 415.350103 216.004741 
L 418.1421 215.89735 
L 420.934097 216.038318 
L 426.518092 215.982726 
L 429.310089 191.995929 
L 432.102086 192.411988 
L 434.894083 192.111552 
L 437.68608 192.489317 
L 440.478077 206.996464 
L 454.438063 206.92043 
L 457.23006 215.68932 
L 460.022057 215.88847 
L 462.814054 215.922787 
L 465.606052 215.556677 
L 468.398049 221.738559 
L 471.190046 221.922169 
L 473.982043 221.522296 
L 476.77404 225.854479 
L 479.566037 229.535748 
L 482.358034 229.274901 
L 485.150031 95.822301 
L 493.526023 95.769022 
L 496.31802 95.434176 
L 499.110017 92.595202 
L 507.486009 92.607967 
L 510.278006 92.367285 
L 513.070003 92.586137 
L 515.862 221.876567 
L 518.653997 221.458472 
L 521.445994 221.870554 
L 527.029989 221.815148 
L 535.40598 221.80599 
L 538.197977 222.474017 
L 540.989974 221.99034 
L 543.781971 222.388825 
L 549.365966 222.396503 
L 552.157963 222.023917 
L 554.94996 222.301784 
L 557.741957 206.143625 
L 560.533954 205.813404 
L 568.909946 205.976387 
L 571.701943 206.136965 
L 577.285937 205.911823 
L 580.077934 207.066764 
L 582.869931 192.260845 
L 585.661928 192.019793 
L 588.453926 192.183516 
L 594.03792 189.90416 
L 596.829917 189.791311 
L 599.621914 190.912582 
L 602.413911 190.984731 
L 605.205908 190.886128 
L 607.997906 216.046643 
L 610.789903 215.781356 
L 616.373897 216.027958 
L 619.165894 215.934812 
L 621.957891 216.018893 
L 624.749888 215.808458 
L 627.541885 226.19506 
L 630.333883 225.550806 
L 633.12588 225.570693 
L 635.917877 225.966033 
L 638.709874 160.993649 
L 641.501871 161.37863 
L 644.293868 163.065993 
L 647.085865 162.267543 
L 649.877863 161.233406 
L 652.66986 161.264486 
L 655.461857 162.94371 
L 658.253854 163.009939 
L 661.045851 161.151452 
L 663.837848 215.352809 
L 666.629845 216.067918 
L 669.421843 216.174661 
L 672.21384 216.012141 
L 675.005837 215.411361 
L 677.797834 215.414783 
L 680.589831 216.168741 
L 694.549817 215.941287 
L 697.341814 215.403683 
L 700.133811 190.974556 
L 708.509802 190.925162 
L 711.3018 192.214966 
L 722.469788 192.140782 
L 725.261785 206.843471 
L 728.053782 207.105613 
L 730.84578 206.028372 
L 733.637777 206.019122 
L 736.429774 206.349898 
L 739.221771 207.006824 
L 742.013768 206.873811 
L 747.597762 206.972785 
L 750.389759 206.865856 
L 753.181757 206.032072 
L 755.973754 206.021712 
L 758.765751 215.943784 
L 764.349745 215.952387 
L 767.141742 215.315902 
L 769.933739 215.429213 
L 772.725737 215.398504 
L 775.517734 215.205181 
L 778.309731 221.80858 
L 781.101728 222.391693 
L 783.893725 222.100044 
L 786.685722 222.413985 
L 789.477719 222.130939 
L 792.269717 222.427397 
L 795.061714 226.537491 
L 797.853711 226.488744 
L 800.645708 226.553123 
L 803.437705 76.305232 
L 806.229702 75.816838 
L 809.021699 76.245663 
L 811.813696 75.738954 
L 814.605694 76.156309 
L 817.397691 75.667915 
L 820.189688 72.596029 
L 825.773682 75.880477 
L 828.565679 73.243521 
L 831.357676 75.851063 
L 834.149674 75.420758 
L 836.941671 76.120789 
L 839.733668 75.694 
L 842.525665 76.254358 
L 845.317662 75.834598 
L 848.109659 76.092855 
L 850.901656 75.707135 
L 853.693654 75.972236 
L 856.485651 75.728409 
L 859.277648 76.319292 
L 862.069645 75.373029 
L 864.861642 76.295612 
L 867.653639 75.402998 
L 870.445636 76.03976 
L 870.445636 76.03976 
" clip-path="url(#pb856b8e8f4)" style="fill: none; stroke: #4c72b0; stroke-width: 1.5; stroke-linecap: round"/>
   </g>
   <g id="line2d_15">
    <path d="M 161.278364 231.577845 
L 164.070361 204.360803 
L 166.862358 228.251586 
L 169.654355 217.735579 
L 172.446352 217.415441 
L 175.238349 206.655514 
L 178.030346 231.674198 
L 180.822344 214.889575 
L 183.614341 216.092615 
L 186.406338 217.469645 
L 189.198335 215.790236 
L 191.990332 218.994118 
L 194.782329 208.991849 
L 197.574326 212.778197 
L 200.366324 214.196204 
L 203.158321 215.10741 
L 205.950318 211.659146 
L 208.742315 219.037315 
L 211.534312 218.977653 
L 214.326309 192.828973 
L 217.118306 211.427344 
L 219.910304 176.264097 
L 222.702301 217.566029 
L 225.494298 199.092809 
L 228.286295 215.46168 
L 231.078292 199.922154 
L 233.870289 207.960857 
L 236.662286 200.691374 
L 239.454283 209.138182 
L 242.246281 198.395923 
L 245.038278 231.477082 
L 247.830275 212.953759 
L 250.622272 209.184432 
L 253.414269 213.711232 
L 256.206266 219.744376 
L 258.998263 218.782296 
L 261.790261 215.157637 
L 264.582258 200.506746 
L 267.374255 208.96891 
L 270.166252 215.327834 
L 272.958249 209.234936 
L 275.750246 208.279978 
L 278.542243 214.858403 
L 281.334241 212.502735 
L 284.126238 205.887958 
L 286.918235 196.020553 
L 289.710232 206.51658 
L 292.502229 207.721285 
L 295.294226 210.898435 
L 300.87822 215.032301 
L 303.670218 204.986465 
L 306.462215 211.783279 
L 309.254212 204.16267 
L 312.046209 211.781059 
L 314.838206 211.580892 
L 317.630203 215.432173 
L 320.4222 215.054593 
L 323.214198 194.145601 
L 326.006195 185.146945 
L 328.798192 190.67486 
L 331.590189 188.098398 
L 334.382186 227.518903 
L 337.174183 212.576549 
L 339.96618 210.066131 
L 342.758178 209.546472 
L 345.550175 210.393947 
L 348.342172 209.287476 
L 351.134169 219.959529 
L 353.926166 204.283104 
L 356.718163 219.772218 
L 359.51016 218.904487 
L 362.302157 215.112682 
L 365.094155 212.446681 
L 367.886152 215.330054 
L 370.678149 212.92934 
L 373.470146 218.971826 
L 376.262143 214.594504 
L 379.05414 219.017705 
L 381.846137 195.093715 
L 384.638135 200.140636 
L 387.430132 194.131727 
L 390.222129 196.920381 
L 393.014126 211.635651 
L 395.806123 219.214913 
L 398.59812 221.300947 
L 401.390117 214.781444 
L 404.182115 198.471032 
L 406.974112 221.912179 
L 409.766109 212.862925 
L 412.558106 217.880617 
L 415.350103 204.774457 
L 418.1421 217.851295 
L 420.934097 192.541857 
L 423.726094 217.258285 
L 426.518092 192.348534 
L 429.310089 201.661872 
L 432.102086 189.719902 
L 434.894083 191.354912 
L 437.68608 187.201899 
L 440.478077 221.62941 
L 443.270074 202.639214 
L 446.062072 214.243193 
L 448.854069 214.166049 
L 451.646066 219.380208 
L 454.438063 213.077893 
L 457.23006 208.751537 
L 460.022057 207.385885 
L 462.814054 215.975234 
L 465.606052 197.82132 
L 468.398049 211.430859 
L 471.190046 219.021868 
L 473.982043 219.038795 
L 476.77404 195.43004 
L 479.566037 214.242731 
L 482.358034 205.370335 
L 485.150031 210.752102 
L 487.942029 201.467254 
L 490.734026 207.417519 
L 493.526023 206.817017 
L 496.31802 209.098593 
L 499.110017 200.661589 
L 501.902014 201.635602 
L 504.694011 204.695833 
L 507.486009 200.903566 
L 510.278006 208.427606 
L 513.070003 230.738849 
L 515.862 215.687562 
L 518.653997 212.962547 
L 521.445994 211.783464 
L 524.237991 213.036453 
L 527.029989 211.716125 
L 529.821986 219.271245 
L 532.613983 211.232911 
L 535.40598 213.001859 
L 538.197977 191.604473 
L 540.989974 220.076817 
L 543.781971 219.86703 
L 546.573969 219.910227 
L 549.365966 220.075892 
L 552.157963 217.024263 
L 554.94996 213.378144 
L 557.741957 219.221665 
L 560.533954 214.708277 
L 563.325951 214.343832 
L 566.117948 204.910246 
L 568.909946 213.420508 
L 571.701943 213.326715 
L 574.49394 220.452362 
L 577.285937 220.150076 
L 580.077934 215.332829 
L 582.869931 209.951247 
L 585.661928 219.011415 
L 588.453926 209.715745 
L 591.245923 215.661755 
L 594.03792 218.463637 
L 596.829917 202.664189 
L 599.621914 211.716495 
L 602.413911 215.960526 
L 605.205908 193.814641 
L 607.997906 209.448054 
L 610.789903 210.738042 
L 613.5819 212.299608 
L 616.373897 212.447051 
L 619.165894 220.715244 
L 621.957891 220.779901 
L 624.749888 212.160304 
L 627.541885 196.122117 
L 630.333883 209.944402 
L 633.12588 201.516094 
L 635.917877 210.085371 
L 638.709874 221.565401 
L 641.501871 222.166921 
L 644.293868 222.132234 
L 647.085865 214.034978 
L 649.877863 221.658177 
L 652.66986 217.113617 
L 655.461857 222.210488 
L 658.253854 221.726256 
L 661.045851 215.408956 
L 663.837848 215.4417 
L 666.629845 210.889 
L 669.421843 216.25088 
L 672.21384 206.53434 
L 675.005837 215.459553 
L 677.797834 217.86998 
L 680.589831 216.199266 
L 683.381828 209.776239 
L 686.173825 216.176789 
L 688.965822 209.923868 
L 691.75782 214.131547 
L 694.549817 209.313745 
L 697.341814 215.4639 
L 700.133811 212.08982 
L 702.925808 218.222493 
L 705.717805 220.276245 
L 708.509802 218.899677 
L 711.3018 214.795041 
L 714.093797 204.367648 
L 716.885794 196.895777 
L 719.677791 218.921507 
L 722.469788 220.590278 
L 725.261785 221.071087 
L 728.053782 214.049501 
L 730.84578 218.65918 
L 733.637777 201.512394 
L 736.429774 215.358914 
L 739.221771 221.110214 
L 742.013768 221.093934 
L 744.805765 221.189948 
L 747.597762 218.908372 
L 750.389759 201.089859 
L 753.181757 218.633558 
L 755.973754 220.466792 
L 758.765751 212.281293 
L 761.557748 210.798537 
L 764.349745 220.254045 
L 767.141742 220.155256 
L 769.933739 217.122404 
L 772.725737 220.165523 
L 775.517734 217.139517 
L 778.309731 198.194275 
L 781.101728 211.528722 
L 783.893725 211.150587 
L 786.685722 219.954256 
L 789.477719 220.113354 
L 792.269717 219.888952 
L 795.061714 218.996338 
L 797.853711 216.151444 
L 800.645708 218.990603 
L 803.437705 176.301096 
L 806.229702 166.08386 
L 809.021699 176.464079 
L 811.813696 162.558545 
L 814.605694 166.08423 
L 817.397691 170.224293 
L 820.189688 153.507164 
L 822.981685 165.990251 
L 825.773682 162.607569 
L 828.565679 171.122642 
L 831.357676 171.287845 
L 834.149674 155.36343 
L 836.941671 176.154208 
L 839.733668 176.494049 
L 842.525665 162.55244 
L 845.317662 171.2662 
L 848.109659 155.463699 
L 850.901656 155.440574 
L 853.693654 176.048575 
L 856.485651 176.531604 
L 859.277648 155.335311 
L 862.069645 155.36639 
L 864.861642 155.239297 
L 867.653639 176.458344 
L 870.445636 176.768771 
L 870.445636 176.768771 
" clip-path="url(#pb856b8e8f4)" style="fill: none; stroke: #dd8452; stroke-width: 1.5; stroke-linecap: round"/>
   </g>
   <g id="line2d_16">
    <path d="M 161.278364 238.669699 
L 164.070361 237.936415 
L 166.862358 237.930603 
L 169.654355 238.758267 
L 178.030346 238.783319 
L 180.822344 237.96401 
L 200.366324 237.897658 
L 203.158321 238.469609 
L 205.950318 238.493196 
L 211.534312 238.814892 
L 214.326309 238.735728 
L 217.118306 238.820781 
L 222.702301 238.812826 
L 231.078292 238.739536 
L 233.870289 238.69102 
L 236.662286 238.812672 
L 245.038278 238.809311 
L 247.830275 237.995398 
L 261.790261 237.99193 
L 264.582258 237.917468 
L 267.374255 237.597761 
L 270.166252 237.927997 
L 272.958249 237.697197 
L 275.750246 237.728215 
L 278.542243 237.986118 
L 284.126238 237.947993 
L 289.710232 237.976775 
L 295.294226 238.014006 
L 298.086223 237.777995 
L 300.87822 237.935135 
L 309.254212 237.961991 
L 312.046209 237.477189 
L 314.838206 237.644874 
L 317.630203 237.935305 
L 331.590189 237.970686 
L 334.382186 237.973692 
L 337.174183 238.767054 
L 351.134169 238.817466 
L 359.51016 238.796623 
L 365.094155 238.812209 
L 367.886152 238.611995 
L 370.678149 238.818915 
L 379.05414 238.790564 
L 390.222129 238.884605 
L 395.806123 238.69933 
L 398.59812 237.265567 
L 401.390117 238.461423 
L 404.182115 238.169681 
L 406.974112 238.496973 
L 412.558106 238.502122 
L 415.350103 238.737331 
L 418.1421 238.796623 
L 423.726094 238.536886 
L 429.310089 232.908163 
L 432.102086 238.387932 
L 434.894083 238.477995 
L 440.478077 238.455534 
L 443.270074 238.71413 
L 454.438063 238.74339 
L 460.022057 238.747815 
L 462.814054 238.565006 
L 465.606052 238.746628 
L 468.398049 238.716565 
L 471.190046 234.431156 
L 473.982043 236.074691 
L 476.77404 238.519712 
L 479.566037 238.365656 
L 482.358034 238.424932 
L 485.150031 238.774747 
L 490.734026 238.691945 
L 493.526023 237.942643 
L 496.31802 238.59217 
L 501.902014 238.70821 
L 504.694011 238.490205 
L 507.486009 238.70138 
L 510.278006 238.624992 
L 513.070003 238.736622 
L 515.862 233.986869 
L 518.653997 233.196327 
L 521.445994 237.66584 
L 527.029989 237.706617 
L 529.821986 237.68528 
L 532.613983 237.976251 
L 535.40598 237.993101 
L 538.197977 237.891954 
L 540.989974 237.419809 
L 543.781971 237.332305 
L 546.573969 237.599395 
L 552.157963 237.784609 
L 554.94996 237.924051 
L 557.741957 237.850129 
L 560.533954 237.953496 
L 563.325951 237.884461 
L 568.909946 237.925731 
L 574.49394 237.908496 
L 599.621914 237.869816 
L 607.997906 237.891815 
L 610.789903 237.168567 
L 613.5819 237.936091 
L 616.373897 237.312819 
L 619.165894 237.360132 
L 621.957891 236.950316 
L 624.749888 237.034983 
L 627.541885 236.96974 
L 630.333883 237.25792 
L 633.12588 236.719469 
L 635.917877 237.276682 
L 638.709874 237.451135 
L 641.501871 236.118304 
L 644.293868 229.881354 
L 647.085865 237.035075 
L 649.877863 237.614087 
L 652.66986 237.693251 
L 655.461857 237.650748 
L 658.253854 237.952664 
L 677.797834 237.951045 
L 680.589831 237.797189 
L 688.965822 237.976898 
L 700.133811 237.981292 
L 708.509802 237.985069 
L 711.3018 237.726011 
L 714.093797 237.927766 
L 719.677791 237.888608 
L 722.469788 237.999977 
L 733.637777 237.97121 
L 739.221771 237.965691 
L 742.013768 237.979381 
L 744.805765 237.726042 
L 747.597762 237.978733 
L 753.181757 237.924421 
L 761.557748 238.020496 
L 767.141742 237.971518 
L 769.933739 237.546702 
L 772.725737 237.531023 
L 775.517734 237.899277 
L 778.309731 238.001272 
L 783.893725 237.947915 
L 789.477719 238.010028 
L 800.645708 238.026015 
L 859.277648 238.023734 
L 862.069645 238.079572 
L 864.861642 238.017675 
L 867.653639 238.079171 
L 870.445636 237.981631 
L 870.445636 237.981631 
" clip-path="url(#pb856b8e8f4)" style="fill: none; stroke: #55a868; stroke-width: 1.5; stroke-linecap: round"/>
   </g>
   <g id="line2d_17">
    <path d="M 161.278364 231.369599 
L 164.070361 231.631802 
L 194.782329 231.578461 
L 200.366324 231.588019 
L 203.158321 231.105761 
L 205.950318 231.122997 
L 208.742315 231.530115 
L 217.118306 231.497186 
L 219.910304 231.594772 
L 225.494298 231.53104 
L 233.870289 231.520742 
L 247.830275 231.57473 
L 256.206266 231.443012 
L 261.790261 231.474123 
L 264.582258 231.337964 
L 267.374255 231.473691 
L 272.958249 231.078104 
L 275.750246 231.098115 
L 278.542243 231.573004 
L 284.126238 231.525922 
L 309.254212 231.519632 
L 312.046209 231.410267 
L 314.838206 231.517936 
L 328.798192 231.506405 
L 334.382186 231.470423 
L 339.96618 231.39371 
L 351.134169 231.519108 
L 356.718163 231.408788 
L 367.886152 231.464256 
L 370.678149 231.405365 
L 373.470146 231.511153 
L 379.05414 231.44739 
L 398.59812 231.2956 
L 401.390117 230.949253 
L 404.182115 230.738171 
L 406.974112 231.005678 
L 412.558106 230.996551 
L 415.350103 231.443166 
L 418.1421 229.007579 
L 420.934097 231.237356 
L 423.726094 230.994454 
L 426.518092 230.233467 
L 429.310089 230.74369 
L 432.102086 231.024023 
L 434.894083 230.95209 
L 437.68608 231.012615 
L 440.478077 230.830916 
L 443.270074 231.363124 
L 468.398049 231.399815 
L 471.190046 229.723644 
L 476.77404 230.949808 
L 482.358034 230.952737 
L 485.150031 231.298806 
L 487.942029 231.285332 
L 490.734026 228.838831 
L 493.526023 231.214972 
L 499.110017 231.397225 
L 501.902014 231.287953 
L 504.694011 231.405858 
L 507.486009 231.288755 
L 513.070003 231.324059 
L 515.862 234.119898 
L 518.653997 219.046473 
L 521.445994 235.042666 
L 529.821986 235.031689 
L 532.613983 235.362404 
L 538.197977 235.358688 
L 540.989974 235.114137 
L 543.781971 235.244128 
L 546.573969 234.937279 
L 549.365966 235.031566 
L 552.157963 235.267006 
L 602.413911 235.334531 
L 605.205908 235.399295 
L 607.997906 235.330646 
L 610.789903 234.833495 
L 613.5819 234.889488 
L 616.373897 234.372049 
L 621.957891 234.43094 
L 624.749888 230.925419 
L 627.541885 234.47238 
L 633.12588 234.54459 
L 635.917877 233.647475 
L 638.709874 234.413057 
L 641.501871 226.865306 
L 644.293868 234.342265 
L 647.085865 234.356633 
L 649.877863 234.56901 
L 652.66986 234.48274 
L 655.461857 234.905706 
L 675.005837 234.897134 
L 686.173825 234.888809 
L 694.549817 234.827945 
L 700.133811 234.858162 
L 714.093797 234.810617 
L 716.885794 234.632464 
L 719.677791 234.843238 
L 742.013768 234.912921 
L 750.389759 234.824554 
L 753.181757 235.368755 
L 839.733668 235.341021 
L 870.445636 235.37799 
L 870.445636 235.37799 
" clip-path="url(#pb856b8e8f4)" style="fill: none; stroke: #c44e52; stroke-width: 1.5; stroke-linecap: round"/>
   </g>
   <g id="patch_3">
    <path d="M 125.82 251.7696 
L 125.82 64.2816 
" style="fill: none; stroke: #ffffff; stroke-width: 1.25; stroke-linejoin: miter; stroke-linecap: square"/>
   </g>
   <g id="patch_4">
    <path d="M 905.904 251.7696 
L 905.904 64.2816 
" style="fill: none; stroke: #ffffff; stroke-width: 1.25; stroke-linejoin: miter; stroke-linecap: square"/>
   </g>
   <g id="patch_5">
    <path d="M 125.82 251.7696 
L 905.904 251.7696 
" style="fill: none; stroke: #ffffff; stroke-width: 1.25; stroke-linejoin: miter; stroke-linecap: square"/>
   </g>
   <g id="patch_6">
    <path d="M 125.82 64.2816 
L 905.904 64.2816 
" style="fill: none; stroke: #ffffff; stroke-width: 1.25; stroke-linejoin: miter; stroke-linecap: square"/>
   </g>
   <g id="legend_1">
    <g id="patch_7">
     <path d="M 133.52 137.66535 
L 310.016719 137.66535 
Q 312.216719 137.66535 312.216719 135.46535 
L 312.216719 71.9816 
Q 312.216719 69.7816 310.016719 69.7816 
L 133.52 69.7816 
Q 131.32 69.7816 131.32 71.9816 
L 131.32 135.46535 
Q 131.32 137.66535 133.52 137.66535 
z
" style="fill: #eaeaf2; opacity: 0.8; stroke: #cccccc; stroke-linejoin: miter"/>
    </g>
    <g id="line2d_18">
     <path d="M 135.72 78.689881 
L 146.72 78.689881 
L 157.72 78.689881 
" style="fill: none; stroke: #4c72b0; stroke-width: 1.5; stroke-linecap: round"/>
    </g>
    <g id="text_16">
     <!-- Ultrapack Compression -->
     <g style="fill: #262626" transform="translate(166.52 82.539881) scale(0.11 -0.11)">
      <defs>
       <path id="DejaVuSans-55" d="M 556 4666 
L 1191 4666 
L 1191 1831 
Q 1191 1081 1462 751 
Q 1734 422 2344 422 
Q 2950 422 3222 751 
Q 3494 1081 3494 1831 
L 3494 4666 
L 4128 4666 
L 4128 1753 
Q 4128 841 3676 375 
Q 3225 -91 2344 -91 
Q 1459 -91 1007 375 
Q 556 841 556 1753 
L 556 4666 
z
" transform="scale(0.015625)"/>
       <path id="DejaVuSans-72" d="M 2631 2963 
Q 2534 3019 2420 3045 
Q 2306 3072 2169 3072 
Q 1681 3072 1420 2755 
Q 1159 2438 1159 1844 
L 1159 0 
L 581 0 
L 581 3500 
L 1159 3500 
L 1159 2956 
Q 1341 3275 1631 3429 
Q 1922 3584 2338 3584 
Q 2397 3584 2469 3576 
Q 2541 3569 2628 3553 
L 2631 2963 
z
" transform="scale(0.015625)"/>
       <path id="DejaVuSans-70" d="M 1159 525 
L 1159 -1331 
L 581 -1331 
L 581 3500 
L 1159 3500 
L 1159 2969 
Q 1341 3281 1617 3432 
Q 1894 3584 2278 3584 
Q 2916 3584 3314 3078 
Q 3713 2572 3713 1747 
Q 3713 922 3314 415 
Q 2916 -91 2278 -91 
Q 1894 -91 1617 61 
Q 1341 213 1159 525 
z
M 3116 1747 
Q 3116 2381 2855 2742 
Q 2594 3103 2138 3103 
Q 1681 3103 1420 2742 
Q 1159 2381 1159 1747 
Q 1159 1113 1420 752 
Q 1681 391 2138 391 
Q 2594 391 2855 752 
Q 3116 1113 3116 1747 
z
" transform="scale(0.015625)"/>
       <path id="DejaVuSans-6b" d="M 581 4863 
L 1159 4863 
L 1159 1991 
L 2875 3500 
L 3609 3500 
L 1753 1863 
L 3688 0 
L 2938 0 
L 1159 1709 
L 1159 0 
L 581 0 
L 581 4863 
z
" transform="scale(0.015625)"/>
       <path id="DejaVuSans-6f" d="M 1959 3097 
Q 1497 3097 1228 2736 
Q 959 2375 959 1747 
Q 959 1119 1226 758 
Q 1494 397 1959 397 
Q 2419 397 2687 759 
Q 2956 1122 2956 1747 
Q 2956 2369 2687 2733 
Q 2419 3097 1959 3097 
z
M 1959 3584 
Q 2709 3584 3137 3096 
Q 3566 2609 3566 1747 
Q 3566 888 3137 398 
Q 2709 -91 1959 -91 
Q 1206 -91 779 398 
Q 353 888 353 1747 
Q 353 2609 779 3096 
Q 1206 3584 1959 3584 
z
" transform="scale(0.015625)"/>
       <path id="DejaVuSans-6d" d="M 3328 2828 
Q 3544 3216 3844 3400 
Q 4144 3584 4550 3584 
Q 5097 3584 5394 3201 
Q 5691 2819 5691 2113 
L 5691 0 
L 5113 0 
L 5113 2094 
Q 5113 2597 4934 2840 
Q 4756 3084 4391 3084 
Q 3944 3084 3684 2787 
Q 3425 2491 3425 1978 
L 3425 0 
L 2847 0 
L 2847 2094 
Q 2847 2600 2669 2842 
Q 2491 3084 2119 3084 
Q 1678 3084 1418 2786 
Q 1159 2488 1159 1978 
L 1159 0 
L 581 0 
L 581 3500 
L 1159 3500 
L 1159 2956 
Q 1356 3278 1631 3431 
Q 1906 3584 2284 3584 
Q 2666 3584 2933 3390 
Q 3200 3197 3328 2828 
z
" transform="scale(0.015625)"/>
      </defs>
      <use xlink:href="#DejaVuSans-55"/>
      <use xlink:href="#DejaVuSans-6c" x="73.193359"/>
      <use xlink:href="#DejaVuSans-74" x="100.976562"/>
      <use xlink:href="#DejaVuSans-72" x="140.185547"/>
      <use xlink:href="#DejaVuSans-61" x="181.298828"/>
      <use xlink:href="#DejaVuSans-70" x="242.578125"/>
      <use xlink:href="#DejaVuSans-61" x="306.054688"/>
      <use xlink:href="#DejaVuSans-63" x="367.333984"/>
      <use xlink:href="#DejaVuSans-6b" x="422.314453"/>
      <use xlink:href="#DejaVuSans-20" x="480.224609"/>
      <use xlink:href="#DejaVuSans-43" x="512.011719"/>
      <use xlink:href="#DejaVuSans-6f" x="581.835938"/>
      <use xlink:href="#DejaVuSans-6d" x="643.017578"/>
      <use xlink:href="#DejaVuSans-70" x="740.429688"/>
      <use xlink:href="#DejaVuSans-72" x="803.90625"/>
      <use xlink:href="#DejaVuSans-65" x="842.769531"/>
      <use xlink:href="#DejaVuSans-73" x="904.292969"/>
      <use xlink:href="#DejaVuSans-73" x="956.392578"/>
      <use xlink:href="#DejaVuSans-69" x="1008.492188"/>
      <use xlink:href="#DejaVuSans-6f" x="1036.275391"/>
      <use xlink:href="#DejaVuSans-6e" x="1097.457031"/>
     </g>
    </g>
    <g id="line2d_19">
     <path d="M 135.72 94.835819 
L 146.72 94.835819 
L 157.72 94.835819 
" style="fill: none; stroke: #dd8452; stroke-width: 1.5; stroke-linecap: round"/>
    </g>
    <g id="text_17">
     <!-- Ultrapack Decompression -->
     <g style="fill: #262626" transform="translate(166.52 98.685819) scale(0.11 -0.11)">
      <use xlink:href="#DejaVuSans-55"/>
      <use xlink:href="#DejaVuSans-6c" x="73.193359"/>
      <use xlink:href="#DejaVuSans-74" x="100.976562"/>
      <use xlink:href="#DejaVuSans-72" x="140.185547"/>
      <use xlink:href="#DejaVuSans-61" x="181.298828"/>
      <use xlink:href="#DejaVuSans-70" x="242.578125"/>
      <use xlink:href="#DejaVuSans-61" x="306.054688"/>
      <use xlink:href="#DejaVuSans-63" x="367.333984"/>
      <use xlink:href="#DejaVuSans-6b" x="422.314453"/>
      <use xlink:href="#DejaVuSans-20" x="480.224609"/>
      <use xlink:href="#DejaVuSans-44" x="512.011719"/>
      <use xlink:href="#DejaVuSans-65" x="589.013672"/>
      <use xlink:href="#DejaVuSans-63" x="650.537109"/>
      <use xlink:href="#DejaVuSans-6f" x="705.517578"/>
      <use xlink:href="#DejaVuSans-6d" x="766.699219"/>
      <use xlink:href="#DejaVuSans-70" x="864.111328"/>
      <use xlink:href="#DejaVuSans-72" x="927.587891"/>
      <use xlink:href="#DejaVuSans-65" x="966.451172"/>
      <use xlink:href="#DejaVuSans-73" x="1027.974609"/>
      <use xlink:href="#DejaVuSans-73" x="1080.074219"/>
      <use xlink:href="#DejaVuSans-69" x="1132.173828"/>
      <use xlink:href="#DejaVuSans-6f" x="1159.957031"/>
      <use xlink:href="#DejaVuSans-6e" x="1221.138672"/>
     </g>
    </g>
    <g id="line2d_20">
     <path d="M 135.72 110.981756 
L 146.72 110.981756 
L 157.72 110.981756 
" style="fill: none; stroke: #55a868; stroke-width: 1.5; stroke-linecap: round"/>
    </g>
    <g id="text_18">
     <!-- Bitpack Compression -->
     <g style="fill: #262626" transform="translate(166.52 114.831756) scale(0.11 -0.11)">
      <defs>
       <path id="DejaVuSans-42" d="M 1259 2228 
L 1259 519 
L 2272 519 
Q 2781 519 3026 730 
Q 3272 941 3272 1375 
Q 3272 1813 3026 2020 
Q 2781 2228 2272 2228 
L 1259 2228 
z
M 1259 4147 
L 1259 2741 
L 2194 2741 
Q 2656 2741 2882 2914 
Q 3109 3088 3109 3444 
Q 3109 3797 2882 3972 
Q 2656 4147 2194 4147 
L 1259 4147 
z
M 628 4666 
L 2241 4666 
Q 2963 4666 3353 4366 
Q 3744 4066 3744 3513 
Q 3744 3084 3544 2831 
Q 3344 2578 2956 2516 
Q 3422 2416 3680 2098 
Q 3938 1781 3938 1306 
Q 3938 681 3513 340 
Q 3088 0 2303 0 
L 628 0 
L 628 4666 
z
" transform="scale(0.015625)"/>
      </defs>
      <use xlink:href="#DejaVuSans-42"/>
      <use xlink:href="#DejaVuSans-69" x="68.603516"/>
      <use xlink:href="#DejaVuSans-74" x="96.386719"/>
      <use xlink:href="#DejaVuSans-70" x="135.595703"/>
      <use xlink:href="#DejaVuSans-61" x="199.072266"/>
      <use xlink:href="#DejaVuSans-63" x="260.351562"/>
      <use xlink:href="#DejaVuSans-6b" x="315.332031"/>
      <use xlink:href="#DejaVuSans-20" x="373.242188"/>
      <use xlink:href="#DejaVuSans-43" x="405.029297"/>
      <use xlink:href="#DejaVuSans-6f" x="474.853516"/>
      <use xlink:href="#DejaVuSans-6d" x="536.035156"/>
      <use xlink:href="#DejaVuSans-70" x="633.447266"/>
      <use xlink:href="#DejaVuSans-72" x="696.923828"/>
      <use xlink:href="#DejaVuSans-65" x="735.787109"/>
      <use xlink:href="#DejaVuSans-73" x="797.310547"/>
      <use xlink:href="#DejaVuSans-73" x="849.410156"/>
      <use xlink:href="#DejaVuSans-69" x="901.509766"/>
      <use xlink:href="#DejaVuSans-6f" x="929.292969"/>
      <use xlink:href="#DejaVuSans-6e" x="990.474609"/>
     </g>
    </g>
    <g id="line2d_21">
     <path d="M 135.72 127.127694 
L 146.72 127.127694 
L 157.72 127.127694 
" style="fill: none; stroke: #c44e52; stroke-width: 1.5; stroke-linecap: round"/>
    </g>
    <g id="text_19">
     <!-- Bitpack Decompression -->
     <g style="fill: #262626" transform="translate(166.52 130.977694) scale(0.11 -0.11)">
      <use xlink:href="#DejaVuSans-42"/>
      <use xlink:href="#DejaVuSans-69" x="68.603516"/>
      <use xlink:href="#DejaVuSans-74" x="96.386719"/>
      <use xlink:href="#DejaVuSans-70" x="135.595703"/>
      <use xlink:href="#DejaVuSans-61" x="199.072266"/>
      <use xlink:href="#DejaVuSans-63" x="260.351562"/>
      <use xlink:href="#DejaVuSans-6b" x="315.332031"/>
      <use xlink:href="#DejaVuSans-20" x="373.242188"/>
      <use xlink:href="#DejaVuSans-44" x="405.029297"/>
      <use xlink:href="#DejaVuSans-65" x="482.03125"/>
      <use xlink:href="#DejaVuSans-63" x="543.554688"/>
      <use xlink:href="#DejaVuSans-6f" x="598.535156"/>
      <use xlink:href="#DejaVuSans-6d" x="659.716797"/>
      <use xlink:href="#DejaVuSans-70" x="757.128906"/>
      <use xlink:href="#DejaVuSans-72" x="820.605469"/>
      <use xlink:href="#DejaVuSans-65" x="859.46875"/>
      <use xlink:href="#DejaVuSans-73" x="920.992188"/>
      <use xlink:href="#DejaVuSans-73" x="973.091797"/>
      <use xlink:href="#DejaVuSans-69" x="1025.191406"/>
      <use xlink:href="#DejaVuSans-6f" x="1052.974609"/>
      <use xlink:href="#DejaVuSans-6e" x="1114.15625"/>
     </g>
    </g>
   </g>
  </g>
  <g id="axes_2">
   <g id="patch_8">
    <path d="M 125.82 476.7552 
L 905.904 476.7552 
L 905.904 289.2672 
L 125.82 289.2672 
z
" style="fill: #eaeaf2"/>
   </g>
   <g id="matplotlib.axis_3">
    <g id="xtick_7">
     <g id="line2d_22">
      <path d="M 155.694369 476.7552 
L 155.694369 289.2672 
" clip-path="url(#p1f6c14603c)" style="fill: none; stroke: #ffffff; stroke-linecap: round"/>
     </g>
     <g id="text_20">
      <!-- 0 -->
      <g style="fill: #262626" transform="translate(152.194994 494.613481) scale(0.11 -0.11)">
       <use xlink:href="#DejaVuSans-30"/>
      </g>
     </g>
    </g>
    <g id="xtick_8">
     <g id="line2d_23">
      <path d="M 295.294226 476.7552 
L 295.294226 289.2672 
" clip-path="url(#p1f6c14603c)" style="fill: none; stroke: #ffffff; stroke-linecap: round"/>
     </g>
     <g id="text_21">
      <!-- 50 -->
      <g style="fill: #262626" transform="translate(288.295476 494.613481) scale(0.11 -0.11)">
       <use xlink:href="#DejaVuSans-35"/>
       <use xlink:href="#DejaVuSans-30" x="63.623047"/>
      </g>
     </g>
    </g>
    <g id="xtick_9">
     <g id="line2d_24">
      <path d="M 434.894083 476.7552 
L 434.894083 289.2672 
" clip-path="url(#p1f6c14603c)" style="fill: none; stroke: #ffffff; stroke-linecap: round"/>
     </g>
     <g id="text_22">
      <!-- 100 -->
      <g style="fill: #262626" transform="translate(424.395958 494.613481) scale(0.11 -0.11)">
       <use xlink:href="#DejaVuSans-31"/>
       <use xlink:href="#DejaVuSans-30" x="63.623047"/>
       <use xlink:href="#DejaVuSans-30" x="127.246094"/>
      </g>
     </g>
    </g>
    <g id="xtick_10">
     <g id="line2d_25">
      <path d="M 574.49394 476.7552 
L 574.49394 289.2672 
" clip-path="url(#p1f6c14603c)" style="fill: none; stroke: #ffffff; stroke-linecap: round"/>
     </g>
     <g id="text_23">
      <!-- 150 -->
      <g style="fill: #262626" transform="translate(563.995815 494.613481) scale(0.11 -0.11)">
       <use xlink:href="#DejaVuSans-31"/>
       <use xlink:href="#DejaVuSans-35" x="63.623047"/>
       <use xlink:href="#DejaVuSans-30" x="127.246094"/>
      </g>
     </g>
    </g>
    <g id="xtick_11">
     <g id="line2d_26">
      <path d="M 714.093797 476.7552 
L 714.093797 289.2672 
" clip-path="url(#p1f6c14603c)" style="fill: none; stroke: #ffffff; stroke-linecap: round"/>
     </g>
     <g id="text_24">
      <!-- 200 -->
      <g style="fill: #262626" transform="translate(703.595672 494.613481) scale(0.11 -0.11)">
       <use xlink:href="#DejaVuSans-32"/>
       <use xlink:href="#DejaVuSans-30" x="63.623047"/>
       <use xlink:href="#DejaVuSans-30" x="127.246094"/>
      </g>
     </g>
    </g>
    <g id="xtick_12">
     <g id="line2d_27">
      <path d="M 853.693654 476.7552 
L 853.693654 289.2672 
" clip-path="url(#p1f6c14603c)" style="fill: none; stroke: #ffffff; stroke-linecap: round"/>
     </g>
     <g id="text_25">
      <!-- 250 -->
      <g style="fill: #262626" transform="translate(843.195529 494.613481) scale(0.11 -0.11)">
       <use xlink:href="#DejaVuSans-32"/>
       <use xlink:href="#DejaVuSans-35" x="63.623047"/>
       <use xlink:href="#DejaVuSans-30" x="127.246094"/>
      </g>
     </g>
    </g>
    <g id="text_26">
     <!-- Distinct Values -->
     <g style="fill: #262626" transform="translate(471.466688 510.019263) scale(0.12 -0.12)">
      <use xlink:href="#DejaVuSans-44"/>
      <use xlink:href="#DejaVuSans-69" x="77.001953"/>
      <use xlink:href="#DejaVuSans-73" x="104.785156"/>
      <use xlink:href="#DejaVuSans-74" x="156.884766"/>
      <use xlink:href="#DejaVuSans-69" x="196.09375"/>
      <use xlink:href="#DejaVuSans-6e" x="223.876953"/>
      <use xlink:href="#DejaVuSans-63" x="287.255859"/>
      <use xlink:href="#DejaVuSans-74" x="342.236328"/>
      <use xlink:href="#DejaVuSans-20" x="381.445312"/>
      <use xlink:href="#DejaVuSans-56" x="413.232422"/>
      <use xlink:href="#DejaVuSans-61" x="473.890625"/>
      <use xlink:href="#DejaVuSans-6c" x="535.169922"/>
      <use xlink:href="#DejaVuSans-75" x="562.953125"/>
      <use xlink:href="#DejaVuSans-65" x="626.332031"/>
      <use xlink:href="#DejaVuSans-73" x="687.855469"/>
     </g>
    </g>
   </g>
   <g id="matplotlib.axis_4">
    <g id="ytick_8">
     <g id="line2d_28">
      <path d="M 125.82 476.7552 
L 905.904 476.7552 
" clip-path="url(#p1f6c14603c)" style="fill: none; stroke: #ffffff; stroke-linecap: round"/>
     </g>
     <g id="text_27">
      <!-- 0 -->
      <g style="fill: #262626" transform="translate(109.32125 480.934341) scale(0.11 -0.11)">
       <use xlink:href="#DejaVuSans-30"/>
      </g>
     </g>
    </g>
    <g id="ytick_9">
     <g id="line2d_29">
      <path d="M 125.82 443.504622 
L 905.904 443.504622 
" clip-path="url(#p1f6c14603c)" style="fill: none; stroke: #ffffff; stroke-linecap: round"/>
     </g>
     <g id="text_28">
      <!-- 5 -->
      <g style="fill: #262626" transform="translate(109.32125 447.683763) scale(0.11 -0.11)">
       <use xlink:href="#DejaVuSans-35"/>
      </g>
     </g>
    </g>
    <g id="ytick_10">
     <g id="line2d_30">
      <path d="M 125.82 410.254045 
L 905.904 410.254045 
" clip-path="url(#p1f6c14603c)" style="fill: none; stroke: #ffffff; stroke-linecap: round"/>
     </g>
     <g id="text_29">
      <!-- 10 -->
      <g style="fill: #262626" transform="translate(102.3225 414.433186) scale(0.11 -0.11)">
       <use xlink:href="#DejaVuSans-31"/>
       <use xlink:href="#DejaVuSans-30" x="63.623047"/>
      </g>
     </g>
    </g>
    <g id="ytick_11">
     <g id="line2d_31">
      <path d="M 125.82 377.003467 
L 905.904 377.003467 
" clip-path="url(#p1f6c14603c)" style="fill: none; stroke: #ffffff; stroke-linecap: round"/>
     </g>
     <g id="text_30">
      <!-- 15 -->
      <g style="fill: #262626" transform="translate(102.3225 381.182608) scale(0.11 -0.11)">
       <use xlink:href="#DejaVuSans-31"/>
       <use xlink:href="#DejaVuSans-35" x="63.623047"/>
      </g>
     </g>
    </g>
    <g id="ytick_12">
     <g id="line2d_32">
      <path d="M 125.82 343.75289 
L 905.904 343.75289 
" clip-path="url(#p1f6c14603c)" style="fill: none; stroke: #ffffff; stroke-linecap: round"/>
     </g>
     <g id="text_31">
      <!-- 20 -->
      <g style="fill: #262626" transform="translate(102.3225 347.932031) scale(0.11 -0.11)">
       <use xlink:href="#DejaVuSans-32"/>
       <use xlink:href="#DejaVuSans-30" x="63.623047"/>
      </g>
     </g>
    </g>
    <g id="ytick_13">
     <g id="line2d_33">
      <path d="M 125.82 310.502312 
L 905.904 310.502312 
" clip-path="url(#p1f6c14603c)" style="fill: none; stroke: #ffffff; stroke-linecap: round"/>
     </g>
     <g id="text_32">
      <!-- 25 -->
      <g style="fill: #262626" transform="translate(102.3225 314.681453) scale(0.11 -0.11)">
       <use xlink:href="#DejaVuSans-32"/>
       <use xlink:href="#DejaVuSans-35" x="63.623047"/>
      </g>
     </g>
    </g>
    <g id="text_33">
     <!-- Insns/value -->
     <g style="fill: #262626" transform="translate(95.826875 417.048075) rotate(-90) scale(0.12 -0.12)">
      <defs>
       <path id="DejaVuSans-49" d="M 628 4666 
L 1259 4666 
L 1259 0 
L 628 0 
L 628 4666 
z
" transform="scale(0.015625)"/>
      </defs>
      <use xlink:href="#DejaVuSans-49"/>
      <use xlink:href="#DejaVuSans-6e" x="29.492188"/>
      <use xlink:href="#DejaVuSans-73" x="92.871094"/>
      <use xlink:href="#DejaVuSans-6e" x="144.970703"/>
      <use xlink:href="#DejaVuSans-73" x="208.349609"/>
      <use xlink:href="#DejaVuSans-2f" x="260.449219"/>
      <use xlink:href="#DejaVuSans-76" x="294.140625"/>
      <use xlink:href="#DejaVuSans-61" x="353.320312"/>
      <use xlink:href="#DejaVuSans-6c" x="414.599609"/>
      <use xlink:href="#DejaVuSans-75" x="442.382812"/>
      <use xlink:href="#DejaVuSans-65" x="505.761719"/>
     </g>
    </g>
   </g>
   <g id="line2d_34">
    <path d="M 161.278364 445.99832 
L 164.070361 439.514311 
L 166.862358 435.19187 
L 169.654355 453.20242 
L 172.446352 454.642959 
L 175.238349 449.599642 
L 178.030346 445.167041 
L 180.822344 455.897301 
L 183.614341 449.600245 
L 186.406338 448.076466 
L 189.198335 452.482084 
L 191.990332 449.323366 
L 194.782329 449.461095 
L 197.574326 443.805813 
L 200.366324 413.578989 
L 203.158321 443.872985 
L 205.950318 454.839296 
L 208.742315 449.323366 
L 211.534312 453.202419 
L 214.326309 447.494479 
L 217.118306 448.076463 
L 219.910304 442.59666 
L 222.702301 454.642959 
L 225.494298 445.720982 
L 228.286295 449.11555 
L 231.078292 434.194196 
L 233.870289 449.461094 
L 236.662286 443.920167 
L 239.454283 442.747807 
L 242.246281 445.9983 
L 245.038278 445.167035 
L 247.830275 442.7646 
L 250.622272 442.579869 
L 253.414269 443.780615 
L 256.206266 454.103137 
L 258.998263 449.323367 
L 261.790261 449.11555 
L 264.582258 421.337356 
L 267.374255 430.204193 
L 270.166252 449.489002 
L 272.958249 449.322743 
L 275.750246 442.553734 
L 278.542243 448.076464 
L 281.334241 441.84198 
L 284.126238 447.494479 
L 286.918235 436.854255 
L 289.710232 443.504393 
L 292.502229 444.05844 
L 295.294226 448.768975 
L 298.086223 439.348192 
L 300.87822 449.11555 
L 303.670218 444.335779 
L 306.462215 449.322745 
L 309.254212 444.168786 
L 312.046209 449.461092 
L 314.838206 444.057711 
L 317.630203 455.350053 
L 320.4222 455.51104 
L 323.214198 435.191858 
L 334.382186 435.191859 
L 337.174183 443.872985 
L 339.96618 443.780621 
L 342.758178 437.961591 
L 345.550175 443.78062 
L 348.342172 437.961591 
L 351.134169 454.864479 
L 353.926166 443.78061 
L 356.718163 454.103136 
L 359.51016 449.323366 
L 362.302157 449.11555 
L 365.094155 439.348193 
L 367.886152 449.11555 
L 370.678149 444.61262 
L 373.470146 452.925328 
L 376.262143 444.05844 
L 379.05414 449.046065 
L 381.846137 434.194197 
L 384.638135 434.194197 
L 387.430132 428.874086 
L 390.222129 434.194196 
L 393.014126 438.278562 
L 395.806123 455.141741 
L 398.59812 451.817154 
L 401.390117 448.076463 
L 404.182115 445.16704 
L 406.974112 451.817153 
L 409.766109 454.476703 
L 412.558106 454.476703 
L 415.350103 438.848572 
L 418.1421 454.476701 
L 420.934097 443.836274 
L 423.726094 449.489001 
L 426.518092 443.836273 
L 429.310089 441.28774 
L 432.102086 430.204193 
L 434.894083 437.962676 
L 437.68608 434.637613 
L 440.478077 453.895321 
L 443.270074 453.895321 
L 448.854069 444.33578 
L 451.646066 453.89532 
L 454.438063 453.895321 
L 457.23006 447.161971 
L 460.022057 442.174365 
L 462.814054 452.149578 
L 465.606052 452.149574 
L 468.398049 443.780612 
L 471.190046 454.864479 
L 473.982043 454.864479 
L 476.77404 445.404477 
L 479.566037 455.350054 
L 482.358034 443.920166 
L 485.150031 445.998294 
L 487.942029 445.16703 
L 513.070003 445.167029 
L 515.862 444.057712 
L 518.653997 443.919162 
L 521.445994 438.51578 
L 524.237991 443.919163 
L 527.029989 438.515779 
L 529.821986 454.864479 
L 532.613983 438.51578 
L 535.40598 443.919163 
L 538.197977 438.51578 
L 540.989974 454.864476 
L 552.157963 454.864476 
L 554.94996 443.780615 
L 557.741957 449.323366 
L 560.533954 443.920148 
L 563.325951 449.11555 
L 566.117948 444.33578 
L 568.909946 449.11555 
L 571.701943 444.33578 
L 574.49394 453.89532 
L 577.285937 453.89532 
L 580.077934 449.11555 
L 582.869931 436.854094 
L 585.661928 449.046064 
L 588.453926 436.854077 
L 591.245923 449.046064 
L 596.829917 449.046064 
L 599.621914 440.179176 
L 602.413911 445.720981 
L 605.205908 440.179176 
L 607.997906 449.322746 
L 610.789903 444.168786 
L 613.5819 449.322745 
L 616.373897 438.848574 
L 619.165894 454.476698 
L 621.957891 454.476702 
L 624.749888 449.322744 
L 627.541885 439.704114 
L 630.333883 450.154395 
L 633.12588 439.704114 
L 635.917877 450.154395 
L 638.709874 451.817154 
L 644.293868 451.817154 
L 647.085865 445.167038 
L 649.877863 451.817154 
L 661.045851 451.817153 
L 663.837848 452.149577 
L 669.421843 452.149578 
L 672.21384 442.174367 
L 675.005837 452.149579 
L 680.589831 452.149578 
L 683.381828 436.854255 
L 686.173825 452.149576 
L 688.965822 441.50935 
L 691.75782 447.494478 
L 694.549817 441.50935 
L 697.341814 452.149579 
L 700.133811 440.179176 
L 702.925808 452.925328 
L 711.3018 452.925328 
L 716.885794 444.612621 
L 719.677791 452.925328 
L 722.469788 452.925328 
L 725.261785 453.895321 
L 728.053782 444.33578 
L 730.84578 453.895321 
L 733.637777 453.89532 
L 736.429774 444.33578 
L 739.221771 453.895321 
L 755.973754 453.895321 
L 758.765751 449.322743 
L 761.557748 444.168787 
L 764.349745 454.476703 
L 775.517734 454.476701 
L 778.309731 454.864479 
L 781.101728 443.780615 
L 783.893725 454.864474 
L 792.269717 454.864479 
L 795.061714 455.141741 
L 800.645708 455.141741 
L 803.437705 377.003343 
L 870.445636 377.003343 
L 870.445636 377.003343 
" clip-path="url(#p1f6c14603c)" style="fill: none; stroke: #4c72b0; stroke-width: 1.5; stroke-linecap: round"/>
   </g>
   <g id="line2d_35">
    <path d="M 161.278364 438.516951 
L 164.070361 388.973233 
L 166.862358 421.891658 
L 169.654355 412.193072 
L 172.446352 416.570178 
L 175.238349 400.969172 
L 178.030346 440.17948 
L 180.822344 419.773957 
L 183.614341 410.807618 
L 186.406338 409.838314 
L 189.198335 412.248733 
L 191.990332 417.111881 
L 194.782329 403.324493 
L 197.574326 413.501496 
L 200.366324 410.25394 
L 203.158321 418.380081 
L 205.950318 414.635074 
L 208.742315 417.111881 
L 211.534312 414.963976 
L 214.326309 390.303259 
L 217.118306 394.044282 
L 219.910304 387.580364 
L 222.702301 416.57018 
L 225.494298 388.640388 
L 228.286295 410.461761 
L 231.078292 384.983148 
L 233.870289 403.324493 
L 236.662286 394.667728 
L 239.454283 406.473318 
L 242.246281 358.715541 
L 245.038278 440.17948 
L 247.830275 410.067178 
L 250.622272 403.60159 
L 253.414269 411.0832 
L 256.206266 417.111887 
L 258.998263 417.111881 
L 261.790261 410.461761 
L 264.582258 368.136332 
L 267.374255 388.086718 
L 270.166252 416.570177 
L 272.958249 401.939582 
L 275.750246 408.11483 
L 278.542243 404.019456 
L 281.334241 397.36934 
L 284.126238 396.953402 
L 286.918235 374.342922 
L 289.710232 396.953401 
L 292.502229 392.796743 
L 295.294226 399.44691 
L 298.086223 403.811639 
L 300.87822 410.461756 
L 303.670218 394.875545 
L 306.462215 409.919902 
L 309.254212 392.130436 
L 312.046209 404.848525 
L 314.838206 410.667554 
L 317.630203 418.047047 
L 320.4222 422.721256 
L 323.214198 358.715541 
L 326.006195 332.115078 
L 328.798192 345.415309 
L 331.590189 338.765193 
L 334.382186 421.891658 
L 337.174183 409.512985 
L 339.96618 402.955031 
L 342.758178 402.862666 
L 345.550175 402.955031 
L 348.342172 402.862666 
L 351.134169 423.82966 
L 353.926166 393.210467 
L 356.718163 417.111887 
L 359.51016 417.111884 
L 365.094155 403.811638 
L 367.886152 410.461759 
L 370.678149 408.313799 
L 373.470146 412.747259 
L 376.262143 408.313805 
L 379.05414 414.96398 
L 381.846137 370.352837 
L 384.638135 379.663035 
L 387.430132 379.663034 
L 390.222129 373.012895 
L 393.014126 404.908451 
L 395.806123 424.740509 
L 398.59812 416.904071 
L 401.390117 404.019461 
L 404.182115 377.834624 
L 406.974112 416.904071 
L 409.766109 405.597229 
L 412.558106 414.741358 
L 415.350103 385.646425 
L 418.1421 414.741358 
L 420.934097 388.140274 
L 423.726094 416.07141 
L 426.518092 388.140273 
L 429.310089 382.544942 
L 432.102086 355.944428 
L 434.894083 360.377847 
L 437.68608 361.486201 
L 440.478077 423.138554 
L 443.270074 399.239683 
L 446.062072 410.461755 
L 448.854069 410.461756 
L 451.646066 415.033724 
L 454.438063 408.175777 
L 457.23006 404.601065 
L 460.022057 404.601064 
L 462.814054 410.253691 
L 465.606052 393.960838 
L 468.398049 404.848525 
L 471.190046 423.829658 
L 473.982043 423.829659 
L 476.77404 385.553246 
L 479.566037 412.955549 
L 482.358034 407.032787 
L 485.150031 404.435087 
L 487.942029 377.834624 
L 490.734026 382.822211 
L 493.526023 384.48474 
L 496.31802 391.134856 
L 499.110017 377.834624 
L 501.902014 371.184501 
L 504.694011 384.48474 
L 507.486009 371.184509 
L 510.278006 391.134856 
L 513.070003 440.179479 
L 515.862 415.793846 
L 518.653997 404.017237 
L 527.029989 404.017235 
L 529.821986 423.829658 
L 532.613983 404.017235 
L 535.40598 404.017237 
L 538.197977 381.988053 
L 540.989974 423.829658 
L 549.365966 423.829656 
L 552.157963 416.209494 
L 554.94996 410.667554 
L 557.741957 417.111885 
L 560.533954 410.46176 
L 563.325951 410.461757 
L 566.117948 394.875545 
L 568.909946 410.461758 
L 571.701943 410.461756 
L 574.49394 423.138554 
L 577.285937 423.138554 
L 582.869931 397.507278 
L 585.661928 416.903608 
L 588.453926 397.507278 
L 591.245923 409.145072 
L 594.03792 416.903611 
L 596.829917 416.903596 
L 599.621914 404.157445 
L 602.413911 410.807617 
L 605.205908 381.990222 
L 607.997906 396.785624 
L 610.789903 409.421133 
L 613.5819 409.421133 
L 616.373897 402.770864 
L 619.165894 422.555427 
L 621.957891 422.555427 
L 624.749888 404.100918 
L 627.541885 383.177573 
L 630.333883 414.053406 
L 633.12588 401.22806 
L 635.917877 414.053399 
L 638.709874 416.904071 
L 644.293868 416.904071 
L 647.085865 404.019457 
L 649.877863 416.904071 
L 652.66986 407.344519 
L 655.461857 416.904071 
L 658.253854 416.904071 
L 661.045851 406.928888 
L 663.837848 410.253691 
L 666.629845 400.943487 
L 669.421843 410.253691 
L 672.21384 404.601064 
L 675.005837 410.25369 
L 677.797834 417.56885 
L 680.589831 410.253691 
L 683.381828 397.950923 
L 686.173825 410.25369 
L 688.965822 404.601064 
L 691.75782 411.251207 
L 694.549817 404.601064 
L 697.341814 410.25369 
L 700.133811 401.663633 
L 702.925808 412.747249 
L 705.717805 421.337059 
L 708.509802 412.747256 
L 711.3018 406.097078 
L 714.093797 386.146577 
L 716.885794 386.146576 
L 719.677791 412.747256 
L 722.469788 421.337057 
L 725.261785 423.138552 
L 728.053782 410.461754 
L 730.84578 415.033724 
L 733.637777 399.239683 
L 736.429774 410.461761 
L 739.221771 423.138554 
L 744.805765 423.138552 
L 747.597762 415.033721 
L 750.389759 399.239683 
L 753.181757 415.033722 
L 755.973754 423.138554 
L 758.765751 409.421133 
L 761.557748 409.421132 
L 764.349745 422.555428 
L 767.141742 422.555428 
L 769.933739 414.741356 
L 772.725737 422.555425 
L 775.517734 414.741356 
L 778.309731 397.644012 
L 781.101728 404.848525 
L 783.893725 406.511104 
L 786.685722 423.829658 
L 792.269717 423.829659 
L 795.061714 424.740512 
L 797.853711 417.258954 
L 800.645708 424.740513 
L 803.437705 330.452548 
L 806.229702 337.102662 
L 809.021699 337.102663 
L 811.813696 310.502199 
L 814.605694 337.102661 
L 817.397691 310.502201 
L 820.189688 323.802429 
L 822.981685 310.5022 
L 825.773682 317.152315 
L 828.565679 337.102662 
L 831.357676 323.802431 
L 834.149674 297.201967 
L 836.941671 323.802432 
L 839.733668 337.102663 
L 842.525665 323.80243 
L 845.317662 337.102663 
L 848.109659 297.201967 
L 856.485651 337.102663 
L 859.277648 297.201967 
L 862.069645 310.502198 
L 864.861642 297.201967 
L 867.653639 323.802432 
L 870.445636 377.003356 
L 870.445636 377.003356 
" clip-path="url(#p1f6c14603c)" style="fill: none; stroke: #dd8452; stroke-width: 1.5; stroke-linecap: round"/>
   </g>
   <g id="line2d_36">
    <path d="M 161.278364 446.829601 
L 870.445636 446.829601 
L 870.445636 446.829601 
" clip-path="url(#p1f6c14603c)" style="fill: none; stroke: #55a868; stroke-width: 1.5; stroke-linecap: round"/>
   </g>
   <g id="line2d_37">
    <path d="M 161.278364 439.348215 
L 178.030346 439.348216 
L 180.822344 440.17948 
L 200.366324 440.179479 
L 203.158321 439.348215 
L 513.070003 439.348216 
L 515.862 440.179482 
L 870.445636 440.179483 
L 870.445636 440.179483 
" clip-path="url(#p1f6c14603c)" style="fill: none; stroke: #c44e52; stroke-width: 1.5; stroke-linecap: round"/>
   </g>
   <g id="patch_9">
    <path d="M 125.82 476.7552 
L 125.82 289.2672 
" style="fill: none; stroke: #ffffff; stroke-width: 1.25; stroke-linejoin: miter; stroke-linecap: square"/>
   </g>
   <g id="patch_10">
    <path d="M 905.904 476.7552 
L 905.904 289.2672 
" style="fill: none; stroke: #ffffff; stroke-width: 1.25; stroke-linejoin: miter; stroke-linecap: square"/>
   </g>
   <g id="patch_11">
    <path d="M 125.82 476.7552 
L 905.904 476.7552 
" style="fill: none; stroke: #ffffff; stroke-width: 1.25; stroke-linejoin: miter; stroke-linecap: square"/>
   </g>
   <g id="patch_12">
    <path d="M 125.82 289.2672 
L 905.904 289.2672 
" style="fill: none; stroke: #ffffff; stroke-width: 1.25; stroke-linejoin: miter; stroke-linecap: square"/>
   </g>
   <g id="legend_2">
    <g id="patch_13">
     <path d="M 133.52 362.65095 
L 310.016719 362.65095 
Q 312.216719 362.65095 312.216719 360.45095 
L 312.216719 296.9672 
Q 312.216719 294.7672 310.016719 294.7672 
L 133.52 294.7672 
Q 131.32 294.7672 131.32 296.9672 
L 131.32 360.45095 
Q 131.32 362.65095 133.52 362.65095 
z
" style="fill: #eaeaf2; opacity: 0.8; stroke: #cccccc; stroke-linejoin: miter"/>
    </g>
    <g id="line2d_38">
     <path d="M 135.72 303.675481 
L 146.72 303.675481 
L 157.72 303.675481 
" style="fill: none; stroke: #4c72b0; stroke-width: 1.5; stroke-linecap: round"/>
    </g>
    <g id="text_34">
     <!-- Ultrapack Compression -->
     <g style="fill: #262626" transform="translate(166.52 307.525481) scale(0.11 -0.11)">
      <use xlink:href="#DejaVuSans-55"/>
      <use xlink:href="#DejaVuSans-6c" x="73.193359"/>
      <use xlink:href="#DejaVuSans-74" x="100.976562"/>
      <use xlink:href="#DejaVuSans-72" x="140.185547"/>
      <use xlink:href="#DejaVuSans-61" x="181.298828"/>
      <use xlink:href="#DejaVuSans-70" x="242.578125"/>
      <use xlink:href="#DejaVuSans-61" x="306.054688"/>
      <use xlink:href="#DejaVuSans-63" x="367.333984"/>
      <use xlink:href="#DejaVuSans-6b" x="422.314453"/>
      <use xlink:href="#DejaVuSans-20" x="480.224609"/>
      <use xlink:href="#DejaVuSans-43" x="512.011719"/>
      <use xlink:href="#DejaVuSans-6f" x="581.835938"/>
      <use xlink:href="#DejaVuSans-6d" x="643.017578"/>
      <use xlink:href="#DejaVuSans-70" x="740.429688"/>
      <use xlink:href="#DejaVuSans-72" x="803.90625"/>
      <use xlink:href="#DejaVuSans-65" x="842.769531"/>
      <use xlink:href="#DejaVuSans-73" x="904.292969"/>
      <use xlink:href="#DejaVuSans-73" x="956.392578"/>
      <use xlink:href="#DejaVuSans-69" x="1008.492188"/>
      <use xlink:href="#DejaVuSans-6f" x="1036.275391"/>
      <use xlink:href="#DejaVuSans-6e" x="1097.457031"/>
     </g>
    </g>
    <g id="line2d_39">
     <path d="M 135.72 319.821419 
L 146.72 319.821419 
L 157.72 319.821419 
" style="fill: none; stroke: #dd8452; stroke-width: 1.5; stroke-linecap: round"/>
    </g>
    <g id="text_35">
     <!-- Ultrapack Decompression -->
     <g style="fill: #262626" transform="translate(166.52 323.671419) scale(0.11 -0.11)">
      <use xlink:href="#DejaVuSans-55"/>
      <use xlink:href="#DejaVuSans-6c" x="73.193359"/>
      <use xlink:href="#DejaVuSans-74" x="100.976562"/>
      <use xlink:href="#DejaVuSans-72" x="140.185547"/>
      <use xlink:href="#DejaVuSans-61" x="181.298828"/>
      <use xlink:href="#DejaVuSans-70" x="242.578125"/>
      <use xlink:href="#DejaVuSans-61" x="306.054688"/>
      <use xlink:href="#DejaVuSans-63" x="367.333984"/>
      <use xlink:href="#DejaVuSans-6b" x="422.314453"/>
      <use xlink:href="#DejaVuSans-20" x="480.224609"/>
      <use xlink:href="#DejaVuSans-44" x="512.011719"/>
      <use xlink:href="#DejaVuSans-65" x="589.013672"/>
      <use xlink:href="#DejaVuSans-63" x="650.537109"/>
      <use xlink:href="#DejaVuSans-6f" x="705.517578"/>
      <use xlink:href="#DejaVuSans-6d" x="766.699219"/>
      <use xlink:href="#DejaVuSans-70" x="864.111328"/>
      <use xlink:href="#DejaVuSans-72" x="927.587891"/>
      <use xlink:href="#DejaVuSans-65" x="966.451172"/>
      <use xlink:href="#DejaVuSans-73" x="1027.974609"/>
      <use xlink:href="#DejaVuSans-73" x="1080.074219"/>
      <use xlink:href="#DejaVuSans-69" x="1132.173828"/>
      <use xlink:href="#DejaVuSans-6f" x="1159.957031"/>
      <use xlink:href="#DejaVuSans-6e" x="1221.138672"/>
     </g>
    </g>
    <g id="line2d_40">
     <path d="M 135.72 335.967356 
L 146.72 335.967356 
L 157.72 335.967356 
" style="fill: none; stroke: #55a868; stroke-width: 1.5; stroke-linecap: round"/>
    </g>
    <g id="text_36">
     <!-- Bitpack Compression -->
     <g style="fill: #262626" transform="translate(166.52 339.817356) scale(0.11 -0.11)">
      <use xlink:href="#DejaVuSans-42"/>
      <use xlink:href="#DejaVuSans-69" x="68.603516"/>
      <use xlink:href="#DejaVuSans-74" x="96.386719"/>
      <use xlink:href="#DejaVuSans-70" x="135.595703"/>
      <use xlink:href="#DejaVuSans-61" x="199.072266"/>
      <use xlink:href="#DejaVuSans-63" x="260.351562"/>
      <use xlink:href="#DejaVuSans-6b" x="315.332031"/>
      <use xlink:href="#DejaVuSans-20" x="373.242188"/>
      <use xlink:href="#DejaVuSans-43" x="405.029297"/>
      <use xlink:href="#DejaVuSans-6f" x="474.853516"/>
      <use xlink:href="#DejaVuSans-6d" x="536.035156"/>
      <use xlink:href="#DejaVuSans-70" x="633.447266"/>
      <use xlink:href="#DejaVuSans-72" x="696.923828"/>
      <use xlink:href="#DejaVuSans-65" x="735.787109"/>
      <use xlink:href="#DejaVuSans-73" x="797.310547"/>
      <use xlink:href="#DejaVuSans-73" x="849.410156"/>
      <use xlink:href="#DejaVuSans-69" x="901.509766"/>
      <use xlink:href="#DejaVuSans-6f" x="929.292969"/>
      <use xlink:href="#DejaVuSans-6e" x="990.474609"/>
     </g>
    </g>
    <g id="line2d_41">
     <path d="M 135.72 352.113294 
L 146.72 352.113294 
L 157.72 352.113294 
" style="fill: none; stroke: #c44e52; stroke-width: 1.5; stroke-linecap: round"/>
    </g>
    <g id="text_37">
     <!-- Bitpack Decompression -->
     <g style="fill: #262626" transform="translate(166.52 355.963294) scale(0.11 -0.11)">
      <use xlink:href="#DejaVuSans-42"/>
      <use xlink:href="#DejaVuSans-69" x="68.603516"/>
      <use xlink:href="#DejaVuSans-74" x="96.386719"/>
      <use xlink:href="#DejaVuSans-70" x="135.595703"/>
      <use xlink:href="#DejaVuSans-61" x="199.072266"/>
      <use xlink:href="#DejaVuSans-63" x="260.351562"/>
      <use xlink:href="#DejaVuSans-6b" x="315.332031"/>
      <use xlink:href="#DejaVuSans-20" x="373.242188"/>
      <use xlink:href="#DejaVuSans-44" x="405.029297"/>
      <use xlink:href="#DejaVuSans-65" x="482.03125"/>
      <use xlink:href="#DejaVuSans-63" x="543.554688"/>
      <use xlink:href="#DejaVuSans-6f" x="598.535156"/>
      <use xlink:href="#DejaVuSans-6d" x="659.716797"/>
      <use xlink:href="#DejaVuSans-70" x="757.128906"/>
      <use xlink:href="#DejaVuSans-72" x="820.605469"/>
      <use xlink:href="#DejaVuSans-65" x="859.46875"/>
      <use xlink:href="#DejaVuSans-73" x="920.992188"/>
      <use xlink:href="#DejaVuSans-73" x="973.091797"/>
      <use xlink:href="#DejaVuSans-69" x="1025.191406"/>
      <use xlink:href="#DejaVuSans-6f" x="1052.974609"/>
      <use xlink:href="#DejaVuSans-6e" x="1114.15625"/>
     </g>
    </g>
   </g>
  </g>
 </g>
 <defs>
  <clipPath id="pb856b8e8f4">
   <rect x="125.82" y="64.2816" width="780.084" height="187.488"/>
  </clipPath>
  <clipPath id="p1f6c14603c">
   <rect x="125.82" y="289.2672" width="780.084" height="187.488"/>
  </clipPath>
 </defs>
</svg>
